<?xml version="1.0" encoding="UTF-8" ?>
<!DOCTYPE svg PUBLIC "-//W3C//DTD SVG 1.1//EN" "http://www.w3.org/Graphics/SVG/1.1/DTD/svg11.dtd">
<svg width="800" height="800" viewBox="0 0 800 800" version="1.1" xmlns="http://www.w3.org/2000/svg">

<g id="SVG_LOGO_CONTOURE1" stroke="#999999" stroke-width="25px">
    <path fill="red" opacity="1.00" d=" M 238.94 201.98 C 247.79 196.92 257.50 192.32 267.93 192.50 C 276.59 192.50 285.14 196.59 290.46 203.46 C 305.21 221.89 321.41 239.41 340.50 253.44 C 341.27 254.00 342.08 254.50 342.94 254.93 C 346.33 253.22 349.40 250.86 353.06 249.69 C 358.45 247.74 364.37 248.05 369.91 249.19 C 379.39 251.18 388.60 254.27 397.79 257.32 C 401.16 258.65 404.45 256.28 407.68 255.51 C 417.92 252.40 428.22 248.44 439.05 248.28 C 445.70 248.14 451.50 251.67 457.02 254.91 C 474.06 243.52 488.39 228.45 501.71 212.97 C 507.09 206.98 511.32 199.49 518.77 195.78 C 527.41 191.20 537.91 191.81 546.86 195.18 C 559.73 199.94 570.92 208.12 582.03 216.00 C 599.33 228.48 616.26 241.64 635.02 251.92 C 645.81 257.86 657.73 261.16 669.10 265.74 C 696.98 276.67 724.15 289.58 749.73 305.19 C 748.61 335.45 735.20 364.61 714.46 386.46 C 710.13 391.13 705.05 395.12 701.36 400.37 C 695.86 408.19 691.73 416.84 687.23 425.25 C 684.04 431.61 680.17 437.60 677.12 444.03 C 668.07 457.39 657.85 470.10 645.40 480.46 C 636.70 487.75 627.18 494.03 617.17 499.35 C 615.48 518.03 610.01 536.70 599.14 552.16 C 590.16 564.58 578.11 574.94 563.99 581.07 C 545.93 589.13 524.85 591.12 505.95 584.83 C 494.29 581.35 483.56 575.34 474.00 567.88 C 472.35 585.89 469.52 604.17 461.83 620.69 C 457.23 630.68 450.35 640.05 440.66 645.58 C 428.36 652.66 413.94 654.91 399.93 655.25 C 384.11 654.84 367.47 652.00 354.48 642.34 C 343.07 633.34 336.74 619.60 332.64 605.99 C 328.91 593.60 327.29 580.73 325.88 567.91 C 313.52 577.82 298.74 584.72 283.12 587.52 C 265.23 590.51 246.54 586.85 230.57 578.45 C 212.93 569.01 198.86 553.22 191.29 534.73 C 186.44 523.50 184.08 511.40 182.80 499.29 C 162.48 488.70 144.42 473.63 130.88 455.10 C 128.24 451.43 125.30 447.98 122.94 444.12 C 119.86 437.68 115.98 431.66 112.79 425.27 C 108.29 416.87 104.15 408.24 98.67 400.42 C 94.83 394.95 89.48 390.83 85.02 385.92 C 69.33 369.22 58.05 348.36 52.91 326.01 C 51.32 319.19 50.90 312.18 50.25 305.23 C 81.29 286.25 114.64 271.25 148.87 259.06 C 164.27 253.67 177.94 244.52 191.26 235.29 C 207.24 224.32 222.27 211.93 238.94 201.98 M 247.46 219.25 C 234.54 227.09 222.72 236.55 210.39 245.25 C 192.12 258.36 173.27 271.46 151.67 278.43 C 125.03 288.18 98.91 299.56 74.21 313.53 C 72.81 313.90 71.64 314.80 70.41 315.53 C 74.21 338.33 85.61 359.66 102.03 375.88 C 109.04 373.91 116.06 372.01 123.11 370.21 C 119.15 375.09 114.50 379.33 110.36 384.05 C 122.20 398.67 128.90 416.48 138.73 432.37 C 142.11 432.67 145.68 433.17 148.92 431.84 C 154.22 429.75 158.92 426.45 163.94 423.81 C 158.23 430.55 152.49 437.28 146.70 443.95 C 147.30 444.77 147.91 445.60 148.52 446.44 L 148.90 446.60 C 158.77 461.61 173.24 473.48 189.49 481.05 C 189.70 475.56 191.09 470.19 191.38 464.73 L 191.01 464.25 L 191.68 463.97 C 196.73 441.34 205.53 419.22 219.68 400.67 C 234.22 381.28 254.71 366.42 277.79 358.92 C 259.34 390.66 245.45 426.03 243.40 463.00 C 242.96 472.96 243.79 483.01 246.23 492.70 C 250.46 493.45 254.92 493.86 259.05 492.40 C 265.95 490.31 271.14 484.54 274.15 478.19 C 275.42 472.51 275.17 465.94 279.36 461.35 C 285.80 454.59 292.40 447.99 298.79 441.18 C 294.35 433.94 289.93 426.67 286.10 419.08 C 287.02 412.15 290.08 405.71 291.54 398.92 C 290.19 390.58 287.37 382.49 286.32 374.08 C 286.04 372.73 286.81 371.51 287.39 370.38 C 290.70 364.84 295.06 360.03 298.52 354.60 C 299.49 353.52 298.19 352.31 297.52 351.52 C 289.70 343.55 279.45 338.31 268.82 335.17 C 263.50 333.74 258.09 332.10 252.51 332.37 C 249.34 332.13 246.18 331.69 243.03 331.33 C 249.08 329.98 255.31 329.61 261.50 329.97 C 267.38 330.50 273.15 331.73 278.91 333.01 C 272.60 325.07 265.87 317.45 258.72 310.26 C 254.07 305.82 249.23 301.36 243.41 298.51 C 239.94 296.74 235.95 297.68 232.38 298.54 C 220.45 301.88 208.99 306.67 197.65 311.60 C 193.54 313.53 189.18 315.01 185.44 317.63 L 184.92 317.67 C 183.00 318.54 181.05 319.36 179.03 319.96 C 193.06 312.08 207.38 304.72 221.95 297.91 C 227.34 295.53 232.77 293.12 238.49 291.66 C 243.45 290.39 247.94 293.67 252.08 295.92 C 271.37 307.73 288.70 322.40 306.02 336.87 C 306.51 337.17 307.47 337.76 307.96 338.06 C 311.08 334.13 313.61 329.76 316.92 325.98 C 314.17 334.05 311.16 342.04 308.37 350.09 C 310.55 349.11 312.69 348.02 314.93 347.15 C 312.13 351.09 308.61 354.50 306.10 358.64 C 302.62 361.38 300.33 365.22 297.64 368.66 C 295.88 371.13 293.42 373.77 294.23 377.09 C 296.23 389.32 300.46 401.07 302.85 413.21 C 302.25 412.10 301.68 410.98 301.11 409.86 C 300.08 408.87 299.05 407.89 298.03 406.90 C 296.83 410.43 294.92 413.64 293.52 417.08 C 293.86 418.60 294.94 419.80 295.76 421.09 C 299.41 426.18 302.44 431.68 305.29 437.25 C 307.68 435.43 310.03 433.58 312.38 431.72 C 314.05 433.39 316.40 433.39 318.59 433.46 L 318.48 434.75 C 312.99 440.04 307.45 445.29 301.88 450.51 C 303.15 451.17 304.42 451.84 305.69 452.52 C 308.67 455.25 311.53 458.21 313.26 461.92 C 308.63 458.19 303.33 455.35 297.48 454.13 C 296.10 455.27 294.74 456.43 293.37 457.57 C 297.50 459.57 300.83 462.86 303.16 466.79 C 300.27 465.04 297.59 462.81 294.31 461.83 C 292.85 461.48 291.38 461.14 289.92 460.79 C 285.03 464.00 282.22 469.43 281.87 475.22 C 281.96 477.17 284.35 476.69 285.64 477.31 C 285.99 477.27 286.70 477.19 287.05 477.15 C 292.50 479.73 298.34 481.41 303.60 484.40 C 317.60 491.59 329.15 502.75 338.12 515.56 C 337.72 495.72 341.28 476.01 346.82 457.03 C 347.81 453.80 348.87 450.58 349.44 447.25 C 350.47 444.51 351.44 441.75 352.54 439.05 C 352.40 443.21 351.09 447.27 351.19 451.44 C 347.71 476.90 345.17 502.54 344.39 528.23 L 344.22 528.62 C 343.96 532.19 343.96 535.77 344.05 539.35 C 344.15 550.20 344.49 561.08 345.62 571.89 C 347.65 588.54 350.47 605.89 359.86 620.17 C 364.12 626.92 371.35 631.17 378.97 633.11 C 394.88 637.65 412.40 637.06 427.74 630.72 C 437.93 626.44 443.47 616.03 447.15 606.20 C 454.56 584.80 455.73 561.89 455.96 539.44 C 456.05 535.80 456.04 532.17 455.77 528.54 L 455.59 528.16 C 454.86 502.47 452.28 476.84 448.80 451.39 C 448.90 447.26 447.57 443.24 447.52 439.11 C 448.57 441.83 449.53 444.59 450.58 447.32 C 450.90 448.95 451.26 450.61 451.72 452.22 C 458.08 472.66 462.31 493.97 461.85 515.45 C 467.94 507.48 474.30 499.55 482.39 493.50 C 491.35 486.20 501.93 481.33 512.72 477.39 L 513.68 477.76 L 513.79 476.83 C 515.18 476.78 516.57 476.71 517.96 476.63 C 518.30 470.34 515.36 464.26 510.09 460.79 C 508.63 461.13 507.18 461.47 505.74 461.82 C 502.45 462.75 499.81 465.00 496.97 466.78 C 499.14 462.78 502.54 459.56 506.63 457.57 C 505.26 456.43 503.89 455.28 502.53 454.14 C 496.66 455.33 491.35 458.20 486.73 461.94 C 488.47 458.23 491.30 455.24 494.31 452.53 C 495.58 451.83 496.85 451.15 498.13 450.48 C 489.25 442.15 480.25 433.91 472.19 424.77 C 461.39 410.77 457.52 392.84 455.99 375.57 C 456.14 374.66 456.31 373.75 456.50 372.86 C 457.84 378.66 459.56 384.40 461.91 389.88 C 463.46 393.75 468.00 395.09 471.69 395.94 C 471.72 396.19 471.78 396.69 471.81 396.94 C 469.65 398.48 467.09 399.98 466.05 402.56 C 466.55 402.89 467.53 403.56 468.02 403.90 C 468.16 403.41 468.44 402.43 468.58 401.93 C 468.51 402.48 468.37 403.57 468.30 404.12 C 472.14 405.01 476.75 405.10 479.63 401.95 C 483.60 397.23 483.50 390.55 483.43 384.72 C 479.43 388.24 476.21 392.68 471.63 395.52 L 471.64 395.60 C 470.95 394.61 470.19 393.69 469.47 392.75 C 476.13 387.43 480.16 379.79 485.23 373.10 C 486.26 371.82 487.23 370.39 488.71 369.58 C 493.18 370.37 497.04 372.89 501.07 374.81 C 497.46 374.45 493.85 374.11 490.22 374.14 C 491.62 383.79 492.46 394.47 487.16 403.16 C 484.91 407.18 480.87 409.58 476.91 411.66 C 480.72 411.40 484.95 411.98 488.27 409.68 C 488.04 410.11 487.59 410.96 487.36 411.39 C 483.54 414.26 478.88 416.86 473.92 415.87 C 474.05 416.49 474.32 417.74 474.45 418.36 C 477.17 421.21 480.23 423.82 482.44 427.11 C 482.29 430.26 483.34 433.30 486.55 434.42 C 486.80 433.77 487.30 432.47 487.55 431.82 C 489.94 433.57 492.29 435.37 494.62 437.22 C 495.62 435.47 496.62 433.72 497.63 431.97 C 498.99 433.21 500.76 433.49 502.53 433.57 C 503.11 432.87 503.69 432.17 504.28 431.48 C 504.27 427.37 503.68 423.11 505.19 419.17 C 506.89 414.96 502.60 411.41 503.05 407.20 C 505.67 407.24 508.30 407.30 510.93 407.43 C 512.00 411.27 513.74 415.05 513.69 419.11 C 510.26 426.84 505.60 433.98 501.20 441.19 C 505.82 446.07 510.58 450.82 515.18 455.72 C 518.24 459.04 522.18 461.91 523.53 466.43 C 525.02 470.20 524.81 474.35 525.86 478.22 C 528.19 483.11 531.77 487.62 536.47 490.42 C 541.65 493.58 547.98 493.99 553.80 492.68 C 556.19 483.02 557.03 473.02 556.61 463.09 C 556.04 452.77 554.68 442.50 552.26 432.45 C 554.28 431.61 555.06 433.90 555.74 435.34 C 557.15 434.95 558.59 434.61 560.03 434.27 C 558.75 433.93 556.34 434.78 555.95 433.00 C 555.92 431.58 557.54 430.75 558.62 431.72 C 557.89 430.62 557.17 429.52 556.59 428.35 C 556.20 429.37 555.88 431.77 554.26 430.81 C 552.88 428.25 555.62 425.69 557.97 425.09 C 556.77 425.36 555.57 425.61 554.37 425.83 C 553.05 427.69 553.13 430.08 552.18 432.11 C 549.81 423.24 548.09 414.03 544.08 405.73 C 544.22 405.41 544.49 404.78 544.63 404.47 L 543.28 404.59 L 543.28 403.08 C 537.77 387.71 530.45 373.01 522.21 358.92 C 539.81 364.74 556.15 374.60 569.13 387.88 C 589.80 408.35 602.11 435.87 608.32 463.98 L 609.00 464.25 L 608.64 464.76 C 608.88 470.21 610.31 475.57 610.51 481.05 C 626.59 473.54 640.99 461.85 650.80 447.00 L 651.04 446.92 C 651.79 445.92 652.54 444.93 653.32 443.95 C 647.49 437.29 641.79 430.53 636.04 423.82 C 641.08 426.44 645.78 429.75 651.10 431.85 C 654.33 433.20 657.91 432.68 661.30 432.36 C 671.08 416.45 677.82 398.68 689.64 384.05 C 685.51 379.33 680.83 375.10 676.91 370.20 C 683.93 372.03 690.96 373.89 697.95 375.88 C 714.38 359.69 725.76 338.36 729.59 315.58 C 728.35 314.83 727.20 313.88 725.78 313.53 C 700.91 299.46 674.60 288.01 647.76 278.23 C 628.48 271.95 611.37 260.69 594.95 249.06 C 581.15 239.47 568.03 228.90 553.76 219.99 C 547.91 216.46 541.77 213.04 534.97 211.85 C 531.42 211.29 527.37 212.06 525.03 214.99 C 515.63 226.52 505.94 237.87 495.22 248.22 C 484.25 258.76 472.61 268.97 459.07 276.08 C 460.36 278.51 461.71 280.91 463.07 283.32 C 463.73 284.44 464.39 285.58 465.06 286.71 C 464.71 286.55 464.02 286.23 463.68 286.07 C 457.40 279.67 450.54 273.69 442.93 268.93 C 439.62 266.60 435.46 267.65 431.83 268.42 C 422.42 270.69 413.31 273.99 404.09 276.89 C 402.12 277.44 400.04 278.31 398.02 277.49 C 388.66 274.73 379.50 271.30 370.04 268.87 C 365.81 267.96 360.94 266.26 357.02 268.96 C 350.14 273.20 343.99 278.58 338.21 284.20 L 338.06 284.25 L 337.11 285.07 C 337.08 285.09 337.04 285.13 337.01 285.15 C 336.52 285.58 335.52 286.45 335.02 286.89 C 335.61 285.68 336.25 284.49 336.91 283.32 C 338.30 280.93 339.63 278.52 340.92 276.09 C 338.33 274.81 335.81 273.39 333.42 271.76 C 310.66 256.60 292.14 236.09 274.99 215.01 C 272.64 212.06 268.56 211.28 265.00 211.85 C 258.68 212.95 252.94 216.03 247.46 219.25 M 224.33 410.10 C 220.89 415.78 217.01 421.34 214.78 427.64 C 213.58 429.58 212.56 431.63 211.73 433.76 C 202.81 455.53 199.83 479.63 202.58 502.96 C 204.60 519.85 211.17 536.50 222.98 548.97 C 237.26 563.75 258.66 571.72 279.12 568.73 C 290.39 566.79 301.42 562.35 310.45 555.26 C 321.29 547.66 329.96 536.90 335.60 524.93 C 333.60 521.98 331.85 518.81 329.31 516.28 C 327.61 513.26 325.17 510.77 322.76 508.32 C 311.17 496.73 296.78 487.93 281.19 482.89 C 275.85 495.53 262.55 503.50 248.99 503.51 C 250.72 507.39 252.97 511.01 255.60 514.35 C 259.28 518.87 263.46 522.93 267.53 527.09 C 255.58 522.63 245.41 513.59 240.19 501.89 C 232.20 484.29 232.83 464.23 235.82 445.54 C 240.28 420.01 249.31 395.31 262.04 372.75 C 246.93 382.22 234.36 395.43 224.33 410.10 M 537.96 372.67 C 550.71 395.46 559.89 420.34 564.27 446.10 C 567.17 464.61 567.72 484.46 559.82 501.88 C 554.63 513.52 544.53 522.56 532.64 527.00 C 536.58 522.74 540.88 518.81 544.44 514.21 C 547.19 511.03 549.21 507.31 551.02 503.54 C 546.30 503.13 541.51 502.61 537.13 500.71 C 528.95 497.51 522.36 490.88 518.82 482.89 C 503.70 487.79 489.68 496.19 478.29 507.29 C 475.24 510.41 471.96 513.43 469.88 517.32 L 469.44 517.56 C 467.68 519.96 466.02 522.42 464.40 524.92 C 469.99 536.98 478.81 547.53 489.52 555.38 C 503.03 565.33 520.26 571.15 537.12 568.86 C 556.44 566.56 574.60 555.32 584.95 538.79 C 596.46 521.24 599.21 499.53 598.24 478.97 C 597.09 461.30 593.53 443.37 585.21 427.61 C 583.09 421.58 579.39 416.28 576.15 410.83 C 566.08 395.80 553.24 382.44 537.96 372.67 Z" />
</g>

<g id="#ffffffff">
<path fill="#ffffff" opacity="1.00" d=" M 247.46 219.25 C 252.94 216.03 258.68 212.95 265.00 211.85 C 268.56 211.28 272.64 212.06 274.99 215.01 C 292.14 236.09 310.66 256.60 333.42 271.76 C 335.81 273.39 338.33 274.81 340.92 276.09 C 339.63 278.52 338.30 280.93 336.91 283.32 C 325.25 275.37 314.15 266.63 303.24 257.71 C 293.73 249.95 285.10 241.16 277.33 231.68 C 273.86 227.82 270.62 223.35 265.74 221.19 C 261.90 219.40 257.84 221.65 254.59 223.64 C 239.97 233.30 225.55 243.28 210.94 252.96 C 198.47 261.33 185.88 269.58 172.58 276.58 C 167.12 279.52 161.09 281.07 155.30 283.18 C 131.25 291.94 107.36 301.14 83.54 310.50 C 80.57 311.89 77.44 312.93 74.21 313.53 C 98.91 299.56 125.03 288.18 151.67 278.43 C 173.27 271.46 192.12 258.36 210.39 245.25 C 222.72 236.55 234.54 227.09 247.46 219.25 Z" />
<path fill="#ffffff" opacity="1.00" d=" M 525.03 214.99 C 527.37 212.06 531.42 211.29 534.97 211.85 C 541.77 213.04 547.91 216.46 553.76 219.99 C 568.03 228.90 581.15 239.47 594.95 249.06 C 611.37 260.69 628.48 271.95 647.76 278.23 C 674.60 288.01 700.91 299.46 725.78 313.53 C 719.94 312.62 714.83 309.46 709.25 307.69 C 689.07 299.69 668.75 292.07 648.39 284.52 C 640.70 281.55 632.53 279.68 625.35 275.50 C 599.62 261.29 575.95 243.76 551.43 227.64 C 546.93 224.81 542.60 220.79 537.03 220.53 C 531.87 221.12 528.28 225.38 525.01 229.00 C 516.11 239.71 506.57 249.98 495.61 258.61 C 485.07 267.25 474.38 275.71 463.07 283.32 C 461.71 280.91 460.36 278.51 459.07 276.08 C 472.61 268.97 484.25 258.76 495.22 248.22 C 505.94 237.87 515.63 226.52 525.03 214.99 Z" />
<path fill="#ffffff" opacity="1.00" d=" M 357.02 268.96 C 360.94 266.26 365.81 267.96 370.04 268.87 C 379.50 271.30 388.66 274.73 398.02 277.49 C 400.04 278.31 402.12 277.44 404.09 276.89 C 413.31 273.99 422.42 270.69 431.83 268.42 C 435.46 267.65 439.62 266.60 442.93 268.93 C 450.54 273.69 457.40 279.67 463.68 286.07 C 455.71 282.35 448.63 276.88 440.38 273.73 C 438.02 272.86 435.50 273.60 433.19 274.22 C 422.79 277.30 412.53 280.86 402.26 284.32 C 399.45 285.26 396.60 284.03 393.96 283.14 C 385.52 279.98 376.87 277.40 368.29 274.65 C 365.73 273.94 363.06 272.95 360.38 273.50 C 352.48 275.96 346.20 281.97 338.21 284.20 C 343.99 278.58 350.14 273.20 357.02 268.96 Z" />
<path fill="#ffffff" opacity="1.00" d=" M 337.01 285.15 C 337.04 285.13 337.08 285.09 337.11 285.07 C 337.08 285.09 337.04 285.13 337.01 285.15 Z" />
<path fill="#ffffff" opacity="1.00" d=" M 353.65 321.46 C 353.79 321.05 354.08 320.25 354.22 319.84 C 357.64 328.77 361.09 338.98 357.23 348.34 C 355.61 351.66 354.35 356.09 350.24 356.98 C 358.75 347.16 357.20 333.00 353.65 321.46 Z" />
<path fill="#ffffff" opacity="1.00" d=" M 445.80 319.78 C 445.94 320.22 446.20 321.09 446.33 321.53 C 443.09 332.24 441.58 344.68 447.82 354.63 L 448.51 356.10 C 445.32 355.15 444.42 351.59 443.04 348.97 C 438.74 339.48 442.31 328.92 445.80 319.78 Z" />
<path fill="#ffffff" opacity="1.00" d=" M 224.33 410.10 C 234.36 395.43 246.93 382.22 262.04 372.75 C 249.31 395.31 240.28 420.01 235.82 445.54 C 232.83 464.23 232.20 484.29 240.19 501.89 C 245.41 513.59 255.58 522.63 267.53 527.09 C 263.46 522.93 259.28 518.87 255.60 514.35 C 264.83 512.24 273.93 508.40 280.84 501.76 C 283.56 499.20 285.46 495.88 288.28 493.43 C 298.25 494.65 307.47 499.68 315.53 505.51 C 320.22 508.98 324.42 513.07 329.31 516.28 C 331.85 518.81 333.60 521.98 335.60 524.93 C 329.96 536.90 321.29 547.66 310.45 555.26 C 302.93 556.44 295.66 558.89 288.06 559.58 C 273.73 561.36 258.58 560.25 245.60 553.45 C 230.88 546.11 220.70 531.91 215.36 516.65 C 207.54 494.14 207.40 469.63 211.39 446.34 C 212.32 440.06 214.25 433.97 214.78 427.64 C 217.01 421.34 220.89 415.78 224.33 410.10 Z" />
<path fill="#ffffff" opacity="1.00" d=" M 537.96 372.67 C 553.24 382.44 566.08 395.80 576.15 410.83 C 579.39 416.28 583.09 421.58 585.21 427.61 C 585.60 432.52 586.82 437.29 587.88 442.09 C 592.27 465.18 592.84 489.45 586.13 512.17 C 581.50 527.48 572.75 542.28 558.90 550.89 C 544.55 560.18 526.60 561.77 510.03 559.27 C 503.06 558.64 496.47 556.07 489.52 555.38 C 478.81 547.53 469.99 536.98 464.40 524.92 C 466.02 522.42 467.68 519.96 469.44 517.56 L 469.88 517.32 C 474.66 515.23 477.51 510.64 481.64 507.65 C 490.02 501.18 499.49 495.45 510.05 493.64 C 512.22 492.94 513.30 495.20 514.56 496.49 C 521.60 506.11 532.86 512.06 544.44 514.21 C 540.88 518.81 536.58 522.74 532.64 527.00 C 544.53 522.56 554.63 513.52 559.82 501.88 C 567.72 484.46 567.17 464.61 564.27 446.10 C 559.89 420.34 550.71 395.46 537.96 372.67 Z" />
<path fill="#ffffff" opacity="1.00" d=" M 344.00 375.49 C 344.29 377.63 344.53 379.79 344.45 381.96 C 343.55 395.74 340.17 409.41 333.78 421.68 C 326.38 433.63 315.42 442.60 305.69 452.52 C 304.42 451.84 303.15 451.17 301.88 450.51 C 307.45 445.29 312.99 440.04 318.48 434.75 C 318.76 434.46 319.32 433.90 319.59 433.61 C 321.14 432.00 322.65 430.35 324.09 428.63 C 324.63 428.05 325.19 427.49 325.77 426.95 C 329.10 423.76 331.44 419.72 333.65 415.72 C 340.01 403.27 342.84 389.33 344.00 375.49 Z" />
<path fill="#ffffff" opacity="1.00" d=" M 456.71 392.03 C 455.96 386.59 454.92 381.04 455.99 375.57 C 457.52 392.84 461.39 410.77 472.19 424.77 C 480.25 433.91 489.25 442.15 498.13 450.48 C 496.85 451.15 495.58 451.83 494.31 452.53 C 482.92 440.98 469.46 430.47 462.94 415.15 C 459.39 407.91 458.08 399.89 456.71 392.03 Z" />
<path fill="#ffffff" opacity="1.00" d=" M 316.72 385.01 C 321.46 391.78 325.99 399.65 334.08 402.80 C 329.74 405.13 323.73 405.77 320.16 401.75 C 316.60 397.00 316.50 390.69 316.72 385.01 Z" />
<path fill="#ffffff" opacity="1.00" d=" M 471.63 395.52 C 476.21 392.68 479.43 388.24 483.43 384.72 C 483.50 390.55 483.60 397.23 479.63 401.95 C 476.75 405.10 472.14 405.01 468.30 404.12 C 468.37 403.57 468.51 402.48 468.58 401.93 C 468.44 402.43 468.16 403.41 468.02 403.90 C 467.53 403.56 466.55 402.89 466.05 402.56 C 467.09 399.98 469.65 398.48 471.81 396.94 C 471.78 396.69 471.72 396.19 471.69 395.94 L 471.64 395.60 L 471.63 395.52 Z" />
<path fill="#ffffff" opacity="1.00" d=" M 351.19 451.44 C 351.45 454.28 351.67 457.16 351.37 460.02 C 349.59 478.89 348.13 497.78 346.47 516.66 C 346.12 520.55 346.36 524.70 344.39 528.23 C 345.17 502.54 347.71 476.90 351.19 451.44 Z" />
<path fill="#ffffff" opacity="1.00" d=" M 448.51 458.56 C 448.34 456.16 448.58 453.77 448.80 451.39 C 452.28 476.84 454.86 502.47 455.59 528.16 C 453.66 524.89 453.92 520.98 453.57 517.34 C 451.90 497.74 450.32 478.14 448.51 458.56 Z" />
<path fill="#ffffff" opacity="1.00" d=" M 281.87 475.22 C 282.22 469.43 285.03 464.00 289.92 460.79 C 291.38 461.14 292.85 461.48 294.31 461.83 C 291.83 463.42 289.24 465.21 287.96 467.97 C 286.66 470.92 286.26 474.16 285.64 477.31 C 284.35 476.69 281.96 477.17 281.87 475.22 Z" />
<path fill="#ffffff" opacity="1.00" d=" M 505.74 461.82 C 507.18 461.47 508.63 461.13 510.09 460.79 C 515.36 464.26 518.30 470.34 517.96 476.63 C 516.57 476.71 515.18 476.78 513.79 476.83 C 514.22 470.79 511.32 464.55 505.74 461.82 Z" />
</g>
<g id="#cccdcfff">
<path fill="#cccdcf" opacity="1.00" d=" M 254.59 223.64 C 257.84 221.65 261.90 219.40 265.74 221.19 C 270.62 223.35 273.86 227.82 277.33 231.68 C 285.10 241.16 293.73 249.95 303.24 257.71 C 314.15 266.63 325.25 275.37 336.91 283.32 C 336.25 284.49 335.61 285.68 335.02 286.89 C 335.52 286.45 336.52 285.58 337.01 285.15 C 337.04 285.13 337.08 285.09 337.11 285.07 L 338.06 284.25 L 338.21 284.20 C 346.20 281.97 352.48 275.96 360.38 273.50 C 363.06 272.95 365.73 273.94 368.29 274.65 C 376.87 277.40 385.52 279.98 393.96 283.14 C 396.60 284.03 399.45 285.26 402.26 284.32 C 412.53 280.86 422.79 277.30 433.19 274.22 C 435.50 273.60 438.02 272.86 440.38 273.73 C 448.63 276.88 455.71 282.35 463.68 286.07 C 464.02 286.23 464.71 286.55 465.06 286.71 C 464.39 285.58 463.73 284.44 463.07 283.32 C 474.38 275.71 485.07 267.25 495.61 258.61 C 506.57 249.98 516.11 239.71 525.01 229.00 C 528.28 225.38 531.87 221.12 537.03 220.53 C 542.60 220.79 546.93 224.81 551.43 227.64 C 575.95 243.76 599.62 261.29 625.35 275.50 C 632.53 279.68 640.70 281.55 648.39 284.52 C 668.75 292.07 689.07 299.69 709.25 307.69 C 714.83 309.46 719.94 312.62 725.78 313.53 C 727.20 313.88 728.35 314.83 729.59 315.58 C 725.76 338.36 714.38 359.69 697.95 375.88 C 690.96 373.89 683.93 372.03 676.91 370.20 C 680.83 375.10 685.51 379.33 689.64 384.05 C 677.82 398.68 671.08 416.45 661.30 432.36 C 657.91 432.68 654.33 433.20 651.10 431.85 C 645.78 429.75 641.08 426.44 636.04 423.82 C 641.79 430.53 647.49 437.29 653.32 443.95 C 652.54 444.93 651.79 445.92 651.04 446.92 L 650.80 447.00 C 648.43 447.84 646.12 448.84 643.97 450.13 C 633.15 456.66 621.18 461.04 609.00 464.25 L 608.32 463.98 C 602.11 435.87 589.80 408.35 569.13 387.88 C 556.15 374.60 539.81 364.74 522.21 358.92 C 530.45 373.01 537.77 387.71 543.28 403.08 L 543.28 404.59 C 543.04 404.61 542.57 404.64 542.34 404.66 C 541.94 403.83 541.57 402.99 541.22 402.16 C 541.15 402.82 541.00 404.12 540.92 404.78 C 538.09 404.80 535.02 404.24 532.44 405.70 C 529.98 407.14 528.17 409.42 526.27 411.50 C 523.87 405.62 522.22 399.42 521.88 393.07 C 521.37 387.02 522.26 380.99 522.29 374.95 C 522.30 370.19 519.79 365.77 520.30 360.98 C 520.93 352.97 525.75 345.82 531.99 341.00 C 536.70 337.25 542.54 335.44 547.65 332.36 C 550.79 332.10 553.92 331.70 557.05 331.26 C 550.96 330.09 544.75 329.51 538.56 330.01 C 542.94 324.01 548.27 318.80 553.67 313.73 C 557.09 310.72 561.02 307.26 565.93 307.66 C 580.09 308.92 593.85 312.83 607.49 316.67 C 609.87 317.29 612.33 317.42 614.77 317.63 C 616.84 318.44 618.90 319.26 621.00 320.03 C 606.33 311.71 591.32 304.01 575.99 296.99 C 570.48 294.78 565.02 291.95 559.04 291.36 C 554.21 291.75 550.10 294.72 546.02 297.06 C 526.82 309.14 509.55 323.92 492.12 338.36 C 489.18 334.13 486.30 329.85 483.00 325.90 C 485.86 333.99 488.82 342.05 491.61 350.16 C 489.40 349.11 487.20 348.04 484.96 347.06 C 487.93 350.89 491.05 354.61 494.03 358.45 C 495.73 363.26 498.81 367.38 501.10 371.91 C 503.01 375.36 501.79 379.38 500.94 382.96 C 498.14 392.68 493.33 402.25 485.13 408.51 C 486.06 408.56 487.92 408.65 488.85 408.70 L 488.27 409.68 C 484.95 411.98 480.72 411.40 476.91 411.66 C 480.87 409.58 484.91 407.18 487.16 403.16 C 492.46 394.47 491.62 383.79 490.22 374.14 C 493.85 374.11 497.46 374.45 501.07 374.81 C 497.04 372.89 493.18 370.37 488.71 369.58 C 487.23 370.39 486.26 371.82 485.23 373.10 C 480.16 379.79 476.13 387.43 469.47 392.75 C 470.19 393.69 470.95 394.61 471.64 395.60 L 471.69 395.94 C 468.00 395.09 463.46 393.75 461.91 389.88 C 459.56 384.40 457.84 378.66 456.50 372.86 C 456.31 373.75 456.14 374.66 455.99 375.57 C 454.92 381.04 455.96 386.59 456.71 392.03 C 458.08 399.89 459.39 407.91 462.94 415.15 C 469.46 430.47 482.92 440.98 494.31 452.53 C 491.30 455.24 488.47 458.23 486.73 461.94 C 491.35 458.20 496.66 455.33 502.53 454.14 C 503.89 455.28 505.26 456.43 506.63 457.57 C 502.54 459.56 499.14 462.78 496.97 466.78 C 499.81 465.00 502.45 462.75 505.74 461.82 C 511.32 464.55 514.22 470.79 513.79 476.83 L 513.68 477.76 L 512.72 477.39 C 512.32 477.24 511.52 476.94 511.12 476.79 C 495.20 478.34 480.57 486.02 468.51 496.26 C 465.46 482.07 460.66 468.30 455.10 454.92 C 454.02 452.15 452.52 449.56 450.58 447.32 C 449.53 444.59 448.57 441.83 447.52 439.11 C 447.57 443.24 448.90 447.26 448.80 451.39 C 448.58 453.77 448.34 456.16 448.51 458.56 C 450.32 478.14 451.90 497.74 453.57 517.34 C 453.92 520.98 453.66 524.89 455.59 528.16 L 455.77 528.54 C 456.04 532.17 456.05 535.80 455.96 539.44 C 455.44 536.43 454.57 533.51 453.61 530.63 C 451.64 545.63 449.66 561.31 441.34 574.33 C 438.73 578.61 434.54 581.54 430.11 583.72 C 432.72 583.77 435.32 583.86 437.93 583.97 C 435.04 591.11 430.64 597.88 423.93 601.96 C 415.84 607.53 405.71 609.05 396.09 608.42 C 386.17 607.94 376.33 603.80 369.56 596.46 C 366.24 592.93 364.21 588.47 362.07 584.19 C 364.65 583.98 367.25 583.79 369.84 583.63 C 365.42 581.50 361.23 578.59 358.61 574.34 C 350.37 561.27 348.38 545.60 346.39 530.60 C 345.46 533.47 344.59 536.37 344.05 539.35 C 343.96 535.77 343.96 532.19 344.22 528.62 L 344.39 528.23 C 346.36 524.70 346.12 520.55 346.47 516.66 C 348.13 497.78 349.59 478.89 351.37 460.02 C 351.67 457.16 351.45 454.28 351.19 451.44 C 351.09 447.27 352.40 443.21 352.54 439.05 C 351.44 441.75 350.47 444.51 349.44 447.25 C 346.40 450.67 344.85 455.03 343.12 459.19 C 338.38 471.25 334.17 483.57 331.50 496.27 C 322.76 489.23 313.29 482.74 302.38 479.63 C 297.38 478.32 292.29 476.44 287.05 477.15 C 286.70 477.19 285.99 477.27 285.64 477.31 C 286.26 474.16 286.66 470.92 287.96 467.97 C 289.24 465.21 291.83 463.42 294.31 461.83 C 297.59 462.81 300.27 465.04 303.16 466.79 C 300.83 462.86 297.50 459.57 293.37 457.57 C 294.74 456.43 296.10 455.27 297.48 454.13 C 303.33 455.35 308.63 458.19 313.26 461.92 C 311.53 458.21 308.67 455.25 305.69 452.52 C 315.42 442.60 326.38 433.63 333.78 421.68 C 340.17 409.41 343.55 395.74 344.45 381.96 C 344.53 379.79 344.29 377.63 344.00 375.49 C 343.89 374.53 343.77 373.58 343.66 372.63 C 341.86 379.12 340.32 385.87 336.75 391.67 C 335.72 393.53 333.46 395.21 331.49 393.48 C 322.79 387.35 319.13 376.44 311.23 369.61 C 306.76 370.42 302.90 372.93 298.83 374.80 C 302.47 374.46 306.12 374.18 309.77 374.11 C 308.43 383.56 307.57 393.94 312.47 402.58 C 314.67 406.80 318.88 409.32 322.85 411.66 C 319.07 411.61 315.30 411.13 311.69 410.02 C 311.44 409.75 310.95 409.20 310.70 408.93 C 311.73 408.56 312.76 408.19 313.79 407.84 C 306.33 401.44 301.76 392.32 299.08 383.01 C 298.21 379.44 296.89 375.41 298.84 371.95 C 301.11 367.43 304.06 363.28 306.10 358.64 C 308.61 354.50 312.13 351.09 314.93 347.15 C 312.69 348.02 310.55 349.11 308.37 350.09 C 311.16 342.04 314.17 334.05 316.92 325.98 C 313.61 329.76 311.08 334.13 307.96 338.06 C 307.47 337.76 306.51 337.17 306.02 336.87 C 288.70 322.40 271.37 307.73 252.08 295.92 C 247.94 293.67 243.45 290.39 238.49 291.66 C 232.77 293.12 227.34 295.53 221.95 297.91 C 207.38 304.72 193.06 312.08 179.03 319.96 C 181.05 319.36 183.00 318.54 184.92 317.67 L 185.44 317.63 C 187.78 317.50 190.15 317.33 192.43 316.72 C 206.06 312.83 219.81 308.96 233.97 307.66 C 238.67 307.14 242.49 310.42 245.82 313.25 C 251.46 318.41 256.83 323.90 261.50 329.97 C 255.31 329.61 249.08 329.98 243.03 331.33 C 246.18 331.69 249.34 332.13 252.51 332.37 C 258.05 336.01 264.75 337.75 269.67 342.34 C 274.56 346.87 278.59 352.72 279.54 359.44 C 280.71 365.41 277.07 370.99 277.70 376.97 C 278.20 382.29 277.94 387.66 278.45 392.97 C 281.76 398.41 280.17 404.95 280.44 410.95 C 280.21 416.77 281.71 423.22 278.30 428.41 C 276.62 431.59 272.97 432.56 269.93 433.92 C 269.57 440.73 267.77 447.86 262.68 452.72 C 257.43 458.00 250.22 460.47 243.40 463.00 C 245.45 426.03 259.34 390.66 277.79 358.92 C 254.71 366.42 234.22 381.28 219.68 400.67 C 205.53 419.22 196.73 441.34 191.68 463.97 L 191.01 464.25 C 179.28 461.12 167.68 457.03 157.21 450.80 C 154.54 449.21 151.78 447.77 148.90 446.60 L 148.52 446.44 C 147.91 445.60 147.30 444.77 146.70 443.95 C 152.49 437.28 158.23 430.55 163.94 423.81 C 158.92 426.45 154.22 429.75 148.92 431.84 C 145.68 433.17 142.11 432.67 138.73 432.37 C 128.90 416.48 122.20 398.67 110.36 384.05 C 114.50 379.33 119.15 375.09 123.11 370.21 C 116.06 372.01 109.04 373.91 102.03 375.88 C 85.61 359.66 74.21 338.33 70.41 315.53 C 71.64 314.80 72.81 313.90 74.21 313.53 C 77.44 312.93 80.57 311.89 83.54 310.50 C 107.36 301.14 131.25 291.94 155.30 283.18 C 161.09 281.07 167.12 279.52 172.58 276.58 C 185.88 269.58 198.47 261.33 210.94 252.96 C 225.55 243.28 239.97 233.30 254.59 223.64 M 364.40 286.53 C 360.63 288.25 357.14 290.51 353.42 292.31 C 353.44 292.48 353.49 292.82 353.51 292.99 C 359.06 291.18 365.44 289.66 371.06 292.08 C 380.71 295.53 390.42 298.79 400.01 302.39 C 408.32 299.25 416.73 296.40 425.10 293.45 C 428.06 292.45 430.96 291.15 434.08 290.73 C 438.35 290.85 442.53 291.89 446.75 292.51 C 442.98 290.57 439.41 288.24 435.54 286.50 C 434.07 285.66 432.41 286.29 430.91 286.68 C 421.12 289.89 411.29 293.02 401.53 296.33 C 399.85 297.04 398.15 296.19 396.55 295.72 C 387.74 292.63 378.79 289.94 369.95 286.94 C 368.16 286.47 366.17 285.53 364.40 286.53 M 351.36 315.71 C 351.11 329.43 348.84 343.02 347.18 356.63 L 348.54 356.05 C 347.81 357.38 347.08 358.70 346.36 360.04 C 347.67 359.05 349.03 358.10 350.24 356.98 C 354.35 356.09 355.61 351.66 357.23 348.34 C 361.09 338.98 357.64 328.77 354.22 319.84 C 354.08 320.25 353.79 321.05 353.65 321.46 C 353.33 320.61 352.69 318.90 352.37 318.05 C 352.28 317.18 351.69 316.47 351.36 315.71 M 447.49 317.89 L 447.51 318.24 C 447.21 319.06 446.63 320.71 446.33 321.53 C 446.20 321.09 445.94 320.22 445.80 319.78 C 442.31 328.92 438.74 339.48 443.04 348.97 C 444.42 351.59 445.32 355.15 448.51 356.10 L 447.82 354.63 C 449.47 356.73 451.49 358.50 453.71 359.98 C 453.12 358.98 452.51 358.00 451.95 356.99 C 453.60 353.41 451.60 349.45 451.44 345.74 C 450.45 335.79 448.49 325.89 448.77 315.86 C 448.34 316.53 447.91 317.21 447.49 317.89 M 278.40 395.71 C 276.24 398.74 276.32 402.59 275.82 406.12 C 275.60 407.61 275.46 409.64 273.51 409.96 C 273.40 405.88 274.34 401.63 272.86 397.70 C 273.38 401.45 273.55 405.24 272.75 408.97 C 273.69 411.81 272.43 414.54 271.40 417.16 C 269.38 422.11 269.72 427.56 269.70 432.80 C 275.07 432.39 279.77 427.29 279.65 421.89 C 280.08 414.12 279.33 406.33 279.90 398.56 C 280.38 397.25 278.81 396.73 278.40 395.71 M 374.63 472.94 C 383.04 471.91 391.43 470.44 399.94 470.61 C 408.56 470.42 417.06 471.94 425.58 472.96 C 418.23 466.91 408.21 465.79 399.03 465.73 C 390.57 466.10 381.26 467.14 374.63 472.94 M 363.89 511.58 C 387.91 509.62 412.07 509.66 436.09 511.56 C 423.79 505.23 409.52 504.14 395.91 504.42 C 384.97 504.91 373.68 506.38 363.89 511.58 M 365.86 548.56 C 388.61 547.97 411.38 548.00 434.12 548.55 C 423.94 543.39 412.23 542.64 401.01 542.47 C 389.12 542.51 376.68 543.12 365.86 548.56 M 374.65 584.31 C 382.83 586.90 391.42 588.24 399.99 588.69 C 408.82 588.30 417.60 586.68 426.09 584.21 C 415.07 583.29 404.00 584.40 392.97 583.97 C 386.86 584.03 380.71 583.41 374.65 584.31 Z" />
<path fill="#cccdcf" opacity="1.00" d=" M 531.38 407.15 C 535.15 404.34 539.81 406.07 544.08 405.73 C 548.09 414.03 549.81 423.24 552.18 432.11 C 553.13 430.08 553.05 427.69 554.37 425.83 C 555.57 425.61 556.77 425.36 557.97 425.09 C 555.62 425.69 552.88 428.25 554.26 430.81 C 555.88 431.77 556.20 429.37 556.59 428.35 C 557.17 429.52 557.89 430.62 558.62 431.72 C 557.54 430.75 555.92 431.58 555.95 433.00 C 556.34 434.78 558.75 433.93 560.03 434.27 C 558.59 434.61 557.15 434.95 555.74 435.34 C 555.06 433.90 554.28 431.61 552.26 432.45 C 554.68 442.50 556.04 452.77 556.61 463.09 C 548.53 460.02 539.63 456.90 534.57 449.40 C 531.58 445.21 530.48 440.03 530.35 434.96 C 530.56 429.26 525.02 425.08 525.75 419.30 C 526.46 414.91 526.80 409.33 531.38 407.15 M 526.91 415.00 C 526.07 419.83 525.96 425.79 530.18 429.17 C 530.25 424.42 530.78 418.50 526.91 415.00 Z" />
<path fill="#cccdcf" opacity="1.00" d=" M 211.73 433.76 C 212.56 431.63 213.58 429.58 214.78 427.64 C 214.25 433.97 212.32 440.06 211.39 446.34 C 207.40 469.63 207.54 494.14 215.36 516.65 C 220.70 531.91 230.88 546.11 245.60 553.45 C 258.58 560.25 273.73 561.36 288.06 559.58 C 295.66 558.89 302.93 556.44 310.45 555.26 C 301.42 562.35 290.39 566.79 279.12 568.73 C 258.66 571.72 237.26 563.75 222.98 548.97 C 211.17 536.50 204.60 519.85 202.58 502.96 C 199.83 479.63 202.81 455.53 211.73 433.76 Z" />
<path fill="#cccdcf" opacity="1.00" d=" M 585.21 427.61 C 593.53 443.37 597.09 461.30 598.24 478.97 C 599.21 499.53 596.46 521.24 584.95 538.79 C 574.60 555.32 556.44 566.56 537.12 568.86 C 520.26 571.15 503.03 565.33 489.52 555.38 C 496.47 556.07 503.06 558.64 510.03 559.27 C 526.60 561.77 544.55 560.18 558.90 550.89 C 572.75 542.28 581.50 527.48 586.13 512.17 C 592.84 489.45 592.27 465.18 587.88 442.09 C 586.82 437.29 585.60 432.52 585.21 427.61 Z" />
<path fill="#cccdcf" opacity="1.00" d=" M 281.19 482.89 C 296.78 487.93 311.17 496.73 322.76 508.32 C 325.17 510.77 327.61 513.26 329.31 516.28 C 324.42 513.07 320.22 508.98 315.53 505.51 C 307.47 499.68 298.25 494.65 288.28 493.43 C 285.46 495.88 283.56 499.20 280.84 501.76 C 273.93 508.40 264.83 512.24 255.60 514.35 C 252.97 511.01 250.72 507.39 248.99 503.51 C 262.55 503.50 275.85 495.53 281.19 482.89 Z" />
<path fill="#cccdcf" opacity="1.00" d=" M 478.29 507.29 C 489.68 496.19 503.70 487.79 518.82 482.89 C 522.36 490.88 528.95 497.51 537.13 500.71 C 541.51 502.61 546.30 503.13 551.02 503.54 C 549.21 507.31 547.19 511.03 544.44 514.21 C 532.86 512.06 521.60 506.11 514.56 496.49 C 513.30 495.20 512.22 492.94 510.05 493.64 C 499.49 495.45 490.02 501.18 481.64 507.65 C 477.51 510.64 474.66 515.23 469.88 517.32 C 471.96 513.43 475.24 510.41 478.29 507.29 Z" />
</g>
<g id="#1a272fff">
<path id="SVG_LOGO_CONTOURE" fill="#1a272f" opacity="1.00" d=" M 238.94 201.98 C 247.79 196.92 257.50 192.32 267.93 192.50 C 276.59 192.50 285.14 196.59 290.46 203.46 C 305.21 221.89 321.41 239.41 340.50 253.44 C 341.27 254.00 342.08 254.50 342.94 254.93 C 346.33 253.22 349.40 250.86 353.06 249.69 C 358.45 247.74 364.37 248.05 369.91 249.19 C 379.39 251.18 388.60 254.27 397.79 257.32 C 401.16 258.65 404.45 256.28 407.68 255.51 C 417.92 252.40 428.22 248.44 439.05 248.28 C 445.70 248.14 451.50 251.67 457.02 254.91 C 474.06 243.52 488.39 228.45 501.71 212.97 C 507.09 206.98 511.32 199.49 518.77 195.78 C 527.41 191.20 537.91 191.81 546.86 195.18 C 559.73 199.94 570.92 208.12 582.03 216.00 C 599.33 228.48 616.26 241.64 635.02 251.92 C 645.81 257.86 657.73 261.16 669.10 265.74 C 696.98 276.67 724.15 289.58 749.73 305.19 C 748.61 335.45 735.20 364.61 714.46 386.46 C 710.13 391.13 705.05 395.12 701.36 400.37 C 695.86 408.19 691.73 416.84 687.23 425.25 C 684.04 431.61 680.17 437.60 677.12 444.03 C 668.07 457.39 657.85 470.10 645.40 480.46 C 636.70 487.75 627.18 494.03 617.17 499.35 C 615.48 518.03 610.01 536.70 599.14 552.16 C 590.16 564.58 578.11 574.94 563.99 581.07 C 545.93 589.13 524.85 591.12 505.95 584.83 C 494.29 581.35 483.56 575.34 474.00 567.88 C 472.35 585.89 469.52 604.17 461.83 620.69 C 457.23 630.68 450.35 640.05 440.66 645.58 C 428.36 652.66 413.94 654.91 399.93 655.25 C 384.11 654.84 367.47 652.00 354.48 642.34 C 343.07 633.34 336.74 619.60 332.64 605.99 C 328.91 593.60 327.29 580.73 325.88 567.91 C 313.52 577.82 298.74 584.72 283.12 587.52 C 265.23 590.51 246.54 586.85 230.57 578.45 C 212.93 569.01 198.86 553.22 191.29 534.73 C 186.44 523.50 184.08 511.40 182.80 499.29 C 162.48 488.70 144.42 473.63 130.88 455.10 C 128.24 451.43 125.30 447.98 122.94 444.12 C 119.86 437.68 115.98 431.66 112.79 425.27 C 108.29 416.87 104.15 408.24 98.67 400.42 C 94.83 394.95 89.48 390.83 85.02 385.92 C 69.33 369.22 58.05 348.36 52.91 326.01 C 51.32 319.19 50.90 312.18 50.25 305.23 C 81.29 286.25 114.64 271.25 148.87 259.06 C 164.27 253.67 177.94 244.52 191.26 235.29 C 207.24 224.32 222.27 211.93 238.94 201.98 M 247.46 219.25 C 234.54 227.09 222.72 236.55 210.39 245.25 C 192.12 258.36 173.27 271.46 151.67 278.43 C 125.03 288.18 98.91 299.56 74.21 313.53 C 72.81 313.90 71.64 314.80 70.41 315.53 C 74.21 338.33 85.61 359.66 102.03 375.88 C 109.04 373.91 116.06 372.01 123.11 370.21 C 119.15 375.09 114.50 379.33 110.36 384.05 C 122.20 398.67 128.90 416.48 138.73 432.37 C 142.11 432.67 145.68 433.17 148.92 431.84 C 154.22 429.75 158.92 426.45 163.94 423.81 C 158.23 430.55 152.49 437.28 146.70 443.95 C 147.30 444.77 147.91 445.60 148.52 446.44 L 148.90 446.60 C 158.77 461.61 173.24 473.48 189.49 481.05 C 189.70 475.56 191.09 470.19 191.38 464.73 L 191.01 464.25 L 191.68 463.97 C 196.73 441.34 205.53 419.22 219.68 400.67 C 234.22 381.28 254.71 366.42 277.79 358.92 C 259.34 390.66 245.45 426.03 243.40 463.00 C 242.96 472.96 243.79 483.01 246.23 492.70 C 250.46 493.45 254.92 493.86 259.05 492.40 C 265.95 490.31 271.14 484.54 274.15 478.19 C 275.42 472.51 275.17 465.94 279.36 461.35 C 285.80 454.59 292.40 447.99 298.79 441.18 C 294.35 433.94 289.93 426.67 286.10 419.08 C 287.02 412.15 290.08 405.71 291.54 398.92 C 290.19 390.58 287.37 382.49 286.32 374.08 C 286.04 372.73 286.81 371.51 287.39 370.38 C 290.70 364.84 295.06 360.03 298.52 354.60 C 299.49 353.52 298.19 352.31 297.52 351.52 C 289.70 343.55 279.45 338.31 268.82 335.17 C 263.50 333.74 258.09 332.10 252.51 332.37 C 249.34 332.13 246.18 331.69 243.03 331.33 C 249.08 329.98 255.31 329.61 261.50 329.97 C 267.38 330.50 273.15 331.73 278.91 333.01 C 272.60 325.07 265.87 317.45 258.72 310.26 C 254.07 305.82 249.23 301.36 243.41 298.51 C 239.94 296.74 235.95 297.68 232.38 298.54 C 220.45 301.88 208.99 306.67 197.65 311.60 C 193.54 313.53 189.18 315.01 185.44 317.63 L 184.92 317.67 C 183.00 318.54 181.05 319.36 179.03 319.96 C 193.06 312.08 207.38 304.72 221.95 297.91 C 227.34 295.53 232.77 293.12 238.49 291.66 C 243.45 290.39 247.94 293.67 252.08 295.92 C 271.37 307.73 288.70 322.40 306.02 336.87 C 306.51 337.17 307.47 337.76 307.96 338.06 C 311.08 334.13 313.61 329.76 316.92 325.98 C 314.17 334.05 311.16 342.04 308.37 350.09 C 310.55 349.11 312.69 348.02 314.93 347.15 C 312.13 351.09 308.61 354.50 306.10 358.64 C 302.62 361.38 300.33 365.22 297.64 368.66 C 295.88 371.13 293.42 373.77 294.23 377.09 C 296.23 389.32 300.46 401.07 302.85 413.21 C 302.25 412.10 301.68 410.98 301.11 409.86 C 300.08 408.87 299.05 407.89 298.03 406.90 C 296.83 410.43 294.92 413.64 293.52 417.08 C 293.86 418.60 294.94 419.80 295.76 421.09 C 299.41 426.18 302.44 431.68 305.29 437.25 C 307.68 435.43 310.03 433.58 312.38 431.72 C 314.05 433.39 316.40 433.39 318.59 433.46 L 318.48 434.75 C 312.99 440.04 307.45 445.29 301.88 450.51 C 303.15 451.17 304.42 451.84 305.69 452.52 C 308.67 455.25 311.53 458.21 313.26 461.92 C 308.63 458.19 303.33 455.35 297.48 454.13 C 296.10 455.27 294.74 456.43 293.37 457.57 C 297.50 459.57 300.83 462.86 303.16 466.79 C 300.27 465.04 297.59 462.81 294.31 461.83 C 292.85 461.48 291.38 461.14 289.92 460.79 C 285.03 464.00 282.22 469.43 281.87 475.22 C 281.96 477.17 284.35 476.69 285.64 477.31 C 285.99 477.27 286.70 477.19 287.05 477.15 C 292.50 479.73 298.34 481.41 303.60 484.40 C 317.60 491.59 329.15 502.75 338.12 515.56 C 337.72 495.72 341.28 476.01 346.82 457.03 C 347.81 453.80 348.87 450.58 349.44 447.25 C 350.47 444.51 351.44 441.75 352.54 439.05 C 352.40 443.21 351.09 447.27 351.19 451.44 C 347.71 476.90 345.17 502.54 344.39 528.23 L 344.22 528.62 C 343.96 532.19 343.96 535.77 344.05 539.35 C 344.15 550.20 344.49 561.08 345.62 571.89 C 347.65 588.54 350.47 605.89 359.86 620.17 C 364.12 626.92 371.35 631.17 378.97 633.11 C 394.88 637.65 412.40 637.06 427.74 630.72 C 437.93 626.44 443.47 616.03 447.15 606.20 C 454.56 584.80 455.73 561.89 455.96 539.44 C 456.05 535.80 456.04 532.17 455.77 528.54 L 455.59 528.16 C 454.86 502.47 452.28 476.84 448.80 451.39 C 448.90 447.26 447.57 443.24 447.52 439.11 C 448.57 441.83 449.53 444.59 450.58 447.32 C 450.90 448.95 451.26 450.61 451.72 452.22 C 458.08 472.66 462.31 493.97 461.85 515.45 C 467.94 507.48 474.30 499.55 482.39 493.50 C 491.35 486.20 501.93 481.33 512.72 477.39 L 513.68 477.76 L 513.79 476.83 C 515.18 476.78 516.57 476.71 517.96 476.63 C 518.30 470.34 515.36 464.26 510.09 460.79 C 508.63 461.13 507.18 461.47 505.74 461.82 C 502.45 462.75 499.81 465.00 496.97 466.78 C 499.14 462.78 502.54 459.56 506.63 457.57 C 505.26 456.43 503.89 455.28 502.53 454.14 C 496.66 455.33 491.35 458.20 486.73 461.94 C 488.47 458.23 491.30 455.24 494.31 452.53 C 495.58 451.83 496.85 451.15 498.13 450.48 C 489.25 442.15 480.25 433.91 472.19 424.77 C 461.39 410.77 457.52 392.84 455.99 375.57 C 456.14 374.66 456.31 373.75 456.50 372.86 C 457.84 378.66 459.56 384.40 461.91 389.88 C 463.46 393.75 468.00 395.09 471.69 395.94 C 471.72 396.19 471.78 396.69 471.81 396.94 C 469.65 398.48 467.09 399.98 466.05 402.56 C 466.55 402.89 467.53 403.56 468.02 403.90 C 468.16 403.41 468.44 402.43 468.58 401.93 C 468.51 402.48 468.37 403.57 468.30 404.12 C 472.14 405.01 476.75 405.10 479.63 401.95 C 483.60 397.23 483.50 390.55 483.43 384.72 C 479.43 388.24 476.21 392.68 471.63 395.52 L 471.64 395.60 C 470.95 394.61 470.19 393.69 469.47 392.75 C 476.13 387.43 480.16 379.79 485.23 373.10 C 486.26 371.82 487.23 370.39 488.71 369.58 C 493.18 370.37 497.04 372.89 501.07 374.81 C 497.46 374.45 493.85 374.11 490.22 374.14 C 491.62 383.79 492.46 394.47 487.16 403.16 C 484.91 407.18 480.87 409.58 476.91 411.66 C 480.72 411.40 484.95 411.98 488.27 409.68 C 488.04 410.11 487.59 410.96 487.36 411.39 C 483.54 414.26 478.88 416.86 473.92 415.87 C 474.05 416.49 474.32 417.74 474.45 418.36 C 477.17 421.21 480.23 423.82 482.44 427.11 C 482.29 430.26 483.34 433.30 486.55 434.42 C 486.80 433.77 487.30 432.47 487.55 431.82 C 489.94 433.57 492.29 435.37 494.62 437.22 C 495.62 435.47 496.62 433.72 497.63 431.97 C 498.99 433.21 500.76 433.49 502.53 433.57 C 503.11 432.87 503.69 432.17 504.28 431.48 C 504.27 427.37 503.68 423.11 505.19 419.17 C 506.89 414.96 502.60 411.41 503.05 407.20 C 505.67 407.24 508.30 407.30 510.93 407.43 C 512.00 411.27 513.74 415.05 513.69 419.11 C 510.26 426.84 505.60 433.98 501.20 441.19 C 505.82 446.07 510.58 450.82 515.18 455.72 C 518.24 459.04 522.18 461.91 523.53 466.43 C 525.02 470.20 524.81 474.35 525.86 478.22 C 528.19 483.11 531.77 487.62 536.47 490.42 C 541.65 493.58 547.98 493.99 553.80 492.68 C 556.19 483.02 557.03 473.02 556.61 463.09 C 556.04 452.77 554.68 442.50 552.26 432.45 C 554.28 431.61 555.06 433.90 555.74 435.34 C 557.15 434.95 558.59 434.61 560.03 434.27 C 558.75 433.93 556.34 434.78 555.95 433.00 C 555.92 431.58 557.54 430.75 558.62 431.72 C 557.89 430.62 557.17 429.52 556.59 428.35 C 556.20 429.37 555.88 431.77 554.26 430.81 C 552.88 428.25 555.62 425.69 557.97 425.09 C 556.77 425.36 555.57 425.61 554.37 425.83 C 553.05 427.69 553.13 430.08 552.18 432.11 C 549.81 423.24 548.09 414.03 544.08 405.73 C 544.22 405.41 544.49 404.78 544.63 404.47 L 543.28 404.59 L 543.28 403.08 C 537.77 387.71 530.45 373.01 522.21 358.92 C 539.81 364.74 556.15 374.60 569.13 387.88 C 589.80 408.35 602.11 435.87 608.32 463.98 L 609.00 464.25 L 608.64 464.76 C 608.88 470.21 610.31 475.57 610.51 481.05 C 626.59 473.54 640.99 461.85 650.80 447.00 L 651.04 446.92 C 651.79 445.92 652.54 444.93 653.32 443.95 C 647.49 437.29 641.79 430.53 636.04 423.82 C 641.08 426.44 645.78 429.75 651.10 431.85 C 654.33 433.20 657.91 432.68 661.30 432.36 C 671.08 416.45 677.82 398.68 689.64 384.05 C 685.51 379.33 680.83 375.10 676.91 370.20 C 683.93 372.03 690.96 373.89 697.95 375.88 C 714.38 359.69 725.76 338.36 729.59 315.58 C 728.35 314.83 727.20 313.88 725.78 313.53 C 700.91 299.46 674.60 288.01 647.76 278.23 C 628.48 271.95 611.37 260.69 594.95 249.06 C 581.15 239.47 568.03 228.90 553.76 219.99 C 547.91 216.46 541.77 213.04 534.97 211.85 C 531.42 211.29 527.37 212.06 525.03 214.99 C 515.63 226.52 505.94 237.87 495.22 248.22 C 484.25 258.76 472.61 268.97 459.07 276.08 C 460.36 278.51 461.71 280.91 463.07 283.32 C 463.73 284.44 464.39 285.58 465.06 286.71 C 464.71 286.55 464.02 286.23 463.68 286.07 C 457.40 279.67 450.54 273.69 442.93 268.93 C 439.62 266.60 435.46 267.65 431.83 268.42 C 422.42 270.69 413.31 273.99 404.09 276.89 C 402.12 277.44 400.04 278.31 398.02 277.49 C 388.66 274.73 379.50 271.30 370.04 268.87 C 365.81 267.96 360.94 266.26 357.02 268.96 C 350.14 273.20 343.99 278.58 338.21 284.20 L 338.06 284.25 L 337.11 285.07 C 337.08 285.09 337.04 285.13 337.01 285.15 C 336.52 285.58 335.52 286.45 335.02 286.89 C 335.61 285.68 336.25 284.49 336.91 283.32 C 338.30 280.93 339.63 278.52 340.92 276.09 C 338.33 274.81 335.81 273.39 333.42 271.76 C 310.66 256.60 292.14 236.09 274.99 215.01 C 272.64 212.06 268.56 211.28 265.00 211.85 C 258.68 212.95 252.94 216.03 247.46 219.25 M 224.33 410.10 C 220.89 415.78 217.01 421.34 214.78 427.64 C 213.58 429.58 212.56 431.63 211.73 433.76 C 202.81 455.53 199.83 479.63 202.58 502.96 C 204.60 519.85 211.17 536.50 222.98 548.97 C 237.26 563.75 258.66 571.72 279.12 568.73 C 290.39 566.79 301.42 562.35 310.45 555.26 C 321.29 547.66 329.96 536.90 335.60 524.93 C 333.60 521.98 331.85 518.81 329.31 516.28 C 327.61 513.26 325.17 510.77 322.76 508.32 C 311.17 496.73 296.78 487.93 281.19 482.89 C 275.85 495.53 262.55 503.50 248.99 503.51 C 250.72 507.39 252.97 511.01 255.60 514.35 C 259.28 518.87 263.46 522.93 267.53 527.09 C 255.58 522.63 245.41 513.59 240.19 501.89 C 232.20 484.29 232.83 464.23 235.82 445.54 C 240.28 420.01 249.31 395.31 262.04 372.75 C 246.93 382.22 234.36 395.43 224.33 410.10 M 537.96 372.67 C 550.71 395.46 559.89 420.34 564.27 446.10 C 567.17 464.61 567.72 484.46 559.82 501.88 C 554.63 513.52 544.53 522.56 532.64 527.00 C 536.58 522.74 540.88 518.81 544.44 514.21 C 547.19 511.03 549.21 507.31 551.02 503.54 C 546.30 503.13 541.51 502.61 537.13 500.71 C 528.95 497.51 522.36 490.88 518.82 482.89 C 503.70 487.79 489.68 496.19 478.29 507.29 C 475.24 510.41 471.96 513.43 469.88 517.32 L 469.44 517.56 C 467.68 519.96 466.02 522.42 464.40 524.92 C 469.99 536.98 478.81 547.53 489.52 555.38 C 503.03 565.33 520.26 571.15 537.12 568.86 C 556.44 566.56 574.60 555.32 584.95 538.79 C 596.46 521.24 599.21 499.53 598.24 478.97 C 597.09 461.30 593.53 443.37 585.21 427.61 C 583.09 421.58 579.39 416.28 576.15 410.83 C 566.08 395.80 553.24 382.44 537.96 372.67 Z" />
<path fill="#1a272f" opacity="1.00" d=" M 364.40 286.53 C 366.17 285.53 368.16 286.47 369.95 286.94 C 378.79 289.94 387.74 292.63 396.55 295.72 C 398.15 296.19 399.85 297.04 401.53 296.33 C 411.29 293.02 421.12 289.89 430.91 286.68 C 432.41 286.29 434.07 285.66 435.54 286.50 C 439.41 288.24 442.98 290.57 446.75 292.51 C 442.53 291.89 438.35 290.85 434.08 290.73 C 430.96 291.15 428.06 292.45 425.10 293.45 C 416.73 296.40 408.32 299.25 400.01 302.39 C 390.42 298.79 380.71 295.53 371.06 292.08 C 365.44 289.66 359.06 291.18 353.51 292.99 C 353.49 292.82 353.44 292.48 353.42 292.31 C 357.14 290.51 360.63 288.25 364.40 286.53 Z" />
<path fill="#1a272f" opacity="1.00" d=" M 546.02 297.06 C 550.10 294.72 554.21 291.75 559.04 291.36 C 565.02 291.95 570.48 294.78 575.99 296.99 C 591.32 304.01 606.33 311.71 621.00 320.03 C 618.90 319.26 616.84 318.44 614.77 317.63 C 602.15 310.89 588.74 305.68 575.28 300.89 C 568.49 298.80 560.44 295.19 553.94 299.94 C 540.89 308.61 531.03 321.11 521.07 333.00 C 526.85 331.75 532.65 330.46 538.56 330.01 C 544.75 329.51 550.96 330.09 557.05 331.26 C 553.92 331.70 550.79 332.10 547.65 332.36 C 540.91 332.30 534.36 334.12 528.00 336.17 C 517.72 339.57 508.16 345.29 500.74 353.23 C 503.88 358.64 508.01 363.37 511.48 368.55 C 512.71 370.49 514.13 372.66 513.56 375.08 C 512.50 382.42 510.27 389.52 508.77 396.77 C 507.98 400.14 509.74 403.35 510.62 406.51 C 507.58 406.69 504.37 406.34 501.53 407.63 C 499.75 408.89 498.49 410.72 497.02 412.31 C 499.64 403.31 501.85 394.21 504.15 385.13 C 504.90 380.74 507.37 375.60 504.40 371.55 C 501.28 366.92 497.84 362.51 494.03 358.45 C 491.05 354.61 487.93 350.89 484.96 347.06 C 487.20 348.04 489.40 349.11 491.61 350.16 C 488.82 342.05 485.86 333.99 483.00 325.90 C 486.30 329.85 489.18 334.13 492.12 338.36 C 509.55 323.92 526.82 309.14 546.02 297.06 Z" />
<path fill="#1a272f" opacity="1.00" d=" M 348.54 356.05 C 354.26 344.25 352.54 330.72 352.37 318.05 C 352.69 318.90 353.33 320.61 353.65 321.46 C 357.20 333.00 358.75 347.16 350.24 356.98 C 349.03 358.10 347.67 359.05 346.36 360.04 C 347.08 358.70 347.81 357.38 348.54 356.05 Z" />
<path fill="#1a272f" opacity="1.00" d=" M 447.51 318.24 C 447.63 331.16 445.57 345.11 451.95 356.99 C 452.51 358.00 453.12 358.98 453.71 359.98 C 451.49 358.50 449.47 356.73 447.82 354.63 C 441.58 344.68 443.09 332.24 446.33 321.53 C 446.63 320.71 447.21 319.06 447.51 318.24 Z" />
<path fill="#1a272f" opacity="1.00" d=" M 298.83 374.80 C 302.90 372.93 306.76 370.42 311.23 369.61 C 319.13 376.44 322.79 387.35 331.49 393.48 C 333.46 395.21 335.72 393.53 336.75 391.67 C 340.32 385.87 341.86 379.12 343.66 372.63 C 343.77 373.58 343.89 374.53 344.00 375.49 C 342.84 389.33 340.01 403.27 333.65 415.72 C 331.44 419.72 329.10 423.76 325.77 426.95 C 325.20 427.08 324.08 427.32 323.52 427.44 C 322.09 427.19 320.59 427.56 319.22 426.84 C 319.10 426.56 318.85 426.00 318.72 425.72 C 321.47 422.66 324.47 419.84 327.08 416.66 C 321.53 415.93 315.30 414.73 311.69 410.02 C 315.30 411.13 319.07 411.61 322.85 411.66 C 318.88 409.32 314.67 406.80 312.47 402.58 C 307.57 393.94 308.43 383.56 309.77 374.11 C 306.12 374.18 302.47 374.46 298.83 374.80 M 316.72 385.01 C 316.50 390.69 316.60 397.00 320.16 401.75 C 323.73 405.77 329.74 405.13 334.08 402.80 C 325.99 399.65 321.46 391.78 316.72 385.01 Z" />
<path fill="#1a272f" opacity="1.00" d=" M 498.08 431.48 C 499.46 428.24 501.19 425.14 503.63 422.57 C 503.68 425.79 503.61 429.02 503.51 432.24 C 502.40 432.53 501.29 432.83 500.19 433.13 C 499.66 432.72 498.61 431.89 498.08 431.48 Z" />
<path fill="#1a272f" opacity="1.00" d=" M 312.41 431.32 C 313.85 430.12 315.33 428.96 316.88 427.92 C 319.18 428.43 321.53 428.23 323.86 428.37 L 324.09 428.63 C 322.65 430.35 321.14 432.00 319.59 433.61 C 317.18 432.92 314.79 432.11 312.41 431.32 Z" />
<path fill="#1a272f" opacity="1.00" d=" M 483.90 429.47 C 485.33 428.71 487.39 430.81 486.56 432.23 C 485.10 433.29 482.89 430.87 483.90 429.47 Z" />
<path fill="#1a272f" opacity="1.00" d=" M 374.63 472.94 C 381.26 467.14 390.57 466.10 399.03 465.73 C 408.21 465.79 418.23 466.91 425.58 472.96 C 417.06 471.94 408.56 470.42 399.94 470.61 C 391.43 470.44 383.04 471.91 374.63 472.94 Z" />
<path fill="#1a272f" opacity="1.00" d=" M 363.89 511.58 C 373.68 506.38 384.97 504.91 395.91 504.42 C 409.52 504.14 423.79 505.23 436.09 511.56 C 412.07 509.66 387.91 509.62 363.89 511.58 Z" />
<path fill="#1a272f" opacity="1.00" d=" M 365.86 548.56 C 376.68 543.12 389.12 542.51 401.01 542.47 C 412.23 542.64 423.94 543.39 434.12 548.55 C 411.38 548.00 388.61 547.97 365.86 548.56 Z" />
<path fill="#1a272f" opacity="1.00" d=" M 374.65 584.31 C 380.71 583.41 386.86 584.03 392.97 583.97 C 404.00 584.40 415.07 583.29 426.09 584.21 C 417.60 586.68 408.82 588.30 399.99 588.69 C 391.42 588.24 382.83 586.90 374.65 584.31 Z" />
<path fill="#1a272f" opacity="1.00" d=" M 380.71 617.46 C 388.10 616.48 395.57 617.34 403.00 617.08 C 408.45 617.21 413.90 616.61 419.33 617.29 C 413.34 618.97 407.14 619.92 400.93 620.28 C 394.10 620.28 387.35 618.95 380.71 617.46 Z" />
</g>
<g id="#919aa0ff">
<path fill="#919aa0" opacity="1.00" d=" M 232.38 298.54 C 235.95 297.68 239.94 296.74 243.41 298.51 C 249.23 301.36 254.07 305.82 258.72 310.26 C 265.87 317.45 272.60 325.07 278.91 333.01 C 273.15 331.73 267.38 330.50 261.50 329.97 C 256.83 323.90 251.46 318.41 245.82 313.25 C 242.49 310.42 238.67 307.14 233.97 307.66 C 219.81 308.96 206.06 312.83 192.43 316.72 C 190.15 317.33 187.78 317.50 185.44 317.63 C 189.18 315.01 193.54 313.53 197.65 311.60 C 208.99 306.67 220.45 301.88 232.38 298.54 Z" />
<path fill="#919aa0" opacity="1.00" d=" M 553.94 299.94 C 560.44 295.19 568.49 298.80 575.28 300.89 C 588.74 305.68 602.15 310.89 614.77 317.63 C 612.33 317.42 609.87 317.29 607.49 316.67 C 593.85 312.83 580.09 308.92 565.93 307.66 C 561.02 307.26 557.09 310.72 553.67 313.73 C 548.27 318.80 542.94 324.01 538.56 330.01 C 532.65 330.46 526.85 331.75 521.07 333.00 C 531.03 321.11 540.89 308.61 553.94 299.94 Z" />
<path fill="#919aa0" opacity="1.00" d=" M 351.36 315.71 C 351.69 316.47 352.28 317.18 352.37 318.05 C 352.54 330.72 354.26 344.25 348.54 356.05 L 347.18 356.63 C 348.84 343.02 351.11 329.43 351.36 315.71 Z" />
<path fill="#919aa0" opacity="1.00" d=" M 447.49 317.89 C 447.91 317.21 448.34 316.53 448.77 315.86 C 448.49 325.89 450.45 335.79 451.44 345.74 C 451.60 349.45 453.60 353.41 451.95 356.99 C 445.57 345.11 447.63 331.16 447.51 318.24 L 447.49 317.89 Z" />
<path fill="#919aa0" opacity="1.00" d=" M 252.51 332.37 C 258.09 332.10 263.50 333.74 268.82 335.17 C 279.45 338.31 289.70 343.55 297.52 351.52 C 298.19 352.31 299.49 353.52 298.52 354.60 C 295.06 360.03 290.70 364.84 287.39 370.38 C 286.81 371.51 286.04 372.73 286.32 374.08 C 287.37 382.49 290.19 390.58 291.54 398.92 C 290.08 405.71 287.02 412.15 286.10 419.08 C 289.93 426.67 294.35 433.94 298.79 441.18 C 292.40 447.99 285.80 454.59 279.36 461.35 C 275.17 465.94 275.42 472.51 274.15 478.19 C 271.14 484.54 265.95 490.31 259.05 492.40 C 254.92 493.86 250.46 493.45 246.23 492.70 C 243.79 483.01 242.96 472.96 243.40 463.00 C 250.22 460.47 257.43 458.00 262.68 452.72 C 267.77 447.86 269.57 440.73 269.93 433.92 C 272.97 432.56 276.62 431.59 278.30 428.41 C 281.71 423.22 280.21 416.77 280.44 410.95 C 280.17 404.95 281.76 398.41 278.45 392.97 C 277.94 387.66 278.20 382.29 277.70 376.97 C 277.07 370.99 280.71 365.41 279.54 359.44 C 278.59 352.72 274.56 346.87 269.67 342.34 C 264.75 337.75 258.05 336.01 252.51 332.37 Z" />
<path fill="#919aa0" opacity="1.00" d=" M 528.00 336.17 C 534.36 334.12 540.91 332.30 547.65 332.36 C 542.54 335.44 536.70 337.25 531.99 341.00 C 525.75 345.82 520.93 352.97 520.30 360.98 C 519.79 365.77 522.30 370.19 522.29 374.95 C 522.26 380.99 521.37 387.02 521.88 393.07 C 522.22 399.42 523.87 405.62 526.27 411.50 C 528.17 409.42 529.98 407.14 532.44 405.70 C 535.02 404.24 538.09 404.80 540.92 404.78 C 541.00 404.12 541.15 402.82 541.22 402.16 C 541.57 402.99 541.94 403.83 542.34 404.66 C 542.57 404.64 543.04 404.61 543.28 404.59 L 544.63 404.47 C 544.49 404.78 544.22 405.41 544.08 405.73 C 539.81 406.07 535.15 404.34 531.38 407.15 C 526.80 409.33 526.46 414.91 525.75 419.30 C 525.02 425.08 530.56 429.26 530.35 434.96 C 530.48 440.03 531.58 445.21 534.57 449.40 C 539.63 456.90 548.53 460.02 556.61 463.09 C 557.03 473.02 556.19 483.02 553.80 492.68 C 547.98 493.99 541.65 493.58 536.47 490.42 C 531.77 487.62 528.19 483.11 525.86 478.22 C 524.81 474.35 525.02 470.20 523.53 466.43 C 522.18 461.91 518.24 459.04 515.18 455.72 C 510.58 450.82 505.82 446.07 501.20 441.19 C 505.60 433.98 510.26 426.84 513.69 419.11 C 513.74 415.05 512.00 411.27 510.93 407.43 C 508.30 407.30 505.67 407.24 503.05 407.20 C 502.60 411.41 506.89 414.96 505.19 419.17 C 503.68 423.11 504.27 427.37 504.28 431.48 C 503.69 432.17 503.11 432.87 502.53 433.57 C 500.76 433.49 498.99 433.21 497.63 431.97 C 496.62 433.72 495.62 435.47 494.62 437.22 C 492.29 435.37 489.94 433.57 487.55 431.82 C 487.30 432.47 486.80 433.77 486.55 434.42 C 483.34 433.30 482.29 430.26 482.44 427.11 C 480.23 423.82 477.17 421.21 474.45 418.36 C 474.32 417.74 474.05 416.49 473.92 415.87 C 478.88 416.86 483.54 414.26 487.36 411.39 C 487.59 410.96 488.04 410.11 488.27 409.68 L 488.85 408.70 C 487.92 408.65 486.06 408.56 485.13 408.51 C 493.33 402.25 498.14 392.68 500.94 382.96 C 501.79 379.38 503.01 375.36 501.10 371.91 C 498.81 367.38 495.73 363.26 494.03 358.45 C 497.84 362.51 501.28 366.92 504.40 371.55 C 507.37 375.60 504.90 380.74 504.15 385.13 C 501.85 394.21 499.64 403.31 497.02 412.31 C 498.49 410.72 499.75 408.89 501.53 407.63 C 504.37 406.34 507.58 406.69 510.62 406.51 C 509.74 403.35 507.98 400.14 508.77 396.77 C 510.27 389.52 512.50 382.42 513.56 375.08 C 514.13 372.66 512.71 370.49 511.48 368.55 C 508.01 363.37 503.88 358.64 500.74 353.23 C 508.16 345.29 517.72 339.57 528.00 336.17 M 498.08 431.48 C 498.61 431.89 499.66 432.72 500.19 433.13 C 501.29 432.83 502.40 432.53 503.51 432.24 C 503.61 429.02 503.68 425.79 503.63 422.57 C 501.19 425.14 499.46 428.24 498.08 431.48 M 483.90 429.47 C 482.89 430.87 485.10 433.29 486.56 432.23 C 487.39 430.81 485.33 428.71 483.90 429.47 Z" />
<path fill="#919aa0" opacity="1.00" d=" M 297.64 368.66 C 300.33 365.22 302.62 361.38 306.10 358.64 C 304.06 363.28 301.11 367.43 298.84 371.95 C 296.89 375.41 298.21 379.44 299.08 383.01 C 301.76 392.32 306.33 401.44 313.79 407.84 C 312.76 408.19 311.73 408.56 310.70 408.93 C 310.95 409.20 311.44 409.75 311.69 410.02 C 315.30 414.73 321.53 415.93 327.08 416.66 C 324.47 419.84 321.47 422.66 318.72 425.72 C 318.85 426.00 319.10 426.56 319.22 426.84 C 320.59 427.56 322.09 427.19 323.52 427.44 C 324.08 427.32 325.20 427.08 325.77 426.95 C 325.19 427.49 324.63 428.05 324.09 428.63 L 323.86 428.37 C 321.53 428.23 319.18 428.43 316.88 427.92 C 315.33 428.96 313.85 430.12 312.41 431.32 C 314.79 432.11 317.18 432.92 319.59 433.61 C 319.32 433.90 318.76 434.46 318.48 434.75 L 318.59 433.46 C 316.40 433.39 314.05 433.39 312.38 431.72 C 310.03 433.58 307.68 435.43 305.29 437.25 C 302.44 431.68 299.41 426.18 295.76 421.09 C 294.94 419.80 293.86 418.60 293.52 417.08 C 294.92 413.64 296.83 410.43 298.03 406.90 C 299.05 407.89 300.08 408.87 301.11 409.86 C 301.68 410.98 302.25 412.10 302.85 413.21 C 300.46 401.07 296.23 389.32 294.23 377.09 C 293.42 373.77 295.88 371.13 297.64 368.66 Z" />
<path fill="#919aa0" opacity="1.00" d=" M 278.40 395.71 C 278.81 396.73 280.38 397.25 279.90 398.56 C 279.33 406.33 280.08 414.12 279.65 421.89 C 279.77 427.29 275.07 432.39 269.70 432.80 C 269.72 427.56 269.38 422.11 271.40 417.16 C 272.43 414.54 273.69 411.81 272.75 408.97 C 273.55 405.24 273.38 401.45 272.86 397.70 C 274.34 401.63 273.40 405.88 273.51 409.96 C 275.46 409.64 275.60 407.61 275.82 406.12 C 276.32 402.59 276.24 398.74 278.40 395.71 Z" />
<path fill="#919aa0" opacity="1.00" d=" M 526.91 415.00 C 530.78 418.50 530.25 424.42 530.18 429.17 C 525.96 425.79 526.07 419.83 526.91 415.00 Z" />
<path fill="#919aa0" opacity="1.00" d=" M 148.90 446.60 C 151.78 447.77 154.54 449.21 157.21 450.80 C 167.68 457.03 179.28 461.12 191.01 464.25 L 191.38 464.73 C 191.09 470.19 189.70 475.56 189.49 481.05 C 173.24 473.48 158.77 461.61 148.90 446.60 Z" />
<path fill="#919aa0" opacity="1.00" d=" M 643.97 450.13 C 646.12 448.84 648.43 447.84 650.80 447.00 C 640.99 461.85 626.59 473.54 610.51 481.05 C 610.31 475.57 608.88 470.21 608.64 464.76 L 609.00 464.25 C 621.18 461.04 633.15 456.66 643.97 450.13 Z" />
<path fill="#919aa0" opacity="1.00" d=" M 343.12 459.19 C 344.85 455.03 346.40 450.67 349.44 447.25 C 348.87 450.58 347.81 453.80 346.82 457.03 C 341.28 476.01 337.72 495.72 338.12 515.56 C 329.15 502.75 317.60 491.59 303.60 484.40 C 298.34 481.41 292.50 479.73 287.05 477.15 C 292.29 476.44 297.38 478.32 302.38 479.63 C 313.29 482.74 322.76 489.23 331.50 496.27 C 334.17 483.57 338.38 471.25 343.12 459.19 Z" />
<path fill="#919aa0" opacity="1.00" d=" M 450.58 447.32 C 452.52 449.56 454.02 452.15 455.10 454.92 C 460.66 468.30 465.46 482.07 468.51 496.26 C 480.57 486.02 495.20 478.34 511.12 476.79 C 511.52 476.94 512.32 477.24 512.72 477.39 C 501.93 481.33 491.35 486.20 482.39 493.50 C 474.30 499.55 467.94 507.48 461.85 515.45 C 462.31 493.97 458.08 472.66 451.72 452.22 C 451.26 450.61 450.90 448.95 450.58 447.32 Z" />
<path fill="#919aa0" opacity="1.00" d=" M 344.05 539.35 C 344.59 536.37 345.46 533.47 346.39 530.60 C 348.38 545.60 350.37 561.27 358.61 574.34 C 361.23 578.59 365.42 581.50 369.84 583.63 C 367.25 583.79 364.65 583.98 362.07 584.19 C 364.21 588.47 366.24 592.93 369.56 596.46 C 376.33 603.80 386.17 607.94 396.09 608.42 C 405.71 609.05 415.84 607.53 423.93 601.96 C 430.64 597.88 435.04 591.11 437.93 583.97 C 435.32 583.86 432.72 583.77 430.11 583.72 C 434.54 581.54 438.73 578.61 441.34 574.33 C 449.66 561.31 451.64 545.63 453.61 530.63 C 454.57 533.51 455.44 536.43 455.96 539.44 C 455.73 561.89 454.56 584.80 447.15 606.20 C 443.47 616.03 437.93 626.44 427.74 630.72 C 412.40 637.06 394.88 637.65 378.97 633.11 C 371.35 631.17 364.12 626.92 359.86 620.17 C 350.47 605.89 347.65 588.54 345.62 571.89 C 344.49 561.08 344.15 550.20 344.05 539.35 M 380.71 617.46 C 387.35 618.95 394.10 620.28 400.93 620.28 C 407.14 619.92 413.34 618.97 419.33 617.29 C 413.90 616.61 408.45 617.21 403.00 617.08 C 395.57 617.34 388.10 616.48 380.71 617.46 Z" />
</g>
</svg>
