<?xml version="1.0" encoding="utf-8"?>
<!-- Generator: Adobe Illustrator 22.0.1, SVG Export Plug-In . SVG Version: 6.00 Build 0)  -->
<svg version="1.1" id="Layer_1" xmlns="http://www.w3.org/2000/svg" xmlns:xlink="http://www.w3.org/1999/xlink" x="0px" y="0px"
	 viewBox="0 0 800 800" enable-background="new 0 0 800 800" xml:space="preserve">
<path id="OUTLINE" fill="none" d="M669.1,265.7c-11.4-4.6-23.3-7.9-34.1-13.8c-18.8-10.3-35.7-23.4-53-35.9
	c-11.1-7.9-22.3-16.1-35.2-20.8c-9-3.4-19.5-4-28.1,0.6c-7.5,3.7-11.7,11.2-17.1,17.2c-13.3,15.5-27.7,30.6-44.7,41.9
	c-5.5-3.2-11.3-6.8-18-6.6c-10.8,0.2-21.1,4.1-31.4,7.2c-3.2,0.8-6.5,3.1-9.9,1.8c-9.2-3-18.4-6.1-27.9-8.1
	c-5.5-1.1-11.5-1.5-16.9,0.5c-3.7,1.2-6.7,3.5-10.1,5.2c-0.9-0.4-1.7-0.9-2.4-1.5c-19.1-14-35.3-31.5-50-50
	c-5.3-6.9-13.9-11-22.5-11c-10.4-0.2-20.1,4.4-29,9.5c-16.7,10-31.7,22.3-47.7,33.3c-13.3,9.2-27,18.4-42.4,23.8
	c-34.2,12.2-67.6,27.2-98.6,46.2c0.7,7,1.1,14,2.7,20.8c5.1,22.3,16.4,43.2,32.1,59.9c4.5,4.9,9.8,9,13.6,14.5
	c5.5,7.8,9.6,16.5,14.1,24.8c3.2,6.4,7.1,12.4,10.2,18.9c2.4,3.9,5.3,7.3,7.9,11c13.5,18.5,31.6,33.6,51.9,44.2
	c1.3,12.1,3.6,24.2,8.5,35.4c7.6,18.5,21.6,34.3,39.3,43.7c16,8.4,34.7,12.1,52.5,9.1c15.6-2.8,30.4-9.7,42.8-19.6
	c1.4,12.8,3,25.7,6.8,38.1c4.1,13.6,10.4,27.4,21.8,36.4c13,9.7,29.6,12.5,45.4,12.9c14-0.3,28.4-2.6,40.7-9.7
	c9.7-5.5,16.6-14.9,21.2-24.9c7.7-16.5,10.5-34.8,12.2-52.8c9.6,7.5,20.3,13.5,32,17c18.9,6.3,40,4.3,58-3.8
	c14.1-6.1,26.2-16.5,35.2-28.9c10.9-15.5,16.3-34.1,18-52.8c10-5.3,19.5-11.6,28.2-18.9c12.4-10.4,22.7-23.1,31.7-36.4
	c3-6.4,6.9-12.4,10.1-18.8c4.5-8.4,8.6-17.1,14.1-24.9c3.7-5.3,8.8-9.2,13.1-13.9c20.7-21.8,34.1-51,35.3-81.3
	C724.2,289.6,697,276.7,669.1,265.7z"/>
<g id="CONTOURE1">
	<path fill="#FF0000" stroke="#999999" stroke-width="25" d="M238.9,202c8.8-5.1,18.6-9.7,29-9.5c8.7,0,17.2,4.1,22.5,11
		c14.8,18.4,31,35.9,50,50c0.8,0.6,1.6,1.1,2.4,1.5c3.4-1.7,6.5-4.1,10.1-5.2c5.4-1.9,11.3-1.6,16.9-0.5c9.5,2,18.7,5.1,27.9,8.1
		c3.4,1.3,6.7-1,9.9-1.8c10.2-3.1,20.5-7.1,31.4-7.2c6.7-0.1,12.5,3.4,18,6.6c17-11.4,31.4-26.5,44.7-41.9c5.4-6,9.6-13.5,17.1-17.2
		c8.6-4.6,19.1-4,28.1-0.6c12.9,4.8,24.1,12.9,35.2,20.8c17.3,12.5,34.2,25.6,53,35.9c10.8,5.9,22.7,9.2,34.1,13.8
		c27.9,10.9,55.1,23.8,80.6,39.5c-1.1,30.3-14.5,59.4-35.3,81.3c-4.3,4.7-9.4,8.7-13.1,13.9c-5.5,7.8-9.6,16.5-14.1,24.9
		c-3.2,6.4-7.1,12.4-10.1,18.8c-9,13.4-19.3,26.1-31.7,36.4c-8.7,7.3-18.2,13.6-28.2,18.9c-1.7,18.7-7.2,37.4-18,52.8
		c-9,12.4-21,22.8-35.2,28.9c-18.1,8.1-39.1,10-58,3.8c-11.7-3.5-22.4-9.5-32-17c-1.6,18-4.5,36.3-12.2,52.8
		c-4.6,10-11.5,19.4-21.2,24.9c-12.3,7.1-26.7,9.3-40.7,9.7c-15.8-0.4-32.5-3.3-45.4-12.9c-11.4-9-17.7-22.7-21.8-36.4
		c-3.7-12.4-5.4-25.3-6.8-38.1c-12.4,9.9-27.1,16.8-42.8,19.6c-17.9,3-36.6-0.7-52.5-9.1c-17.6-9.4-31.7-25.2-39.3-43.7
		c-4.8-11.2-7.2-23.3-8.5-35.4c-20.3-10.6-38.4-25.7-51.9-44.2c-2.6-3.7-5.6-7.1-7.9-11c-3.1-6.4-7-12.5-10.2-18.9
		c-4.5-8.4-8.6-17-14.1-24.8c-3.8-5.5-9.2-9.6-13.7-14.5c-15.7-16.7-27-37.6-32.1-59.9c-1.6-6.8-2-13.8-2.7-20.8
		c31-19,64.4-34,98.6-46.2c15.4-5.4,29.1-14.5,42.4-23.8C207.2,224.3,222.3,211.9,238.9,202 M247.5,219.3
		c-12.9,7.8-24.7,17.3-37.1,26c-18.3,13.1-37.1,26.2-58.7,33.2c-26.6,9.8-52.8,21.1-77.5,35.1c-1.4,0.4-2.6,1.3-3.8,2
		c3.8,22.8,15.2,44.1,31.6,60.4c7-2,14-3.9,21.1-5.7c-4,4.9-8.6,9.1-12.8,13.8c11.8,14.6,18.5,32.4,28.4,48.3
		c3.4,0.3,6.9,0.8,10.2-0.5c5.3-2.1,10-5.4,15-8c-5.7,6.7-11.4,13.5-17.2,20.1c0.6,0.8,1.2,1.6,1.8,2.5l0.4,0.2
		c9.9,15,24.3,26.9,40.6,34.4c0.2-5.5,1.6-10.9,1.9-16.3l-0.4-0.5l0.7-0.3c5.1-22.6,13.9-44.8,28-63.3c14.5-19.4,35-34.3,58.1-41.8
		c-18.5,31.7-32.3,67.1-34.4,104.1c-0.4,10,0.4,20,2.8,29.7c4.2,0.8,8.7,1.2,12.8-0.3c6.9-2.1,12.1-7.9,15.1-14.2
		c1.3-5.7,1-12.3,5.2-16.8c6.4-6.8,13-13.4,19.4-20.2c-4.4-7.2-8.9-14.5-12.7-22.1c0.9-6.9,4-13.4,5.4-20.2
		c-1.4-8.3-4.2-16.4-5.2-24.8c-0.3-1.3,0.5-2.6,1.1-3.7c3.3-5.5,7.7-10.4,11.1-15.8c1-1.1-0.3-2.3-1-3.1c-7.8-8-18.1-13.2-28.7-16.3
		c-5.3-1.4-10.7-3.1-16.3-2.8c-3.2-0.2-6.3-0.7-9.5-1c6.1-1.3,12.3-1.7,18.5-1.4c5.9,0.5,11.6,1.8,17.4,3
		c-6.3-7.9-13-15.6-20.2-22.8c-4.6-4.4-9.5-8.9-15.3-11.8c-3.5-1.8-7.5-0.8-11,0c-11.9,3.3-23.4,8.1-34.7,13.1
		c-4.1,1.9-8.5,3.4-12.2,6l-0.5,0c-1.9,0.9-3.9,1.7-5.9,2.3c14-7.9,28.4-15.2,42.9-22c5.4-2.4,10.8-4.8,16.5-6.3
		c5-1.3,9.4,2,13.6,4.3c19.3,11.8,36.6,26.5,53.9,40.9c0.5,0.3,1.5,0.9,1.9,1.2c3.1-3.9,5.6-8.3,9-12.1c-2.8,8.1-5.8,16.1-8.6,24.1
		c2.2-1,4.3-2.1,6.6-2.9c-2.8,3.9-6.3,7.4-8.8,11.5c-3.5,2.7-5.8,6.6-8.5,10c-1.8,2.5-4.2,5.1-3.4,8.4c2,12.2,6.2,24,8.6,36.1
		c-0.6-1.1-1.2-2.2-1.7-3.4c-1-1-2.1-2-3.1-3c-1.2,3.5-3.1,6.7-4.5,10.2c0.3,1.5,1.4,2.7,2.2,4c3.6,5.1,6.7,10.6,9.5,16.2
		c2.4-1.8,4.7-3.7,7.1-5.5c1.7,1.7,4,1.7,6.2,1.7l-0.1,1.3c-5.5,5.3-11,10.5-16.6,15.8c1.3,0.7,2.5,1.3,3.8,2c3,2.7,5.8,5.7,7.6,9.4
		c-4.6-3.7-9.9-6.6-15.8-7.8c-1.4,1.1-2.7,2.3-4.1,3.4c4.1,2,7.5,5.3,9.8,9.2c-2.9-1.8-5.6-4-8.9-5c-1.5-0.3-2.9-0.7-4.4-1
		c-4.9,3.2-7.7,8.6-8.1,14.4c0.1,2,2.5,1.5,3.8,2.1c0.3,0,1.1-0.1,1.4-0.2c5.5,2.6,11.3,4.3,16.6,7.3c14,7.2,25.5,18.4,34.5,31.2
		c-0.4-19.8,3.2-39.5,8.7-58.5c1-3.2,2-6.5,2.6-9.8c1-2.7,2-5.5,3.1-8.2c-0.1,4.2-1.5,8.2-1.4,12.4c-3.5,25.5-6,51.1-6.8,76.8
		l-0.2,0.4c-0.3,3.6-0.3,7.2-0.2,10.7c0.1,10.9,0.4,21.7,1.6,32.5c2,16.6,4.9,34,14.2,48.3c4.3,6.8,11.5,11,19.1,12.9
		c15.9,4.5,33.4,4,48.8-2.4c10.2-4.3,15.7-14.7,19.4-24.5c7.4-21.4,8.6-44.3,8.8-66.8c0.1-3.6,0.1-7.3-0.2-10.9l-0.2-0.4
		c-0.7-25.7-3.3-51.3-6.8-76.8c0.1-4.1-1.2-8.2-1.3-12.3c1.1,2.7,2,5.5,3.1,8.2c0.3,1.6,0.7,3.3,1.1,4.9
		c6.4,20.4,10.6,41.8,10.1,63.2c6.1-8,12.4-15.9,20.5-22c9-7.3,19.5-12.2,30.3-16.1l1,0.4l0.1-0.9c1.4,0,2.8-0.1,4.2-0.2
		c0.3-6.3-2.6-12.4-7.9-15.8c-1.5,0.3-2.9,0.7-4.4,1c-3.3,0.9-5.9,3.2-8.8,5c2.2-4,5.6-7.2,9.7-9.2c-1.4-1.1-2.7-2.3-4.1-3.4
		c-5.9,1.2-11.2,4.1-15.8,7.8c1.7-3.7,4.6-6.7,7.6-9.4c1.3-0.7,2.5-1.4,3.8-2c-8.9-8.3-17.9-16.6-25.9-25.7
		c-10.8-14-14.7-31.9-16.2-49.2c0.2-0.9,0.3-1.8,0.5-2.7c1.3,5.8,3.1,11.5,5.4,17c1.5,3.9,6.1,5.2,9.8,6.1c0,0.3,0.1,0.8,0.1,1
		c-2.2,1.5-4.7,3-5.8,5.6c0.5,0.3,1.5,1,2,1.3c0.1-0.5,0.4-1.5,0.6-2c-0.1,0.6-0.2,1.6-0.3,2.2c3.8,0.9,8.5,1,11.3-2.2
		c4-4.7,3.9-11.4,3.8-17.2c-4,3.5-7.2,8-11.8,10.8l0,0.1c-0.7-1-1.5-1.9-2.2-2.9c6.7-5.3,10.7-13,15.8-19.6c1-1.3,2-2.7,3.5-3.5
		c4.5,0.8,8.3,3.3,12.4,5.2c-3.6-0.4-7.2-0.7-10.9-0.7c1.4,9.6,2.2,20.3-3.1,29c-2.3,4-6.3,6.4-10.3,8.5c3.8-0.3,8,0.3,11.4-2
		c-0.2,0.4-0.7,1.3-0.9,1.7c-3.8,2.9-8.5,5.5-13.4,4.5c0.1,0.6,0.4,1.9,0.5,2.5c2.7,2.9,5.8,5.5,8,8.8c-0.1,3.2,0.9,6.2,4.1,7.3
		c0.3-0.7,0.8-2,1-2.6c2.4,1.8,4.7,3.5,7.1,5.4c1-1.8,2-3.5,3-5.3c1.4,1.2,3.1,1.5,4.9,1.6c0.6-0.7,1.2-1.4,1.8-2.1
		c0-4.1-0.6-8.4,0.9-12.3c1.7-4.2-2.6-7.8-2.1-12c2.6,0,5.3,0.1,7.9,0.2c1.1,3.8,2.8,7.6,2.8,11.7c-3.4,7.7-8.1,14.9-12.5,22.1
		c4.6,4.9,9.4,9.6,14,14.5c3.1,3.3,7,6.2,8.4,10.7c1.5,3.8,1.3,7.9,2.3,11.8c2.3,4.9,5.9,9.4,10.6,12.2c5.2,3.2,11.5,3.6,17.3,2.3
		c2.4-9.7,3.2-19.7,2.8-29.6c-0.6-10.3-1.9-20.6-4.3-30.6c2-0.8,2.8,1.4,3.5,2.9c1.4-0.4,2.9-0.7,4.3-1.1c-1.3-0.3-3.7,0.5-4.1-1.3
		c0-1.4,1.6-2.3,2.7-1.3c-0.7-1.1-1.5-2.2-2-3.4c-0.4,1-0.7,3.4-2.3,2.5c-1.4-2.6,1.4-5.1,3.7-5.7c-1.2,0.3-2.4,0.5-3.6,0.7
		c-1.3,1.9-1.2,4.3-2.2,6.3c-2.4-8.9-4.1-18.1-8.1-26.4c0.1-0.3,0.4-1,0.5-1.3l-1.3,0.1v-1.5c-5.5-15.4-12.8-30.1-21.1-44.2
		c17.6,5.8,33.9,15.7,46.9,29c20.7,20.5,33,48,39.2,76.1l0.7,0.3l-0.4,0.5c0.2,5.4,1.7,10.8,1.9,16.3c16.1-7.5,30.5-19.2,40.3-34
		l0.2-0.1c0.8-1,1.5-2,2.3-3c-5.8-6.7-11.5-13.4-17.3-20.1c5,2.6,9.7,5.9,15.1,8c3.2,1.4,6.8,0.8,10.2,0.5
		c9.8-15.9,16.5-33.7,28.3-48.3c-4.1-4.7-8.8-8.9-12.7-13.8c7,1.8,14.1,3.7,21,5.7c16.4-16.2,27.8-37.5,31.6-60.3
		c-1.2-0.8-2.4-1.7-3.8-2c-24.9-14.1-51.2-25.5-78-35.3c-19.3-6.3-36.4-17.5-52.8-29.2c-13.8-9.6-26.9-20.2-41.2-29.1
		c-5.9-3.5-12-7-18.8-8.1c-3.5-0.6-7.6,0.2-9.9,3.1c-9.4,11.5-19.1,22.9-29.8,33.2c-11,10.5-22.6,20.8-36.1,27.9
		c1.3,2.4,2.6,4.8,4,7.2c0.7,1.1,1.3,2.3,2,3.4c-0.4-0.2-1-0.5-1.4-0.6c-6.3-6.4-13.1-12.4-20.8-17.1c-3.3-2.3-7.5-1.3-11.1-0.5
		c-9.4,2.3-18.5,5.6-27.7,8.5c-2,0.5-4,1.4-6.1,0.6c-9.4-2.8-18.5-6.2-28-8.6c-4.2-0.9-9.1-2.6-13,0.1c-6.9,4.2-13,9.6-18.8,15.2
		l-0.1,0l-1,0.8c0,0-0.1,0.1-0.1,0.1c-0.5,0.4-1.5,1.3-2,1.7c0.6-1.2,1.2-2.4,1.9-3.6c1.4-2.4,2.7-4.8,4-7.2
		c-2.6-1.3-5.1-2.7-7.5-4.3c-22.8-15.2-41.3-35.7-58.4-56.8c-2.3-2.9-6.4-3.7-10-3.2C258.7,212.9,252.9,216,247.5,219.3
		 M224.3,410.1c-3.4,5.7-7.3,11.2-9.6,17.5c-1.2,1.9-2.2,4-3.1,6.1c-8.9,21.8-11.9,45.9-9.1,69.2c2,16.9,8.6,33.5,20.4,46
		c14.3,14.8,35.7,22.8,56.1,19.8c11.3-1.9,22.3-6.4,31.3-13.5c10.8-7.6,19.5-18.4,25.1-30.3c-2-3-3.8-6.1-6.3-8.6
		c-1.7-3-4.1-5.5-6.5-8c-11.6-11.6-26-20.4-41.6-25.4c-5.3,12.6-18.6,20.6-32.2,20.6c1.7,3.9,4,7.5,6.6,10.8
		c3.7,4.5,7.9,8.6,11.9,12.7c-11.9-4.5-22.1-13.5-27.3-25.2c-8-17.6-7.4-37.7-4.4-56.4c4.5-25.5,13.5-50.2,26.2-72.8
		C246.9,382.2,234.4,395.4,224.3,410.1 M538,372.7c12.8,22.8,21.9,47.7,26.3,73.4c2.9,18.5,3.4,38.4-4.5,55.8
		c-5.2,11.6-15.3,20.7-27.2,25.1c3.9-4.3,8.2-8.2,11.8-12.8c2.8-3.2,4.8-6.9,6.6-10.7c-4.7-0.4-9.5-0.9-13.9-2.8
		c-8.2-3.2-14.8-9.8-18.3-17.8c-15.1,4.9-29.1,13.3-40.5,24.4c-3.1,3.1-6.3,6.1-8.4,10l-0.4,0.2c-1.8,2.4-3.4,4.9-5,7.4
		c5.6,12.1,14.4,22.6,25.1,30.5c13.5,10,30.7,15.8,47.6,13.5c19.3-2.3,37.5-13.5,47.8-30.1c11.5-17.5,14.3-39.3,13.3-59.8
		c-1.1-17.7-4.7-35.6-13-51.4c-2.1-6-5.8-11.3-9.1-16.8C566.1,395.8,553.2,382.4,538,372.7z"/>
</g>
<g id="_x23_ffffffff">
	<path fill="#FFFFFF" d="M247.5,219.3c5.5-3.2,11.2-6.3,17.5-7.4c3.6-0.6,7.6,0.2,10,3.2c17.2,21.1,35.7,41.6,58.4,56.8
		c2.4,1.6,4.9,3,7.5,4.3c-1.3,2.4-2.6,4.8-4,7.2c-11.7-8-22.8-16.7-33.7-25.6c-9.5-7.8-18.1-16.5-25.9-26
		c-3.5-3.9-6.7-8.3-11.6-10.5c-3.8-1.8-7.9,0.5-11.1,2.4c-14.6,9.7-29,19.6-43.6,29.3c-12.5,8.4-25.1,16.6-38.4,23.6
		c-5.5,2.9-11.5,4.5-17.3,6.6c-24.1,8.8-47.9,18-71.8,27.3c-3,1.4-6.1,2.4-9.3,3c24.7-14,50.8-25.4,77.5-35.1
		c21.6-7,40.4-20.1,58.7-33.2C222.7,236.6,234.5,227.1,247.5,219.3z"/>
	<path fill="#FFFFFF" d="M525,215c2.3-2.9,6.4-3.7,9.9-3.1c6.8,1.2,12.9,4.6,18.8,8.1c14.3,8.9,27.4,19.5,41.2,29.1
		c16.4,11.6,33.5,22.9,52.8,29.2c26.8,9.8,53.1,21.2,78,35.3c-5.8-0.9-11-4.1-16.5-5.8c-20.2-8-40.5-15.6-60.9-23.2
		c-7.7-3-15.9-4.8-23-9c-25.7-14.2-49.4-31.7-73.9-47.9c-4.5-2.8-8.8-6.9-14.4-7.1c-5.2,0.6-8.8,4.9-12,8.5
		c-8.9,10.7-18.4,21-29.4,29.6c-10.5,8.6-21.2,17.1-32.5,24.7c-1.4-2.4-2.7-4.8-4-7.2c13.5-7.1,25.2-17.3,36.1-27.9
		C505.9,237.9,515.6,226.5,525,215z"/>
	<path fill="#FFFFFF" d="M357,269c3.9-2.7,8.8-1,13-0.1c9.5,2.4,18.6,5.9,28,8.6c2,0.8,4.1,0,6.1-0.6c9.2-2.9,18.3-6.2,27.7-8.5
		c3.6-0.8,7.8-1.8,11.1,0.5c7.6,4.8,14.5,10.7,20.8,17.1c-8-3.7-15-9.2-23.3-12.3c-2.4-0.9-4.9-0.1-7.2,0.5
		c-10.4,3.1-20.7,6.6-30.9,10.1c-2.8,0.9-5.7-0.3-8.3-1.2c-8.4-3.2-17.1-5.7-25.7-8.5c-2.6-0.7-5.2-1.7-7.9-1.1
		c-7.9,2.5-14.2,8.5-22.2,10.7C344,278.6,350.1,273.2,357,269z"/>
	<path fill="#FFFFFF" d="M337,285.1C337,285.1,337.1,285.1,337,285.1C337.1,285.1,337,285.1,337,285.1z"/>
	<path fill="#FFFFFF" d="M353.6,321.5c0.1-0.4,0.4-1.2,0.6-1.6c3.4,8.9,6.9,19.1,3,28.5c-1.6,3.3-2.9,7.8-7,8.6
		C358.8,347.2,357.2,333,353.6,321.5z"/>
	<path fill="#FFFFFF" d="M445.8,319.8c0.1,0.4,0.4,1.3,0.5,1.8c-3.2,10.7-4.8,23.1,1.5,33.1l0.7,1.5c-3.2-1-4.1-4.5-5.5-7.1
		C438.7,339.5,442.3,328.9,445.8,319.8z"/>
	<path fill="#FFFFFF" d="M224.3,410.1c10-14.7,22.6-27.9,37.7-37.4c-12.7,22.6-21.8,47.3-26.2,72.8c-3,18.7-3.6,38.8,4.4,56.4
		c5.2,11.7,15.4,20.7,27.3,25.2c-4.1-4.2-8.3-8.2-11.9-12.7c9.2-2.1,18.3-5.9,25.2-12.6c2.7-2.6,4.6-5.9,7.4-8.3
		c10,1.2,19.2,6.3,27.3,12.1c4.7,3.5,8.9,7.6,13.8,10.8c2.5,2.5,4.3,5.7,6.3,8.6c-5.6,12-14.3,22.7-25.1,30.3
		c-7.5,1.2-14.8,3.6-22.4,4.3c-14.3,1.8-29.5,0.7-42.5-6.1c-14.7-7.3-24.9-21.5-30.2-36.8c-7.8-22.5-8-47-4-70.3
		c0.9-6.3,2.9-12.4,3.4-18.7C217,421.3,220.9,415.8,224.3,410.1z"/>
	<path fill="#FFFFFF" d="M538,372.7c15.3,9.8,28.1,23.1,38.2,38.2c3.2,5.5,6.9,10.8,9.1,16.8c0.4,4.9,1.6,9.7,2.7,14.5
		c4.4,23.1,5,47.4-1.8,70.1c-4.6,15.3-13.4,30.1-27.2,38.7c-14.4,9.3-32.3,10.9-48.9,8.4c-7-0.6-13.6-3.2-20.5-3.9
		c-10.7-7.8-19.5-18.4-25.1-30.5c1.6-2.5,3.3-5,5-7.4l0.4-0.2c4.8-2.1,7.6-6.7,11.8-9.7c8.4-6.5,17.8-12.2,28.4-14
		c2.2-0.7,3.3,1.6,4.5,2.8c7,9.6,18.3,15.6,29.9,17.7c-3.6,4.6-7.9,8.5-11.8,12.8c11.9-4.4,22-13.5,27.2-25.1
		c7.9-17.4,7.3-37.3,4.5-55.8C559.9,420.3,550.7,395.5,538,372.7z"/>
	<path fill="#FFFFFF" d="M344,375.5c0.3,2.1,0.5,4.3,0.5,6.5c-0.9,13.8-4.3,27.5-10.7,39.7c-7.4,12-18.4,20.9-28.1,30.8
		c-1.3-0.7-2.5-1.3-3.8-2c5.6-5.2,11.1-10.5,16.6-15.8c0.3-0.3,0.8-0.9,1.1-1.1c1.6-1.6,3.1-3.3,4.5-5c0.5-0.6,1.1-1.1,1.7-1.7
		c3.3-3.2,5.7-7.2,7.9-11.2C340,403.3,342.8,389.3,344,375.5z"/>
	<path fill="#FFFFFF" d="M456.7,392c-0.8-5.4-1.8-11-0.7-16.5c1.5,17.3,5.4,35.2,16.2,49.2c8.1,9.1,17.1,17.4,25.9,25.7
		c-1.3,0.7-2.6,1.3-3.8,2c-11.4-11.5-24.9-22.1-31.4-37.4C459.4,407.9,458.1,399.9,456.7,392z"/>
	<path fill="#FFFFFF" d="M316.7,385c4.7,6.8,9.3,14.6,17.4,17.8c-4.3,2.3-10.3,3-13.9-1C316.6,397,316.5,390.7,316.7,385z"/>
	<path fill="#FFFFFF" d="M471.6,395.5c4.6-2.8,7.8-7.3,11.8-10.8c0.1,5.8,0.2,12.5-3.8,17.2c-2.9,3.1-7.5,3.1-11.3,2.2
		c0.1-0.5,0.2-1.6,0.3-2.2c-0.1,0.5-0.4,1.5-0.6,2c-0.5-0.3-1.5-1-2-1.3c1-2.6,3.6-4.1,5.8-5.6c0-0.3-0.1-0.8-0.1-1L471.6,395.5
		L471.6,395.5z"/>
	<path fill="#FFFFFF" d="M351.2,451.4c0.3,2.8,0.5,5.7,0.2,8.6c-1.8,18.9-3.2,37.8-4.9,56.6c-0.4,3.9-0.1,8-2.1,11.6
		C345.2,502.5,347.7,476.9,351.2,451.4z"/>
	<path fill="#FFFFFF" d="M448.5,458.6c-0.2-2.4,0.1-4.8,0.3-7.2c3.5,25.4,6.1,51.1,6.8,76.8c-1.9-3.3-1.7-7.2-2-10.8
		C451.9,497.7,450.3,478.1,448.5,458.6z"/>
	<path fill="#FFFFFF" d="M281.9,475.2c0.4-5.8,3.2-11.2,8.1-14.4c1.5,0.4,2.9,0.7,4.4,1c-2.5,1.6-5.1,3.4-6.4,6.1
		c-1.3,3-1.7,6.2-2.3,9.3C284.4,476.7,282,477.2,281.9,475.2z"/>
	<path fill="#FFFFFF" d="M505.7,461.8c1.4-0.4,2.9-0.7,4.4-1c5.3,3.5,8.2,9.5,7.9,15.8c-1.4,0.1-2.8,0.1-4.2,0.2
		C514.2,470.8,511.3,464.5,505.7,461.8z"/>
</g>
<g id="_x23_cccdcfff">
	<path fill="#CCCDCF" d="M254.6,223.6c3.3-2,7.3-4.2,11.1-2.4c4.9,2.2,8.1,6.6,11.6,10.5c7.8,9.5,16.4,18.3,25.9,26
		c10.9,8.9,22,17.7,33.7,25.6c-0.7,1.2-1.3,2.4-1.9,3.6c0.5-0.4,1.5-1.3,2-1.7c0,0,0.1-0.1,0.1-0.1l1-0.8l0.1,0
		c8-2.2,14.3-8.2,22.2-10.7c2.7-0.5,5.4,0.4,7.9,1.1c8.6,2.8,17.2,5.3,25.7,8.5c2.6,0.9,5.5,2.1,8.3,1.2c10.3-3.5,20.5-7,30.9-10.1
		c2.3-0.6,4.8-1.4,7.2-0.5c8.3,3.1,15.3,8.6,23.3,12.3c0.3,0.2,1,0.5,1.4,0.6c-0.7-1.1-1.3-2.3-2-3.4c11.3-7.6,22-16.1,32.5-24.7
		c11-8.6,20.5-18.9,29.4-29.6c3.3-3.6,6.9-7.9,12-8.5c5.6,0.3,9.9,4.3,14.4,7.1c24.5,16.1,48.2,33.7,73.9,47.9c7.2,4.2,15.4,6,23,9
		c20.4,7.6,40.7,15.2,60.9,23.2c5.6,1.8,10.7,4.9,16.5,5.8c1.4,0.4,2.6,1.3,3.8,2c-3.8,22.8-15.2,44.1-31.6,60.3c-7-2-14-3.9-21-5.7
		c3.9,4.9,8.6,9.1,12.7,13.8c-11.8,14.6-18.6,32.4-28.3,48.3c-3.4,0.3-7,0.8-10.2-0.5c-5.3-2.1-10-5.4-15.1-8
		c5.8,6.7,11.5,13.5,17.3,20.1c-0.8,1-1.5,2-2.3,3l-0.2,0.1c-2.4,0.8-4.7,1.8-6.8,3.1c-10.8,6.5-22.8,10.9-35,14.1l-0.7-0.3
		c-6.2-28.1-18.5-55.6-39.2-76.1c-13-13.3-29.3-23.1-46.9-29c8.2,14.1,15.6,28.8,21.1,44.2v1.5c-0.2,0-0.7,0.1-0.9,0.1
		c-0.4-0.8-0.8-1.7-1.1-2.5c-0.1,0.7-0.2,2-0.3,2.6c-2.8,0-5.9-0.5-8.5,0.9c-2.5,1.4-4.3,3.7-6.2,5.8c-2.4-5.9-4.1-12.1-4.4-18.4
		c-0.5-6.1,0.4-12.1,0.4-18.1c0-4.8-2.5-9.2-2-14c0.6-8,5.5-15.2,11.7-20c4.7-3.8,10.5-5.6,15.7-8.6c3.1-0.3,6.3-0.7,9.4-1.1
		c-6.1-1.2-12.3-1.8-18.5-1.3c4.4-6,9.7-11.2,15.1-16.3c3.4-3,7.4-6.5,12.3-6.1c14.2,1.3,27.9,5.2,41.6,9c2.4,0.6,4.8,0.8,7.3,1
		c2.1,0.8,4.1,1.6,6.2,2.4c-14.7-8.3-29.7-16-45-23c-5.5-2.2-11-5-17-5.6c-4.8,0.4-8.9,3.4-13,5.7c-19.2,12.1-36.5,26.9-53.9,41.3
		c-2.9-4.2-5.8-8.5-9.1-12.5c2.9,8.1,5.8,16.1,8.6,24.3c-2.2-1.1-4.4-2.1-6.6-3.1c3,3.8,6.1,7.5,9.1,11.4c1.7,4.8,4.8,8.9,7.1,13.5
		c1.9,3.4,0.7,7.5-0.2,11c-2.8,9.7-7.6,19.3-15.8,25.6c0.9,0,2.8,0.1,3.7,0.2l-0.6,1c-3.3,2.3-7.5,1.7-11.4,2c4-2.1,8-4.5,10.3-8.5
		c5.3-8.7,4.5-19.4,3.1-29c3.6,0,7.2,0.3,10.9,0.7c-4-1.9-7.9-4.4-12.4-5.2c-1.5,0.8-2.4,2.2-3.5,3.5c-5.1,6.7-9.1,14.3-15.8,19.6
		c0.7,0.9,1.5,1.9,2.2,2.9l0,0.3c-3.7-0.9-8.2-2.2-9.8-6.1c-2.4-5.5-4.1-11.2-5.4-17c-0.2,0.9-0.4,1.8-0.5,2.7
		c-1.1,5.5,0,11,0.7,16.5c1.4,7.9,2.7,15.9,6.2,23.1c6.5,15.3,20,25.8,31.4,37.4c-3,2.7-5.8,5.7-7.6,9.4c4.6-3.7,9.9-6.6,15.8-7.8
		c1.4,1.1,2.7,2.3,4.1,3.4c-4.1,2-7.5,5.2-9.7,9.2c2.8-1.8,5.5-4,8.8-5c5.6,2.7,8.5,9,8,15l-0.1,0.9l-1-0.4
		c-0.4-0.2-1.2-0.5-1.6-0.6c-15.9,1.5-30.5,9.2-42.6,19.5c-3.1-14.2-7.9-28-13.4-41.3c-1.1-2.8-2.6-5.4-4.5-7.6
		c-1-2.7-2-5.5-3.1-8.2c0.1,4.1,1.4,8.2,1.3,12.3c-0.2,2.4-0.5,4.8-0.3,7.2c1.8,19.6,3.4,39.2,5.1,58.8c0.4,3.6,0.1,7.5,2,10.8
		l0.2,0.4c0.3,3.6,0.3,7.3,0.2,10.9c-0.5-3-1.4-5.9-2.4-8.8c-2,15-3.9,30.7-12.3,43.7c-2.6,4.3-6.8,7.2-11.2,9.4
		c2.6,0.1,5.2,0.1,7.8,0.3c-2.9,7.1-7.3,13.9-14,18c-8.1,5.6-18.2,7.1-27.8,6.5c-9.9-0.5-19.8-4.6-26.5-12c-3.3-3.5-5.4-8-7.5-12.3
		c2.6-0.2,5.2-0.4,7.8-0.6c-4.4-2.1-8.6-5-11.2-9.3c-8.2-13.1-10.2-28.7-12.2-43.7c-0.9,2.9-1.8,5.8-2.3,8.8
		c-0.1-3.6-0.1-7.2,0.2-10.7l0.2-0.4c2-3.5,1.7-7.7,2.1-11.6c1.7-18.9,3.1-37.8,4.9-56.6c0.3-2.9,0.1-5.7-0.2-8.6
		c-0.1-4.2,1.2-8.2,1.4-12.4c-1.1,2.7-2.1,5.5-3.1,8.2c-3,3.4-4.6,7.8-6.3,11.9c-4.7,12.1-8.9,24.4-11.6,37.1
		c-8.7-7-18.2-13.5-29.1-16.6c-5-1.3-10.1-3.2-15.3-2.5c-0.3,0-1.1,0.1-1.4,0.2c0.6-3.1,1-6.4,2.3-9.3c1.3-2.8,3.9-4.5,6.4-6.1
		c3.3,1,6,3.2,8.9,5c-2.3-3.9-5.7-7.2-9.8-9.2c1.4-1.1,2.7-2.3,4.1-3.4c5.8,1.2,11.1,4.1,15.8,7.8c-1.7-3.7-4.6-6.7-7.6-9.4
		c9.7-9.9,20.7-18.9,28.1-30.8c6.4-12.3,9.8-25.9,10.7-39.7c0.1-2.2-0.2-4.3-0.5-6.5c-0.1-1-0.2-1.9-0.3-2.9
		c-1.8,6.5-3.3,13.2-6.9,19c-1,1.9-3.3,3.5-5.3,1.8c-8.7-6.1-12.4-17-20.3-23.9c-4.5,0.8-8.3,3.3-12.4,5.2c3.6-0.3,7.3-0.6,10.9-0.7
		c-1.3,9.5-2.2,19.8,2.7,28.5c2.2,4.2,6.4,6.7,10.4,9.1c-3.8-0.1-7.6-0.5-11.2-1.6c-0.3-0.3-0.7-0.8-1-1.1c1-0.4,2.1-0.7,3.1-1.1
		c-7.5-6.4-12-15.5-14.7-24.8c-0.9-3.6-2.2-7.6-0.2-11.1c2.3-4.5,5.2-8.7,7.3-13.3c2.5-4.1,6-7.6,8.8-11.5c-2.2,0.9-4.4,2-6.6,2.9
		c2.8-8,5.8-16,8.6-24.1c-3.3,3.8-5.8,8.1-9,12.1c-0.5-0.3-1.4-0.9-1.9-1.2c-17.3-14.5-34.6-29.1-53.9-40.9
		c-4.1-2.3-8.6-5.5-13.6-4.3c-5.7,1.5-11.2,3.9-16.5,6.3c-14.6,6.8-28.9,14.2-42.9,22c2-0.6,4-1.4,5.9-2.3l0.5,0
		c2.3-0.1,4.7-0.3,7-0.9c13.6-3.9,27.4-7.8,41.5-9.1c4.7-0.5,8.5,2.8,11.9,5.6c5.6,5.2,11,10.6,15.7,16.7c-6.2-0.4-12.4,0-18.5,1.4
		c3.1,0.4,6.3,0.8,9.5,1c5.5,3.6,12.2,5.4,17.2,10c4.9,4.5,8.9,10.4,9.9,17.1c1.2,6-2.5,11.5-1.8,17.5c0.5,5.3,0.2,10.7,0.8,16
		c3.3,5.4,1.7,12,2,18c-0.2,5.8,1.3,12.3-2.1,17.5c-1.7,3.2-5.3,4.1-8.4,5.5c-0.4,6.8-2.2,13.9-7.3,18.8
		c-5.3,5.3-12.5,7.8-19.3,10.3c2.1-37,15.9-72.3,34.4-104.1c-23.1,7.5-43.6,22.4-58.1,41.8c-14.1,18.5-22.9,40.7-28,63.3l-0.7,0.3
		c-11.7-3.1-23.3-7.2-33.8-13.5c-2.7-1.6-5.4-3-8.3-4.2l-0.4-0.2c-0.6-0.8-1.2-1.7-1.8-2.5c5.8-6.7,11.5-13.4,17.2-20.1
		c-5,2.6-9.7,5.9-15,8c-3.2,1.3-6.8,0.8-10.2,0.5c-9.8-15.9-16.5-33.7-28.4-48.3c4.1-4.7,8.8-9,12.8-13.8
		c-7.1,1.8-14.1,3.7-21.1,5.7c-16.4-16.2-27.8-37.6-31.6-60.4c1.2-0.7,2.4-1.6,3.8-2c3.2-0.6,6.4-1.6,9.3-3
		c23.8-9.4,47.7-18.6,71.8-27.3c5.8-2.1,11.8-3.7,17.3-6.6c13.3-7,25.9-15.3,38.4-23.6C225.6,243.3,240,233.3,254.6,223.6
		 M364.4,286.5c-3.8,1.7-7.3,4-11,5.8c0,0.2,0.1,0.5,0.1,0.7c5.5-1.8,11.9-3.3,17.5-0.9c9.6,3.5,19.4,6.7,29,10.3
		c8.3-3.1,16.7-6,25.1-8.9c3-1,5.9-2.3,9-2.7c4.3,0.1,8.5,1.2,12.7,1.8c-3.8-1.9-7.3-4.3-11.2-6c-1.5-0.8-3.1-0.2-4.6,0.2
		c-9.8,3.2-19.6,6.3-29.4,9.6c-1.7,0.7-3.4-0.1-5-0.6c-8.8-3.1-17.8-5.8-26.6-8.8C368.2,286.5,366.2,285.5,364.4,286.5 M351.4,315.7
		c-0.3,13.7-2.5,27.3-4.2,40.9l1.4-0.6c-0.7,1.3-1.5,2.7-2.2,4c1.3-1,2.7-1.9,3.9-3.1c4.1-0.9,5.4-5.3,7-8.6
		c3.9-9.4,0.4-19.6-3-28.5c-0.1,0.4-0.4,1.2-0.6,1.6c-0.3-0.9-1-2.6-1.3-3.4C352.3,317.2,351.7,316.5,351.4,315.7 M447.5,317.9
		l0,0.3c-0.3,0.8-0.9,2.5-1.2,3.3c-0.1-0.4-0.4-1.3-0.5-1.8c-3.5,9.1-7.1,19.7-2.8,29.2c1.4,2.6,2.3,6.2,5.5,7.1l-0.7-1.5
		c1.6,2.1,3.7,3.9,5.9,5.4c-0.6-1-1.2-2-1.8-3c1.6-3.6-0.4-7.5-0.5-11.3c-1-9.9-3-19.8-2.7-29.9
		C448.3,316.5,447.9,317.2,447.5,317.9 M278.4,395.7c-2.2,3-2.1,6.9-2.6,10.4c-0.2,1.5-0.4,3.5-2.3,3.8c-0.1-4.1,0.8-8.3-0.7-12.3
		c0.5,3.8,0.7,7.5-0.1,11.3c0.9,2.8-0.3,5.6-1.4,8.2c-2,4.9-1.7,10.4-1.7,15.6c5.4-0.4,10.1-5.5,9.9-10.9c0.4-7.8-0.3-15.6,0.3-23.3
		C280.4,397.3,278.8,396.7,278.4,395.7 M374.6,472.9c8.4-1,16.8-2.5,25.3-2.3c8.6-0.2,17.1,1.3,25.6,2.4c-7.3-6-17.4-7.2-26.5-7.2
		C390.6,466.1,381.3,467.1,374.6,472.9 M363.9,511.6c24-2,48.2-1.9,72.2,0c-12.3-6.3-26.6-7.4-40.2-7.1
		C385,504.9,373.7,506.4,363.9,511.6 M365.9,548.6c22.8-0.6,45.5-0.6,68.3,0c-10.2-5.2-21.9-5.9-33.1-6.1
		C389.1,542.5,376.7,543.1,365.9,548.6 M374.6,584.3c8.2,2.6,16.8,3.9,25.3,4.4c8.8-0.4,17.6-2,26.1-4.5c-11-0.9-22.1,0.2-33.1-0.2
		C386.9,584,380.7,583.4,374.6,584.3z"/>
	<path fill="#CCCDCF" d="M531.4,407.1c3.8-2.8,8.4-1.1,12.7-1.4c4,8.3,5.7,17.5,8.1,26.4c1-2,0.9-4.4,2.2-6.3
		c1.2-0.2,2.4-0.5,3.6-0.7c-2.3,0.6-5.1,3.2-3.7,5.7c1.6,1,1.9-1.4,2.3-2.5c0.6,1.2,1.3,2.3,2,3.4c-1.1-1-2.7-0.1-2.7,1.3
		c0.4,1.8,2.8,0.9,4.1,1.3c-1.4,0.3-2.9,0.7-4.3,1.1c-0.7-1.4-1.5-3.7-3.5-2.9c2.4,10,3.8,20.3,4.3,30.6c-8.1-3.1-17-6.2-22-13.7
		c-3-4.2-4.1-9.4-4.2-14.4c0.2-5.7-5.3-9.9-4.6-15.7C526.5,414.9,526.8,409.3,531.4,407.1 M526.9,415c-0.8,4.8-0.9,10.8,3.3,14.2
		C530.3,424.4,530.8,418.5,526.9,415z"/>
	<path fill="#CCCDCF" d="M211.7,433.8c0.8-2.1,1.9-4.2,3.1-6.1c-0.5,6.3-2.5,12.4-3.4,18.7c-4,23.3-3.9,47.8,4,70.3
		c5.3,15.3,15.5,29.5,30.2,36.8c13,6.8,28.1,7.9,42.5,6.1c7.6-0.7,14.9-3.1,22.4-4.3c-9,7.1-20.1,11.5-31.3,13.5
		c-20.5,3-41.9-5-56.1-19.8c-11.8-12.5-18.4-29.1-20.4-46C199.8,479.6,202.8,455.5,211.7,433.8z"/>
	<path fill="#CCCDCF" d="M585.2,427.6c8.3,15.8,11.9,33.7,13,51.4c1,20.6-1.8,42.3-13.3,59.8c-10.4,16.5-28.5,27.8-47.8,30.1
		c-16.9,2.3-34.1-3.5-47.6-13.5c7,0.7,13.5,3.3,20.5,3.9c16.6,2.5,34.5,0.9,48.9-8.4c13.8-8.6,22.6-23.4,27.2-38.7
		c6.7-22.7,6.1-47,1.8-70.1C586.8,437.3,585.6,432.5,585.2,427.6z"/>
	<path fill="#CCCDCF" d="M281.2,482.9c15.6,5,30,13.8,41.6,25.4c2.4,2.4,4.8,4.9,6.5,8c-4.9-3.2-9.1-7.3-13.8-10.8
		c-8.1-5.8-17.3-10.9-27.3-12.1c-2.8,2.5-4.7,5.8-7.4,8.3c-6.9,6.6-16,10.5-25.2,12.6c-2.6-3.3-4.9-7-6.6-10.8
		C262.5,503.5,275.9,495.5,281.2,482.9z"/>
	<path fill="#CCCDCF" d="M478.3,507.3c11.4-11.1,25.4-19.5,40.5-24.4c3.5,8,10.1,14.6,18.3,17.8c4.4,1.9,9.2,2.4,13.9,2.8
		c-1.8,3.8-3.8,7.5-6.6,10.7c-11.6-2.2-22.8-8.1-29.9-17.7c-1.3-1.3-2.3-3.5-4.5-2.8c-10.6,1.8-20,7.5-28.4,14
		c-4.1,3-7,7.6-11.8,9.7C472,513.4,475.2,510.4,478.3,507.3z"/>
</g>
<g id="_x23_1a272fff">
	<path id="SVG_LOGO_CONTOURE" fill="#1A272F" d="M238.9,202c8.8-5.1,18.6-9.7,29-9.5c8.7,0,17.2,4.1,22.5,11
		c14.8,18.4,31,35.9,50,50c0.8,0.6,1.6,1.1,2.4,1.5c3.4-1.7,6.5-4.1,10.1-5.2c5.4-1.9,11.3-1.6,16.9-0.5c9.5,2,18.7,5.1,27.9,8.1
		c3.4,1.3,6.7-1,9.9-1.8c10.2-3.1,20.5-7.1,31.4-7.2c6.7-0.1,12.5,3.4,18,6.6c17-11.4,31.4-26.5,44.7-41.9c5.4-6,9.6-13.5,17.1-17.2
		c8.6-4.6,19.1-4,28.1-0.6c12.9,4.8,24.1,12.9,35.2,20.8c17.3,12.5,34.2,25.6,53,35.9c10.8,5.9,22.7,9.2,34.1,13.8
		c27.9,10.9,55.1,23.8,80.6,39.5c-1.1,30.3-14.5,59.4-35.3,81.3c-4.3,4.7-9.4,8.7-13.1,13.9c-5.5,7.8-9.6,16.5-14.1,24.9
		c-3.2,6.4-7.1,12.4-10.1,18.8c-9,13.4-19.3,26.1-31.7,36.4c-8.7,7.3-18.2,13.6-28.2,18.9c-1.7,18.7-7.2,37.4-18,52.8
		c-9,12.4-21,22.8-35.2,28.9c-18.1,8.1-39.1,10-58,3.8c-11.7-3.5-22.4-9.5-32-17c-1.6,18-4.5,36.3-12.2,52.8
		c-4.6,10-11.5,19.4-21.2,24.9c-12.3,7.1-26.7,9.3-40.7,9.7c-15.8-0.4-32.5-3.3-45.4-12.9c-11.4-9-17.7-22.7-21.8-36.4
		c-3.7-12.4-5.4-25.3-6.8-38.1c-12.4,9.9-27.1,16.8-42.8,19.6c-17.9,3-36.6-0.7-52.5-9.1c-17.6-9.4-31.7-25.2-39.3-43.7
		c-4.8-11.2-7.2-23.3-8.5-35.4c-20.3-10.6-38.4-25.7-51.9-44.2c-2.6-3.7-5.6-7.1-7.9-11c-3.1-6.4-7-12.5-10.2-18.9
		c-4.5-8.4-8.6-17-14.1-24.8c-3.8-5.5-9.2-9.6-13.7-14.5c-15.7-16.7-27-37.6-32.1-59.9c-1.6-6.8-2-13.8-2.7-20.8
		c31-19,64.4-34,98.6-46.2c15.4-5.4,29.1-14.5,42.4-23.8C207.2,224.3,222.3,211.9,238.9,202 M247.5,219.3
		c-12.9,7.8-24.7,17.3-37.1,26c-18.3,13.1-37.1,26.2-58.7,33.2c-26.6,9.8-52.8,21.1-77.5,35.1c-1.4,0.4-2.6,1.3-3.8,2
		c3.8,22.8,15.2,44.1,31.6,60.4c7-2,14-3.9,21.1-5.7c-4,4.9-8.6,9.1-12.8,13.8c11.8,14.6,18.5,32.4,28.4,48.3
		c3.4,0.3,6.9,0.8,10.2-0.5c5.3-2.1,10-5.4,15-8c-5.7,6.7-11.4,13.5-17.2,20.1c0.6,0.8,1.2,1.6,1.8,2.5l0.4,0.2
		c9.9,15,24.3,26.9,40.6,34.4c0.2-5.5,1.6-10.9,1.9-16.3l-0.4-0.5l0.7-0.3c5.1-22.6,13.9-44.8,28-63.3c14.5-19.4,35-34.3,58.1-41.8
		c-18.5,31.7-32.3,67.1-34.4,104.1c-0.4,10,0.4,20,2.8,29.7c4.2,0.8,8.7,1.2,12.8-0.3c6.9-2.1,12.1-7.9,15.1-14.2
		c1.3-5.7,1-12.3,5.2-16.8c6.4-6.8,13-13.4,19.4-20.2c-4.4-7.2-8.9-14.5-12.7-22.1c0.9-6.9,4-13.4,5.4-20.2
		c-1.4-8.3-4.2-16.4-5.2-24.8c-0.3-1.3,0.5-2.6,1.1-3.7c3.3-5.5,7.7-10.4,11.1-15.8c1-1.1-0.3-2.3-1-3.1c-7.8-8-18.1-13.2-28.7-16.3
		c-5.3-1.4-10.7-3.1-16.3-2.8c-3.2-0.2-6.3-0.7-9.5-1c6.1-1.3,12.3-1.7,18.5-1.4c5.9,0.5,11.6,1.8,17.4,3
		c-6.3-7.9-13-15.6-20.2-22.8c-4.6-4.4-9.5-8.9-15.3-11.8c-3.5-1.8-7.5-0.8-11,0c-11.9,3.3-23.4,8.1-34.7,13.1
		c-4.1,1.9-8.5,3.4-12.2,6l-0.5,0c-1.9,0.9-3.9,1.7-5.9,2.3c14-7.9,28.4-15.2,42.9-22c5.4-2.4,10.8-4.8,16.5-6.3
		c5-1.3,9.4,2,13.6,4.3c19.3,11.8,36.6,26.5,53.9,40.9c0.5,0.3,1.5,0.9,1.9,1.2c3.1-3.9,5.6-8.3,9-12.1c-2.8,8.1-5.8,16.1-8.6,24.1
		c2.2-1,4.3-2.1,6.6-2.9c-2.8,3.9-6.3,7.4-8.8,11.5c-3.5,2.7-5.8,6.6-8.5,10c-1.8,2.5-4.2,5.1-3.4,8.4c2,12.2,6.2,24,8.6,36.1
		c-0.6-1.1-1.2-2.2-1.7-3.4c-1-1-2.1-2-3.1-3c-1.2,3.5-3.1,6.7-4.5,10.2c0.3,1.5,1.4,2.7,2.2,4c3.6,5.1,6.7,10.6,9.5,16.2
		c2.4-1.8,4.7-3.7,7.1-5.5c1.7,1.7,4,1.7,6.2,1.7l-0.1,1.3c-5.5,5.3-11,10.5-16.6,15.8c1.3,0.7,2.5,1.3,3.8,2c3,2.7,5.8,5.7,7.6,9.4
		c-4.6-3.7-9.9-6.6-15.8-7.8c-1.4,1.1-2.7,2.3-4.1,3.4c4.1,2,7.5,5.3,9.8,9.2c-2.9-1.8-5.6-4-8.9-5c-1.5-0.3-2.9-0.7-4.4-1
		c-4.9,3.2-7.7,8.6-8.1,14.4c0.1,2,2.5,1.5,3.8,2.1c0.3,0,1.1-0.1,1.4-0.2c5.5,2.6,11.3,4.3,16.6,7.3c14,7.2,25.5,18.4,34.5,31.2
		c-0.4-19.8,3.2-39.5,8.7-58.5c1-3.2,2-6.5,2.6-9.8c1-2.7,2-5.5,3.1-8.2c-0.1,4.2-1.5,8.2-1.4,12.4c-3.5,25.5-6,51.1-6.8,76.8
		l-0.2,0.4c-0.3,3.6-0.3,7.2-0.2,10.7c0.1,10.9,0.4,21.7,1.6,32.5c2,16.6,4.9,34,14.2,48.3c4.3,6.8,11.5,11,19.1,12.9
		c15.9,4.5,33.4,4,48.8-2.4c10.2-4.3,15.7-14.7,19.4-24.5c7.4-21.4,8.6-44.3,8.8-66.8c0.1-3.6,0.1-7.3-0.2-10.9l-0.2-0.4
		c-0.7-25.7-3.3-51.3-6.8-76.8c0.1-4.1-1.2-8.2-1.3-12.3c1.1,2.7,2,5.5,3.1,8.2c0.3,1.6,0.7,3.3,1.1,4.9
		c6.4,20.4,10.6,41.8,10.1,63.2c6.1-8,12.4-15.9,20.5-22c9-7.3,19.5-12.2,30.3-16.1l1,0.4l0.1-0.9c1.4,0,2.8-0.1,4.2-0.2
		c0.3-6.3-2.6-12.4-7.9-15.8c-1.5,0.3-2.9,0.7-4.4,1c-3.3,0.9-5.9,3.2-8.8,5c2.2-4,5.6-7.2,9.7-9.2c-1.4-1.1-2.7-2.3-4.1-3.4
		c-5.9,1.2-11.2,4.1-15.8,7.8c1.7-3.7,4.6-6.7,7.6-9.4c1.3-0.7,2.5-1.4,3.8-2c-8.9-8.3-17.9-16.6-25.9-25.7
		c-10.8-14-14.7-31.9-16.2-49.2c0.2-0.9,0.3-1.8,0.5-2.7c1.3,5.8,3.1,11.5,5.4,17c1.5,3.9,6.1,5.2,9.8,6.1c0,0.3,0.1,0.8,0.1,1
		c-2.2,1.5-4.7,3-5.8,5.6c0.5,0.3,1.5,1,2,1.3c0.1-0.5,0.4-1.5,0.6-2c-0.1,0.6-0.2,1.6-0.3,2.2c3.8,0.9,8.5,1,11.3-2.2
		c4-4.7,3.9-11.4,3.8-17.2c-4,3.5-7.2,8-11.8,10.8l0,0.1c-0.7-1-1.5-1.9-2.2-2.9c6.7-5.3,10.7-13,15.8-19.6c1-1.3,2-2.7,3.5-3.5
		c4.5,0.8,8.3,3.3,12.4,5.2c-3.6-0.4-7.2-0.7-10.9-0.7c1.4,9.6,2.2,20.3-3.1,29c-2.3,4-6.3,6.4-10.3,8.5c3.8-0.3,8,0.3,11.4-2
		c-0.2,0.4-0.7,1.3-0.9,1.7c-3.8,2.9-8.5,5.5-13.4,4.5c0.1,0.6,0.4,1.9,0.5,2.5c2.7,2.9,5.8,5.5,8,8.8c-0.1,3.2,0.9,6.2,4.1,7.3
		c0.3-0.7,0.8-2,1-2.6c2.4,1.8,4.7,3.5,7.1,5.4c1-1.8,2-3.5,3-5.3c1.4,1.2,3.1,1.5,4.9,1.6c0.6-0.7,1.2-1.4,1.8-2.1
		c0-4.1-0.6-8.4,0.9-12.3c1.7-4.2-2.6-7.8-2.1-12c2.6,0,5.3,0.1,7.9,0.2c1.1,3.8,2.8,7.6,2.8,11.7c-3.4,7.7-8.1,14.9-12.5,22.1
		c4.6,4.9,9.4,9.6,14,14.5c3.1,3.3,7,6.2,8.4,10.7c1.5,3.8,1.3,7.9,2.3,11.8c2.3,4.9,5.9,9.4,10.6,12.2c5.2,3.2,11.5,3.6,17.3,2.3
		c2.4-9.7,3.2-19.7,2.8-29.6c-0.6-10.3-1.9-20.6-4.3-30.6c2-0.8,2.8,1.4,3.5,2.9c1.4-0.4,2.9-0.7,4.3-1.1c-1.3-0.3-3.7,0.5-4.1-1.3
		c0-1.4,1.6-2.3,2.7-1.3c-0.7-1.1-1.5-2.2-2-3.4c-0.4,1-0.7,3.4-2.3,2.5c-1.4-2.6,1.4-5.1,3.7-5.7c-1.2,0.3-2.4,0.5-3.6,0.7
		c-1.3,1.9-1.2,4.3-2.2,6.3c-2.4-8.9-4.1-18.1-8.1-26.4c0.1-0.3,0.4-1,0.5-1.3l-1.3,0.1v-1.5c-5.5-15.4-12.8-30.1-21.1-44.2
		c17.6,5.8,33.9,15.7,46.9,29c20.7,20.5,33,48,39.2,76.1l0.7,0.3l-0.4,0.5c0.2,5.4,1.7,10.8,1.9,16.3c16.1-7.5,30.5-19.2,40.3-34
		l0.2-0.1c0.8-1,1.5-2,2.3-3c-5.8-6.7-11.5-13.4-17.3-20.1c5,2.6,9.7,5.9,15.1,8c3.2,1.4,6.8,0.8,10.2,0.5
		c9.8-15.9,16.5-33.7,28.3-48.3c-4.1-4.7-8.8-8.9-12.7-13.8c7,1.8,14.1,3.7,21,5.7c16.4-16.2,27.8-37.5,31.6-60.3
		c-1.2-0.8-2.4-1.7-3.8-2c-24.9-14.1-51.2-25.5-78-35.3c-19.3-6.3-36.4-17.5-52.8-29.2c-13.8-9.6-26.9-20.2-41.2-29.1
		c-5.9-3.5-12-7-18.8-8.1c-3.5-0.6-7.6,0.2-9.9,3.1c-9.4,11.5-19.1,22.9-29.8,33.2c-11,10.5-22.6,20.8-36.1,27.9
		c1.3,2.4,2.6,4.8,4,7.2c0.7,1.1,1.3,2.3,2,3.4c-0.4-0.2-1-0.5-1.4-0.6c-6.3-6.4-13.1-12.4-20.8-17.1c-3.3-2.3-7.5-1.3-11.1-0.5
		c-9.4,2.3-18.5,5.6-27.7,8.5c-2,0.5-4,1.4-6.1,0.6c-9.4-2.8-18.5-6.2-28-8.6c-4.2-0.9-9.1-2.6-13,0.1c-6.9,4.2-13,9.6-18.8,15.2
		l-0.1,0l-1,0.8c0,0-0.1,0.1-0.1,0.1c-0.5,0.4-1.5,1.3-2,1.7c0.6-1.2,1.2-2.4,1.9-3.6c1.4-2.4,2.7-4.8,4-7.2
		c-2.6-1.3-5.1-2.7-7.5-4.3c-22.8-15.2-41.3-35.7-58.4-56.8c-2.3-2.9-6.4-3.7-10-3.2C258.7,212.9,252.9,216,247.5,219.3
		 M224.3,410.1c-3.4,5.7-7.3,11.2-9.6,17.5c-1.2,1.9-2.2,4-3.1,6.1c-8.9,21.8-11.9,45.9-9.1,69.2c2,16.9,8.6,33.5,20.4,46
		c14.3,14.8,35.7,22.8,56.1,19.8c11.3-1.9,22.3-6.4,31.3-13.5c10.8-7.6,19.5-18.4,25.1-30.3c-2-3-3.8-6.1-6.3-8.6
		c-1.7-3-4.1-5.5-6.5-8c-11.6-11.6-26-20.4-41.6-25.4c-5.3,12.6-18.6,20.6-32.2,20.6c1.7,3.9,4,7.5,6.6,10.8
		c3.7,4.5,7.9,8.6,11.9,12.7c-11.9-4.5-22.1-13.5-27.3-25.2c-8-17.6-7.4-37.7-4.4-56.4c4.5-25.5,13.5-50.2,26.2-72.8
		C246.9,382.2,234.4,395.4,224.3,410.1 M538,372.7c12.8,22.8,21.9,47.7,26.3,73.4c2.9,18.5,3.4,38.4-4.5,55.8
		c-5.2,11.6-15.3,20.7-27.2,25.1c3.9-4.3,8.2-8.2,11.8-12.8c2.8-3.2,4.8-6.9,6.6-10.7c-4.7-0.4-9.5-0.9-13.9-2.8
		c-8.2-3.2-14.8-9.8-18.3-17.8c-15.1,4.9-29.1,13.3-40.5,24.4c-3.1,3.1-6.3,6.1-8.4,10l-0.4,0.2c-1.8,2.4-3.4,4.9-5,7.4
		c5.6,12.1,14.4,22.6,25.1,30.5c13.5,10,30.7,15.8,47.6,13.5c19.3-2.3,37.5-13.5,47.8-30.1c11.5-17.5,14.3-39.3,13.3-59.8
		c-1.1-17.7-4.7-35.6-13-51.4c-2.1-6-5.8-11.3-9.1-16.8C566.1,395.8,553.2,382.4,538,372.7z"/>
	<path fill="#1A272F" d="M364.4,286.5c1.8-1,3.8-0.1,5.6,0.4c8.8,3,17.8,5.7,26.6,8.8c1.6,0.5,3.3,1.3,5,0.6
		c9.8-3.3,19.6-6.4,29.4-9.6c1.5-0.4,3.2-1,4.6-0.2c3.9,1.7,7.4,4.1,11.2,6c-4.2-0.6-8.4-1.7-12.7-1.8c-3.1,0.4-6,1.7-9,2.7
		c-8.4,2.9-16.8,5.8-25.1,8.9c-9.6-3.6-19.3-6.9-29-10.3c-5.6-2.4-12-0.9-17.5,0.9c0-0.2-0.1-0.5-0.1-0.7
		C357.1,290.5,360.6,288.3,364.4,286.5z"/>
	<path fill="#1A272F" d="M546,297.1c4.1-2.3,8.2-5.3,13-5.7c6,0.6,11.4,3.4,17,5.6c15.3,7,30.3,14.7,45,23c-2.1-0.8-4.2-1.6-6.2-2.4
		c-12.6-6.7-26-12-39.5-16.7c-6.8-2.1-14.8-5.7-21.3-1c-13,8.7-22.9,21.2-32.9,33.1c5.8-1.3,11.6-2.5,17.5-3
		c6.2-0.5,12.4,0.1,18.5,1.3c-3.1,0.4-6.3,0.8-9.4,1.1c-6.7-0.1-13.3,1.8-19.7,3.8c-10.3,3.4-19.8,9.1-27.3,17.1
		c3.1,5.4,7.3,10.1,10.7,15.3c1.2,1.9,2.6,4.1,2.1,6.5c-1.1,7.3-3.3,14.4-4.8,21.7c-0.8,3.4,1,6.6,1.9,9.7c-3,0.2-6.3-0.2-9.1,1.1
		c-1.8,1.3-3,3.1-4.5,4.7c2.6-9,4.8-18.1,7.1-27.2c0.8-4.4,3.2-9.5,0.3-13.6c-3.1-4.6-6.6-9-10.4-13.1c-3-3.8-6.1-7.6-9.1-11.4
		c2.2,1,4.4,2,6.6,3.1c-2.8-8.1-5.8-16.2-8.6-24.3c3.3,4,6.2,8.2,9.1,12.5C509.5,323.9,526.8,309.1,546,297.1z"/>
	<path fill="#1A272F" d="M348.5,356c5.7-11.8,4-25.3,3.8-38c0.3,0.9,1,2.6,1.3,3.4c3.6,11.5,5.1,25.7-3.4,35.5
		c-1.2,1.1-2.6,2.1-3.9,3.1C347.1,358.7,347.8,357.4,348.5,356z"/>
	<path fill="#1A272F" d="M447.5,318.2c0.1,12.9-1.9,26.9,4.4,38.8c0.6,1,1.2,2,1.8,3c-2.2-1.5-4.2-3.3-5.9-5.4
		c-6.2-10-4.7-22.4-1.5-33.1C446.6,320.7,447.2,319.1,447.5,318.2z"/>
	<path fill="#1A272F" d="M298.8,374.8c4.1-1.9,7.9-4.4,12.4-5.2c7.9,6.8,11.6,17.7,20.3,23.9c2,1.7,4.2,0,5.3-1.8
		c3.6-5.8,5.1-12.6,6.9-19c0.1,0.9,0.2,1.9,0.3,2.9c-1.2,13.8-4,27.8-10.4,40.2c-2.2,4-4.5,8-7.9,11.2c-0.6,0.1-1.7,0.4-2.3,0.5
		c-1.4-0.3-2.9,0.1-4.3-0.6c-0.1-0.3-0.4-0.8-0.5-1.1c2.8-3.1,5.8-5.9,8.4-9.1c-5.5-0.7-11.8-1.9-15.4-6.6c3.6,1.1,7.4,1.6,11.2,1.6
		c-4-2.3-8.2-4.9-10.4-9.1c-4.9-8.6-4-19-2.7-28.5C306.1,374.2,302.5,374.5,298.8,374.8 M316.7,385c-0.2,5.7-0.1,12,3.4,16.7
		c3.6,4,9.6,3.4,13.9,1C326,399.6,321.5,391.8,316.7,385z"/>
	<path fill="#1A272F" d="M498.1,431.5c1.4-3.2,3.1-6.3,5.6-8.9c0,3.2,0,6.4-0.1,9.7c-1.1,0.3-2.2,0.6-3.3,0.9
		C499.7,432.7,498.6,431.9,498.1,431.5z"/>
	<path fill="#1A272F" d="M312.4,431.3c1.4-1.2,2.9-2.4,4.5-3.4c2.3,0.5,4.6,0.3,7,0.4l0.2,0.3c-1.4,1.7-2.9,3.4-4.5,5
		C317.2,432.9,314.8,432.1,312.4,431.3z"/>
	<path fill="#1A272F" d="M483.9,429.5c1.4-0.8,3.5,1.3,2.7,2.8C485.1,433.3,482.9,430.9,483.9,429.5z"/>
	<path fill="#1A272F" d="M374.6,472.9c6.6-5.8,15.9-6.8,24.4-7.2c9.2,0.1,19.2,1.2,26.5,7.2c-8.5-1-17-2.5-25.6-2.4
		C391.4,470.4,383,471.9,374.6,472.9z"/>
	<path fill="#1A272F" d="M363.9,511.6c9.8-5.2,21.1-6.7,32-7.2c13.6-0.3,27.9,0.8,40.2,7.1C412.1,509.7,387.9,509.6,363.9,511.6z"/>
	<path fill="#1A272F" d="M365.9,548.6c10.8-5.4,23.3-6,35.2-6.1c11.2,0.2,22.9,0.9,33.1,6.1C411.4,548,388.6,548,365.9,548.6z"/>
	<path fill="#1A272F" d="M374.6,584.3c6.1-0.9,12.2-0.3,18.3-0.3c11,0.4,22.1-0.7,33.1,0.2c-8.5,2.5-17.3,4.1-26.1,4.5
		C391.4,588.2,382.8,586.9,374.6,584.3z"/>
	<path fill="#1A272F" d="M380.7,617.5c7.4-1,14.9-0.1,22.3-0.4c5.5,0.1,10.9-0.5,16.3,0.2c-6,1.7-12.2,2.6-18.4,3
		C394.1,620.3,387.4,619,380.7,617.5z"/>
</g>
<g id="_x23_919aa0ff">
	<path fill="#919AA0" d="M232.4,298.5c3.6-0.9,7.6-1.8,11,0c5.8,2.8,10.7,7.3,15.3,11.8c7.1,7.2,13.9,14.8,20.2,22.8
		c-5.8-1.3-11.5-2.5-17.4-3c-4.7-6.1-10-11.6-15.7-16.7c-3.3-2.8-7.2-6.1-11.9-5.6c-14.2,1.3-27.9,5.2-41.5,9.1
		c-2.3,0.6-4.6,0.8-7,0.9c3.7-2.6,8.1-4.1,12.2-6C209,306.7,220.4,301.9,232.4,298.5z"/>
	<path fill="#919AA0" d="M553.9,299.9c6.5-4.8,14.5-1.1,21.3,1c13.5,4.8,26.9,10,39.5,16.7c-2.4-0.2-4.9-0.3-7.3-1
		c-13.6-3.8-27.4-7.8-41.6-9c-4.9-0.4-8.8,3.1-12.3,6.1c-5.4,5.1-10.7,10.3-15.1,16.3c-5.9,0.4-11.7,1.7-17.5,3
		C531,321.1,540.9,308.6,553.9,299.9z"/>
	<path fill="#919AA0" d="M351.4,315.7c0.3,0.8,0.9,1.5,1,2.3c0.2,12.7,1.9,26.2-3.8,38l-1.4,0.6C348.8,343,351.1,329.4,351.4,315.7z
		"/>
	<path fill="#919AA0" d="M447.5,317.9c0.4-0.7,0.9-1.4,1.3-2c-0.3,10,1.7,19.9,2.7,29.9c0.2,3.7,2.2,7.7,0.5,11.3
		c-6.4-11.9-4.3-25.8-4.4-38.8L447.5,317.9z"/>
	<path fill="#919AA0" d="M252.5,332.4c5.6-0.3,11,1.4,16.3,2.8c10.6,3.1,20.9,8.4,28.7,16.3c0.7,0.8,2,2,1,3.1
		c-3.5,5.4-7.8,10.2-11.1,15.8c-0.6,1.1-1.4,2.4-1.1,3.7c1,8.4,3.9,16.5,5.2,24.8c-1.5,6.8-4.5,13.2-5.4,20.2
		c3.8,7.6,8.3,14.9,12.7,22.1c-6.4,6.8-13,13.4-19.4,20.2c-4.2,4.6-3.9,11.2-5.2,16.8c-3,6.4-8.2,12.1-15.1,14.2
		c-4.1,1.5-8.6,1.1-12.8,0.3c-2.4-9.7-3.3-19.7-2.8-29.7c6.8-2.5,14-5,19.3-10.3c5.1-4.9,6.9-12,7.3-18.8c3-1.4,6.7-2.3,8.4-5.5
		c3.4-5.2,1.9-11.6,2.1-17.5c-0.3-6,1.3-12.5-2-18c-0.5-5.3-0.3-10.7-0.8-16c-0.6-6,3-11.6,1.8-17.5c-1-6.7-5-12.6-9.9-17.1
		C264.8,337.8,258,336,252.5,332.4z"/>
	<path fill="#919AA0" d="M528,336.2c6.4-2.1,12.9-3.9,19.7-3.8c-5.1,3.1-11,4.9-15.7,8.6c-6.2,4.8-11.1,12-11.7,20
		c-0.5,4.8,2,9.2,2,14c0,6-0.9,12.1-0.4,18.1c0.3,6.4,2,12.5,4.4,18.4c1.9-2.1,3.7-4.4,6.2-5.8c2.6-1.5,5.7-0.9,8.5-0.9
		c0.1-0.7,0.2-2,0.3-2.6c0.4,0.8,0.7,1.7,1.1,2.5c0.2,0,0.7-0.1,0.9-0.1l1.3-0.1c-0.1,0.3-0.4,0.9-0.5,1.3
		c-4.3,0.3-8.9-1.4-12.7,1.4c-4.6,2.2-4.9,7.8-5.6,12.1c-0.7,5.8,4.8,10,4.6,15.7c0.1,5.1,1.2,10.3,4.2,14.4
		c5.1,7.5,14,10.6,22,13.7c0.4,9.9-0.4,19.9-2.8,29.6c-5.8,1.3-12.1,0.9-17.3-2.3c-4.7-2.8-8.3-7.3-10.6-12.2c-1-3.9-0.8-8-2.3-11.8
		c-1.4-4.5-5.3-7.4-8.4-10.7c-4.6-4.9-9.4-9.6-14-14.5c4.4-7.2,9.1-14.4,12.5-22.1c0-4.1-1.7-7.8-2.8-11.7c-2.6-0.1-5.3-0.2-7.9-0.2
		c-0.4,4.2,3.8,7.8,2.1,12c-1.5,3.9-0.9,8.2-0.9,12.3c-0.6,0.7-1.2,1.4-1.8,2.1c-1.8-0.1-3.5-0.4-4.9-1.6c-1,1.8-2,3.5-3,5.3
		c-2.3-1.9-4.7-3.6-7.1-5.4c-0.3,0.6-0.8,1.9-1,2.6c-3.2-1.1-4.3-4.2-4.1-7.3c-2.2-3.3-5.3-5.9-8-8.8c-0.1-0.6-0.4-1.9-0.5-2.5
		c5,1,9.6-1.6,13.4-4.5c0.2-0.4,0.7-1.3,0.9-1.7l0.6-1c-0.9-0.1-2.8-0.1-3.7-0.2c8.2-6.3,13-15.8,15.8-25.6c0.9-3.6,2.1-7.6,0.2-11
		c-2.3-4.5-5.4-8.6-7.1-13.5c3.8,4.1,7.3,8.5,10.4,13.1c3,4.1,0.5,9.2-0.3,13.6c-2.3,9.1-4.5,18.2-7.1,27.2c1.5-1.6,2.7-3.4,4.5-4.7
		c2.8-1.3,6-0.9,9.1-1.1c-0.9-3.2-2.6-6.4-1.9-9.7c1.5-7.3,3.7-14.3,4.8-21.7c0.6-2.4-0.8-4.6-2.1-6.5c-3.5-5.2-7.6-9.9-10.7-15.3
		C508.2,345.3,517.7,339.6,528,336.2 M498.1,431.5c0.5,0.4,1.6,1.2,2.1,1.6c1.1-0.3,2.2-0.6,3.3-0.9c0.1-3.2,0.2-6.4,0.1-9.7
		C501.2,425.1,499.5,428.2,498.1,431.5 M483.9,429.5c-1,1.4,1.2,3.8,2.7,2.8C487.4,430.8,485.3,428.7,483.9,429.5z"/>
	<path fill="#919AA0" d="M297.6,368.7c2.7-3.4,5-7.3,8.5-10c-2,4.6-5,8.8-7.3,13.3c-1.9,3.5-0.6,7.5,0.2,11.1
		c2.7,9.3,7.3,18.4,14.7,24.8c-1,0.4-2.1,0.7-3.1,1.1c0.3,0.3,0.7,0.8,1,1.1c3.6,4.7,9.8,5.9,15.4,6.6c-2.6,3.2-5.6,6-8.4,9.1
		c0.1,0.3,0.4,0.8,0.5,1.1c1.4,0.7,2.9,0.4,4.3,0.6c0.6-0.1,1.7-0.4,2.3-0.5c-0.6,0.5-1.1,1.1-1.7,1.7l-0.2-0.3
		c-2.3-0.1-4.7,0.1-7-0.4c-1.6,1-3,2.2-4.5,3.4c2.4,0.8,4.8,1.6,7.2,2.3c-0.3,0.3-0.8,0.9-1.1,1.1l0.1-1.3c-2.2-0.1-4.5-0.1-6.2-1.7
		c-2.4,1.9-4.7,3.7-7.1,5.5c-2.9-5.6-5.9-11.1-9.5-16.2c-0.8-1.3-1.9-2.5-2.2-4c1.4-3.4,3.3-6.6,4.5-10.2c1,1,2,2,3.1,3
		c0.6,1.1,1.1,2.2,1.7,3.4c-2.4-12.1-6.6-23.9-8.6-36.1C293.4,373.8,295.9,371.1,297.6,368.7z"/>
	<path fill="#919AA0" d="M278.4,395.7c0.4,1,2,1.5,1.5,2.9c-0.6,7.8,0.2,15.6-0.3,23.3c0.1,5.4-4.6,10.5-9.9,10.9
		c0-5.2-0.3-10.7,1.7-15.6c1-2.6,2.3-5.4,1.4-8.2c0.8-3.7,0.6-7.5,0.1-11.3c1.5,3.9,0.5,8.2,0.7,12.3c1.9-0.3,2.1-2.4,2.3-3.8
		C276.3,402.6,276.2,398.7,278.4,395.7z"/>
	<path fill="#919AA0" d="M526.9,415c3.9,3.5,3.3,9.4,3.3,14.2C526,425.8,526.1,419.8,526.9,415z"/>
	<path fill="#919AA0" d="M148.9,446.6c2.9,1.2,5.6,2.6,8.3,4.2c10.5,6.2,22.1,10.3,33.8,13.5l0.4,0.5c-0.3,5.5-1.7,10.8-1.9,16.3
		C173.2,473.5,158.8,461.6,148.9,446.6z"/>
	<path fill="#919AA0" d="M644,450.1c2.2-1.3,4.5-2.3,6.8-3.1c-9.8,14.9-24.2,26.5-40.3,34c-0.2-5.5-1.6-10.8-1.9-16.3l0.4-0.5
		C621.2,461,633.2,456.7,644,450.1z"/>
	<path fill="#919AA0" d="M343.1,459.2c1.7-4.2,3.3-8.5,6.3-11.9c-0.6,3.3-1.6,6.5-2.6,9.8c-5.5,19-9.1,38.7-8.7,58.5
		c-9-12.8-20.5-24-34.5-31.2c-5.3-3-11.1-4.7-16.6-7.3c5.2-0.7,10.3,1.2,15.3,2.5c10.9,3.1,20.4,9.6,29.1,16.6
		C334.2,483.6,338.4,471.3,343.1,459.2z"/>
	<path fill="#919AA0" d="M450.6,447.3c1.9,2.2,3.4,4.8,4.5,7.6c5.6,13.4,10.4,27.1,13.4,41.3c12.1-10.2,26.7-17.9,42.6-19.5
		c0.4,0.1,1.2,0.4,1.6,0.6c-10.8,3.9-21.4,8.8-30.3,16.1c-8.1,6-14.5,14-20.5,22c0.5-21.5-3.8-42.8-10.1-63.2
		C451.3,450.6,450.9,449,450.6,447.3z"/>
	<path fill="#919AA0" d="M344,539.3c0.5-3,1.4-5.9,2.3-8.8c2,15,4,30.7,12.2,43.7c2.6,4.3,6.8,7.2,11.2,9.3
		c-2.6,0.2-5.2,0.3-7.8,0.6c2.1,4.3,4.2,8.7,7.5,12.3c6.8,7.3,16.6,11.5,26.5,12c9.6,0.6,19.8-0.9,27.8-6.5c6.7-4.1,11.1-10.9,14-18
		c-2.6-0.1-5.2-0.2-7.8-0.3c4.4-2.2,8.6-5.1,11.2-9.4c8.3-13,10.3-28.7,12.3-43.7c1,2.9,1.8,5.8,2.4,8.8
		c-0.2,22.5-1.4,45.4-8.8,66.8c-3.7,9.8-9.2,20.2-19.4,24.5c-15.3,6.3-32.9,6.9-48.8,2.4c-7.6-1.9-14.9-6.2-19.1-12.9
		c-9.4-14.3-12.2-31.6-14.2-48.3C344.5,561.1,344.1,550.2,344,539.3 M380.7,617.5c6.6,1.5,13.4,2.8,20.2,2.8
		c6.2-0.4,12.4-1.3,18.4-3c-5.4-0.7-10.9-0.1-16.3-0.2C395.6,617.3,388.1,616.5,380.7,617.5z"/>
</g>
</svg>
