<?xml version="1.0" encoding="UTF-8" ?>
<!DOCTYPE svg PUBLIC "-//W3C//DTD SVG 1.1//EN" "http://www.w3.org/Graphics/SVG/1.1/DTD/svg11.dtd">
<svg width="800" height="800" viewBox="0 0 800 800" version="1.1" xmlns="http://www.w3.org/2000/svg">
    <g transform="scale(1.15) translate(101,70)">
        <g id="#000000ff">
        </g>
        <g id="#ffffffff">
            <path fill="#ffffff" opacity="1.00" d=" M 242.79 83.78 C 267.67 79.63 293.40 80.39 317.83 86.76 C 309.67 88.11 302.31 92.36 296.47 98.15 C 320.68 100.77 344.02 109.48 364.61 122.38 C 384.29 134.75 401.76 150.49 416.79 168.18 C 420.39 172.46 424.07 176.72 427.03 181.49 C 420.01 180.19 412.92 179.22 405.76 179.24 C 420.37 191.76 429.81 208.98 437.98 226.11 C 447.23 245.43 452.93 266.54 453.81 287.98 C 453.96 293.80 453.95 299.66 452.98 305.42 C 447.18 299.69 441.45 293.71 434.25 289.72 C 434.43 294.82 435.20 299.89 435.20 305.00 C 434.36 337.36 421.45 369.53 398.80 392.81 C 396.07 395.52 393.32 398.29 389.98 400.27 C 390.33 399.16 390.74 398.08 391.20 397.03 C 398.77 381.51 405.45 365.50 410.82 349.08 C 415.83 334.26 417.43 318.57 417.98 303.01 C 418.73 290.99 417.61 278.97 417.72 266.94 C 422.63 269.20 427.14 272.22 432.01 274.56 C 431.73 271.81 431.39 269.05 430.63 266.39 C 426.44 251.82 421.84 237.29 415.26 223.60 C 407.03 207.69 395.42 193.81 382.93 181.08 C 379.11 177.20 375.06 173.54 371.60 169.33 C 379.08 168.38 386.63 168.73 394.15 168.45 C 385.62 156.87 374.19 147.91 363.00 139.05 C 346.73 126.57 327.41 118.79 307.70 113.62 C 293.94 110.56 280.00 108.03 265.89 107.40 C 267.34 103.91 268.73 100.22 271.52 97.55 C 273.63 95.54 276.02 93.87 278.22 91.96 C 269.19 91.09 260.15 92.19 251.13 92.50 C 234.51 93.44 218.64 99.26 203.73 106.33 C 202.89 103.17 201.92 100.04 200.81 96.97 C 213.70 89.69 228.31 86.17 242.79 83.78 Z" />
            <path fill="#ffffff" opacity="1.00" d=" M 162.88 110.89 C 169.86 103.59 175.14 94.92 180.24 86.26 C 183.49 93.89 185.21 102.05 187.48 110.00 C 184.85 111.85 182.36 113.87 179.96 116.00 C 172.80 122.54 162.96 125.18 155.96 131.93 C 147.94 140.35 144.22 153.16 148.65 164.25 C 136.09 168.63 122.43 172.05 112.63 181.64 C 106.14 187.34 103.66 196.58 105.13 204.95 C 106.35 211.26 108.25 217.90 113.09 222.45 C 111.21 224.45 109.55 226.93 106.92 227.98 C 104.76 227.54 103.37 225.57 101.79 224.21 C 97.03 219.67 93.19 213.75 92.87 207.01 C 92.27 196.99 92.95 185.74 99.79 177.78 C 107.50 168.10 118.95 162.47 130.23 158.07 C 131.22 157.61 132.85 157.31 132.47 155.82 C 131.68 145.70 135.48 135.59 141.73 127.73 C 147.52 120.58 156.76 117.66 162.88 110.89 Z" />
            <path fill="#ffffff" opacity="1.00" d=" M 131.42 206.38 C 136.07 205.10 139.74 209.38 141.71 213.02 C 137.76 222.80 128.36 229.01 119.09 233.18 C 121.90 227.95 126.05 223.09 126.53 216.94 C 126.94 213.10 127.56 208.31 131.42 206.38 Z" />
            <path fill="#ffffff" opacity="1.00" d=" M 86.31 219.47 C 86.61 219.41 87.21 219.29 87.51 219.23 C 89.67 225.52 92.50 232.10 98.49 235.64 C 100.58 236.82 98.03 238.88 96.95 239.82 C 91.33 242.55 88.10 248.28 85.87 253.86 C 78.96 273.59 83.18 295.34 76.01 315.00 C 72.24 325.54 63.44 333.37 59.63 343.85 C 58.48 346.17 56.32 347.89 55.43 350.37 C 53.55 355.34 53.91 361.37 57.36 365.59 C 58.36 367.41 60.64 368.79 60.80 370.91 C 58.37 375.41 53.25 378.78 48.02 378.42 C 46.75 377.96 45.97 376.79 45.12 375.84 C 39.21 368.42 35.62 359.30 34.35 349.94 C 34.02 348.81 34.27 347.84 35.08 347.03 C 41.73 339.62 47.99 331.85 53.71 323.69 C 59.18 316.10 64.65 308.09 66.44 298.73 C 68.11 289.77 68.43 280.63 69.44 271.58 C 71.29 253.26 77.54 235.58 86.31 219.47 Z" />
            <path fill="#ffffff" opacity="1.00" d=" M 267.54 289.45 C 267.83 289.03 268.40 288.20 268.69 287.79 C 268.90 295.91 269.11 304.05 268.57 312.16 C 268.30 311.55 267.77 310.34 267.51 309.73 C 267.87 302.97 267.77 296.20 267.54 289.45 Z" />
            <path fill="#ffffff" opacity="1.00" d=" M 219.14 297.19 C 222.37 293.94 226.88 292.17 230.51 289.35 C 233.79 294.51 235.19 300.53 236.57 306.41 C 239.59 320.05 241.15 334.02 241.09 348.00 C 241.48 365.60 240.71 383.36 236.69 400.56 C 235.93 403.84 235.71 407.22 235.84 410.59 C 224.52 414.61 212.79 417.72 200.83 418.99 C 213.67 397.20 221.54 372.41 222.53 347.08 C 223.00 334.36 222.47 321.59 220.68 308.99 C 220.21 305.05 219.18 301.17 219.14 297.19 Z" />
            <path fill="#ffffff" opacity="1.00" d=" M 255.02 345.01 C 255.07 339.85 254.94 334.68 255.72 329.56 C 256.63 338.56 256.71 347.70 255.61 356.69 C 253.92 352.99 255.06 348.89 255.02 345.01 Z" />
            <path fill="#ffffff" opacity="1.00" d=" M 254.36 357.09 C 254.67 357.31 255.27 357.75 255.58 357.97 C 255.54 359.31 255.45 360.65 255.32 361.99 C 255.97 360.54 256.61 359.09 257.32 357.67 C 257.53 362.70 255.19 367.24 252.69 371.43 C 253.46 366.68 254.04 361.90 254.36 357.09 Z" />
        </g>
        <g id="#f26b23ff">
            <path fill="#f26b23" opacity="1.00" d=" M 203.73 106.33 C 218.64 99.26 234.51 93.44 251.13 92.50 C 260.15 92.19 269.19 91.09 278.22 91.96 C 276.02 93.87 273.63 95.54 271.52 97.55 C 268.73 100.22 267.34 103.91 265.89 107.40 C 280.00 108.03 293.94 110.56 307.70 113.62 C 327.41 118.79 346.73 126.57 363.00 139.05 C 374.19 147.91 385.62 156.87 394.15 168.45 C 386.63 168.73 379.08 168.38 371.60 169.33 C 375.06 173.54 379.11 177.20 382.93 181.08 C 395.42 193.81 407.03 207.69 415.26 223.60 C 421.84 237.29 426.44 251.82 430.63 266.39 C 431.39 269.05 431.73 271.81 432.01 274.56 C 427.14 272.22 422.63 269.20 417.72 266.94 C 417.61 278.97 418.73 290.99 417.98 303.01 C 417.43 318.57 415.83 334.26 410.82 349.08 C 405.45 365.50 398.77 381.51 391.20 397.03 C 395.37 381.31 399.40 365.36 399.68 349.00 C 401.67 324.16 397.83 299.15 390.72 275.36 C 389.02 269.57 386.24 264.12 385.09 258.16 C 390.74 264.44 396.78 270.43 401.51 277.47 C 404.63 281.71 406.91 286.48 409.70 290.94 C 404.30 262.56 395.49 233.70 376.92 211.01 C 371.74 205.55 366.32 200.32 360.91 195.10 C 344.43 181.54 326.70 169.57 308.33 158.73 C 306.99 157.98 305.96 156.83 305.04 155.64 C 313.77 154.91 322.37 157.29 330.74 159.49 C 337.61 161.15 343.96 164.48 350.88 165.93 C 341.83 157.24 332.34 148.86 321.59 142.31 C 310.63 134.75 298.15 129.71 285.53 125.66 C 277.15 123.47 268.49 122.55 259.91 121.50 C 247.35 119.70 234.63 120.30 221.99 120.29 C 216.05 120.10 210.26 121.61 204.34 121.77 C 204.66 116.62 204.50 111.44 203.73 106.33 Z" />
        </g>
        <g id="#dadbd7ff">
            <path fill="#dadbd7" opacity="1.00" d=" M 187.48 110.00 C 189.03 116.22 189.95 122.61 189.72 129.02 C 189.81 139.26 185.03 148.68 180.03 157.33 C 188.84 153.60 195.09 146.03 201.26 139.05 C 205.04 138.68 208.76 139.97 212.47 140.53 C 249.33 148.15 283.91 165.37 313.48 188.51 C 336.64 206.63 352.36 232.75 361.82 260.29 C 368.18 279.21 372.54 298.98 373.35 318.94 C 365.89 331.32 353.74 340.04 341.35 347.01 C 344.50 330.08 342.82 312.64 338.78 296.02 C 333.27 275.45 323.21 255.95 308.81 240.19 C 306.12 237.15 303.16 234.33 299.88 231.94 C 301.64 236.74 304.20 241.20 305.99 245.99 C 314.68 268.15 319.45 292.26 316.78 316.07 C 314.42 337.22 305.72 357.64 291.70 373.69 C 277.01 390.90 257.06 403.14 235.84 410.59 C 235.71 407.22 235.93 403.84 236.69 400.56 C 240.71 383.36 241.48 365.60 241.09 348.00 C 241.15 334.02 239.59 320.05 236.57 306.41 C 235.19 300.53 233.79 294.51 230.51 289.35 C 233.95 286.95 237.52 284.73 241.09 282.52 C 244.69 287.23 246.92 292.77 248.87 298.32 C 252.41 308.38 255.22 318.88 255.72 329.56 C 254.94 334.68 255.07 339.85 255.02 345.01 C 255.06 348.89 253.92 352.99 255.61 356.69 C 255.76 357.12 256.06 357.98 256.20 358.41 L 255.58 357.97 C 255.27 357.75 254.67 357.31 254.36 357.09 C 254.04 361.90 253.46 366.68 252.69 371.43 C 255.19 367.24 257.53 362.70 257.32 357.67 C 257.72 353.49 259.55 349.62 260.55 345.58 C 264.03 333.88 265.85 321.79 267.51 309.73 C 267.77 310.34 268.30 311.55 268.57 312.16 C 269.11 304.05 268.90 295.91 268.69 287.79 C 268.40 288.20 267.83 289.03 267.54 289.45 C 266.04 278.72 264.73 267.70 259.66 257.95 C 261.44 252.45 263.64 246.94 263.74 241.06 C 263.83 233.82 264.60 226.20 261.62 219.38 C 257.25 208.97 249.28 200.42 240.28 193.79 C 245.84 204.00 250.13 215.21 250.05 227.00 C 250.61 243.45 242.51 259.56 229.95 269.96 C 222.13 276.38 212.43 279.74 203.05 283.15 C 191.30 287.20 179.58 292.01 169.66 299.66 C 159.67 307.26 149.69 315.88 144.57 327.63 C 140.09 338.55 139.19 350.45 137.75 362.05 C 137.01 368.19 134.49 374.61 129.29 378.32 C 125.07 381.48 118.71 381.71 114.44 378.53 C 108.21 374.28 106.37 366.05 106.97 358.94 C 109.10 340.30 118.28 322.88 131.15 309.40 C 119.94 314.10 108.88 320.58 101.63 330.60 C 96.07 338.49 95.05 348.59 95.76 357.98 C 96.26 363.51 97.35 369.50 94.68 374.69 C 90.73 382.86 81.63 387.17 73.02 388.42 C 69.87 385.90 67.60 382.50 65.09 379.38 C 70.14 375.00 73.79 368.79 74.81 362.17 C 73.98 357.40 67.82 358.63 64.29 358.60 C 65.32 353.57 66.60 348.23 64.91 343.20 C 63.15 343.41 61.40 343.66 59.63 343.85 C 63.44 333.37 72.24 325.54 76.01 315.00 C 83.18 295.34 78.96 273.59 85.87 253.86 C 88.10 248.28 91.33 242.55 96.95 239.82 C 93.29 250.16 92.41 261.23 93.27 272.13 C 97.63 262.17 102.20 251.72 110.25 244.15 C 113.36 243.62 116.60 244.53 119.69 243.64 C 127.30 241.60 133.75 236.71 139.43 231.41 C 146.45 224.54 152.98 216.75 156.39 207.42 C 157.79 203.51 158.36 199.19 157.01 195.19 C 154.63 195.49 151.92 195.23 150.00 196.93 C 147.84 198.65 145.91 200.65 143.63 202.20 C 143.29 195.99 142.44 189.23 145.57 183.54 C 147.30 180.09 150.35 177.64 152.97 174.90 C 144.93 176.66 137.12 179.71 130.20 184.18 C 126.32 186.67 123.05 190.42 122.17 195.05 C 119.98 204.42 119.26 214.59 113.09 222.45 C 108.25 217.90 106.35 211.26 105.13 204.95 C 103.66 196.58 106.14 187.34 112.63 181.64 C 122.43 172.05 136.09 168.63 148.65 164.25 C 144.22 153.16 147.94 140.35 155.96 131.93 C 162.96 125.18 172.80 122.54 179.96 116.00 C 182.36 113.87 184.85 111.85 187.48 110.00 Z" />
        </g>
    </g>
        <g id="#0d2340ff" >
            <path id="SVG_LOGO_CONTOURE"  transform="scale(1.15) translate(101,70)" fill="#0d2340" opacity="1.00" d=" M 179.27 56.96 C 184.95 64.84 189.54 73.62 192.42 82.92 C 213.64 72.19 237.43 67.42 261.01 65.89 C 277.03 64.82 293.22 65.26 309.04 68.19 C 325.49 71.42 341.58 76.72 356.46 84.49 C 360.61 86.74 365.08 88.62 368.55 91.92 C 357.41 91.91 345.16 89.55 335.13 95.75 C 357.57 99.91 378.85 109.53 397.56 122.51 C 420.66 138.82 439.03 160.84 454.93 184.02 C 461.36 193.73 467.67 203.56 472.94 213.95 C 463.32 209.49 454.47 203.54 444.88 199.04 C 446.90 202.33 449.47 205.24 451.50 208.53 C 464.05 227.94 470.30 250.72 473.30 273.45 C 476.29 300.31 476.08 327.66 471.31 354.31 C 464.01 349.86 458.01 343.59 450.82 338.97 C 447.88 357.13 441.55 374.89 431.06 390.10 C 418.11 408.98 400.02 423.73 380.63 435.61 C 369.78 442.11 358.79 448.65 346.93 453.14 C 358.64 433.75 366.85 412.36 372.28 390.41 C 375.05 379.52 375.43 368.13 374.36 356.99 C 373.80 355.66 374.36 352.65 372.15 353.14 C 347.50 376.97 320.46 398.53 290.88 415.97 C 272.97 426.98 252.98 434.07 232.71 439.31 C 204.91 446.01 176.46 450.48 147.87 451.53 C 162.90 438.25 175.49 422.05 183.85 403.77 C 190.13 390.43 193.70 375.97 195.73 361.42 C 197.71 348.62 198.49 335.59 197.17 322.69 C 196.60 318.20 196.09 313.63 194.37 309.40 C 180.23 314.82 166.77 324.52 160.70 338.83 C 156.59 350.07 156.11 362.18 155.18 373.99 C 154.51 379.43 153.91 385.15 150.86 389.86 C 148.18 393.97 143.80 396.69 139.14 398.02 C 131.63 400.02 123.76 401.18 115.99 400.18 C 110.63 399.37 105.10 398.80 99.73 399.83 C 92.24 401.70 85.13 405.20 79.30 410.29 C 78.11 411.44 76.69 409.95 75.65 409.34 C 68.35 403.95 60.83 398.87 53.55 393.45 C 49.66 390.20 45.28 395.23 41.11 395.47 C 30.99 387.60 23.89 376.24 19.98 364.11 C 17.57 356.37 15.91 348.23 16.58 340.08 C 26.70 332.67 34.55 322.53 40.58 311.62 C 49.85 293.89 53.39 273.94 56.72 254.41 C 60.84 235.60 67.15 216.05 81.37 202.34 C 82.79 201.29 82.24 199.54 82.22 198.06 C 81.78 191.70 81.38 185.33 81.07 178.97 C 80.64 175.48 84.01 173.37 85.86 170.88 C 94.29 161.05 105.07 153.69 116.25 147.34 C 110.48 147.00 104.82 148.12 99.36 149.92 C 100.65 140.76 102.72 131.53 107.41 123.46 C 113.31 113.54 120.10 104.20 126.70 94.75 C 133.39 85.90 133.79 74.20 133.89 63.56 C 142.73 67.68 152.10 73.44 155.69 83.01 C 149.56 92.01 142.86 100.59 136.06 109.07 C 156.49 98.30 173.12 79.43 179.27 56.96 M 242.79 83.78 C 228.31 86.17 213.70 89.69 200.81 96.97 C 201.92 100.04 202.89 103.17 203.73 106.33 C 204.50 111.44 204.66 116.62 204.34 121.77 C 210.26 121.61 216.05 120.10 221.99 120.29 C 234.63 120.30 247.35 119.70 259.91 121.50 C 268.49 122.55 277.15 123.47 285.53 125.66 C 298.15 129.71 310.63 134.75 321.59 142.31 C 332.34 148.86 341.83 157.24 350.88 165.93 C 343.96 164.48 337.61 161.15 330.74 159.49 C 322.37 157.29 313.77 154.91 305.04 155.64 C 305.96 156.83 306.99 157.98 308.33 158.73 C 326.70 169.57 344.43 181.54 360.91 195.10 C 366.32 200.32 371.74 205.55 376.92 211.01 C 395.49 233.70 404.30 262.56 409.70 290.94 C 406.91 286.48 404.63 281.71 401.51 277.47 C 396.78 270.43 390.74 264.44 385.09 258.16 C 386.24 264.12 389.02 269.57 390.72 275.36 C 397.83 299.15 401.67 324.16 399.68 349.00 C 399.40 365.36 395.37 381.31 391.20 397.03 C 390.74 398.08 390.33 399.16 389.98 400.27 C 393.32 398.29 396.07 395.52 398.80 392.81 C 421.45 369.53 434.36 337.36 435.20 305.00 C 435.20 299.89 434.43 294.82 434.25 289.72 C 441.45 293.71 447.18 299.69 452.98 305.42 C 453.95 299.66 453.96 293.80 453.81 287.98 C 452.93 266.54 447.23 245.43 437.98 226.11 C 429.81 208.98 420.37 191.76 405.76 179.24 C 412.92 179.22 420.01 180.19 427.03 181.49 C 424.07 176.72 420.39 172.46 416.79 168.18 C 401.76 150.49 384.29 134.75 364.61 122.38 C 344.02 109.48 320.68 100.77 296.47 98.15 C 302.31 92.36 309.67 88.11 317.83 86.76 C 293.40 80.39 267.67 79.63 242.79 83.78 M 162.88 110.89 C 156.76 117.66 147.52 120.58 141.73 127.73 C 135.48 135.59 131.68 145.70 132.47 155.82 C 132.85 157.31 131.22 157.61 130.23 158.07 C 118.95 162.47 107.50 168.10 99.79 177.78 C 92.95 185.74 92.27 196.99 92.87 207.01 C 93.19 213.75 97.03 219.67 101.79 224.21 C 103.37 225.57 104.76 227.54 106.92 227.98 C 109.55 226.93 111.21 224.45 113.09 222.45 C 119.26 214.59 119.98 204.42 122.17 195.05 C 123.05 190.42 126.32 186.67 130.20 184.18 C 137.12 179.71 144.93 176.66 152.97 174.90 C 150.35 177.64 147.30 180.09 145.57 183.54 C 142.44 189.23 143.29 195.99 143.63 202.20 C 145.91 200.65 147.84 198.65 150.00 196.93 C 151.92 195.23 154.63 195.49 157.01 195.19 C 158.36 199.19 157.79 203.51 156.39 207.42 C 152.98 216.75 146.45 224.54 139.43 231.41 C 133.75 236.71 127.30 241.60 119.69 243.64 C 116.60 244.53 113.36 243.62 110.25 244.15 C 102.20 251.72 97.63 262.17 93.27 272.13 C 92.41 261.23 93.29 250.16 96.95 239.82 C 98.03 238.88 100.58 236.82 98.49 235.64 C 92.50 232.10 89.67 225.52 87.51 219.23 C 87.21 219.29 86.61 219.41 86.31 219.47 C 77.54 235.58 71.29 253.26 69.44 271.58 C 68.43 280.63 68.11 289.77 66.44 298.73 C 64.65 308.09 59.18 316.10 53.71 323.69 C 47.99 331.85 41.73 339.62 35.08 347.03 C 34.27 347.84 34.02 348.81 34.35 349.94 C 35.62 359.30 39.21 368.42 45.12 375.84 C 45.97 376.79 46.75 377.96 48.02 378.42 C 53.25 378.78 58.37 375.41 60.80 370.91 C 60.64 368.79 58.36 367.41 57.36 365.59 C 53.91 361.37 53.55 355.34 55.43 350.37 C 56.32 347.89 58.48 346.17 59.63 343.85 C 61.40 343.66 63.15 343.41 64.91 343.20 C 66.60 348.23 65.32 353.57 64.29 358.60 C 67.82 358.63 73.98 357.40 74.81 362.17 C 73.79 368.79 70.14 375.00 65.09 379.38 C 67.60 382.50 69.87 385.90 73.02 388.42 C 81.63 387.17 90.73 382.86 94.68 374.69 C 97.35 369.50 96.26 363.51 95.76 357.98 C 95.05 348.59 96.07 338.49 101.63 330.60 C 108.88 320.58 119.94 314.10 131.15 309.40 C 118.28 322.88 109.10 340.30 106.97 358.94 C 106.37 366.05 108.21 374.28 114.44 378.53 C 118.71 381.71 125.07 381.48 129.29 378.32 C 134.49 374.61 137.01 368.19 137.75 362.05 C 139.19 350.45 140.09 338.55 144.57 327.63 C 149.69 315.88 159.67 307.26 169.66 299.66 C 179.58 292.01 191.30 287.20 203.05 283.15 C 212.43 279.74 222.13 276.38 229.95 269.96 C 242.51 259.56 250.61 243.45 250.05 227.00 C 250.13 215.21 245.84 204.00 240.28 193.79 C 249.28 200.42 257.25 208.97 261.62 219.38 C 264.60 226.20 263.83 233.82 263.74 241.06 C 263.64 246.94 261.44 252.45 259.66 257.95 C 264.73 267.70 266.04 278.72 267.54 289.45 C 267.77 296.20 267.87 302.97 267.51 309.73 C 265.85 321.79 264.03 333.88 260.55 345.58 C 259.55 349.62 257.72 353.49 257.32 357.67 C 256.61 359.09 255.97 360.54 255.32 361.99 C 255.45 360.65 255.54 359.31 255.58 357.97 L 256.20 358.41 C 256.06 357.98 255.76 357.12 255.61 356.69 C 256.71 347.70 256.63 338.56 255.72 329.56 C 255.22 318.88 252.41 308.38 248.87 298.32 C 246.92 292.77 244.69 287.23 241.09 282.52 C 237.52 284.73 233.95 286.95 230.51 289.35 C 226.88 292.17 222.37 293.94 219.14 297.19 C 219.18 301.17 220.21 305.05 220.68 308.99 C 222.47 321.59 223.00 334.36 222.53 347.08 C 221.54 372.41 213.67 397.20 200.83 418.99 C 212.79 417.72 224.52 414.61 235.84 410.59 C 257.06 403.14 277.01 390.90 291.70 373.69 C 305.72 357.64 314.42 337.22 316.78 316.07 C 319.45 292.26 314.68 268.15 305.99 245.99 C 304.20 241.20 301.64 236.74 299.88 231.94 C 303.16 234.33 306.12 237.15 308.81 240.19 C 323.21 255.95 333.27 275.45 338.78 296.02 C 342.82 312.64 344.50 330.08 341.35 347.01 C 353.74 340.04 365.89 331.32 373.35 318.94 C 372.54 298.98 368.18 279.21 361.82 260.29 C 352.36 232.75 336.64 206.63 313.48 188.51 C 283.91 165.37 249.33 148.15 212.47 140.53 C 208.76 139.97 205.04 138.68 201.26 139.05 C 195.09 146.03 188.84 153.60 180.03 157.33 C 185.03 148.68 189.81 139.26 189.72 129.02 C 189.95 122.61 189.03 116.22 187.48 110.00 C 185.21 102.05 183.49 93.89 180.24 86.26 C 175.14 94.92 169.86 103.59 162.88 110.89 M 131.42 206.38 C 127.56 208.31 126.94 213.10 126.53 216.94 C 126.05 223.09 121.90 227.95 119.09 233.18 C 128.36 229.01 137.76 222.80 141.71 213.02 C 139.74 209.38 136.07 205.10 131.42 206.38 Z" />
        </g>
</svg>
