<?xml version="1.0" encoding="UTF-8" ?>
<!DOCTYPE svg PUBLIC "-//W3C//DTD SVG 1.1//EN" "http://www.w3.org/Graphics/SVG/1.1/DTD/svg11.dtd">
<svg width="800" height="800" viewBox="0 0 800 800" version="1.1" xmlns="http://www.w3.org/2000/svg">
    <g transform="scale(0.8) translate(270,170)">
        <g id="#ffffffff">
            <path fill="#ffffff" opacity="1.00" d=" M 205.72 145.49 C 219.27 142.70 233.12 141.02 246.96 141.52 C 263.22 141.97 277.35 152.20 287.92 163.79 C 284.45 157.79 281.35 151.47 280.12 144.59 C 297.06 154.03 313.58 164.32 329.30 175.70 C 337.17 181.73 344.99 188.24 350.27 196.75 C 353.63 201.96 354.15 208.38 357.20 213.73 C 359.63 218.50 363.69 222.15 368.00 225.20 C 357.51 222.82 347.54 218.65 337.93 213.90 C 341.36 219.20 346.86 222.51 352.26 225.49 C 340.06 223.58 328.43 218.93 317.39 213.53 C 304.32 207.16 294.23 196.08 281.02 189.97 C 269.16 184.69 256.59 180.94 243.70 179.23 C 233.50 177.88 222.99 176.85 212.86 179.26 C 214.24 181.15 215.64 183.04 217.03 184.94 C 203.53 184.76 189.71 185.77 177.13 191.07 C 170.64 193.41 165.07 197.86 158.30 199.48 C 164.68 192.75 172.73 187.89 180.48 182.90 C 172.27 182.05 164.06 183.38 156.02 184.96 C 170.87 172.07 189.20 163.68 208.37 159.65 C 195.10 156.01 181.13 156.25 167.67 158.67 C 179.49 152.14 192.64 148.50 205.72 145.49 Z" />
            <path fill="#ffffff" opacity="1.00" d=" M 142.15 193.71 C 144.62 192.82 147.23 192.42 149.79 191.89 C 142.58 201.16 136.97 211.98 135.30 223.72 C 150.82 217.84 166.48 212.12 182.74 208.63 C 195.93 205.80 209.57 203.59 223.05 205.55 C 215.01 224.37 211.53 245.48 215.35 265.74 C 216.79 273.79 219.61 281.49 222.95 288.93 C 213.94 284.29 206.70 277.09 199.98 269.65 C 201.73 298.43 210.72 326.30 222.70 352.35 C 204.11 334.80 189.41 312.96 180.42 289.01 C 179.93 289.84 179.44 290.67 178.94 291.49 C 176.46 295.27 174.16 299.19 172.36 303.34 C 150.48 353.29 142.67 409.91 153.59 463.57 C 155.17 472.55 158.16 481.19 159.92 490.12 C 133.05 473.35 113.56 446.81 100.87 418.16 C 97.16 410.16 95.10 401.55 91.85 393.37 C 87.58 401.72 86.16 411.03 84.43 420.13 C 81.53 406.39 82.16 392.18 83.43 378.28 C 86.57 350.32 93.86 322.94 103.76 296.64 C 99.41 297.71 95.02 298.87 91.08 301.07 C 86.61 303.52 82.56 306.64 78.23 309.32 C 81.39 299.23 87.67 290.62 92.16 281.16 C 80.83 281.70 70.06 285.44 59.64 289.62 C 59.78 284.87 62.71 280.86 64.75 276.75 C 72.50 262.18 82.28 248.69 94.03 237.07 C 88.30 236.27 82.50 236.22 76.73 236.44 C 78.78 233.92 80.85 231.42 83.24 229.22 C 100.45 213.79 121.16 203.03 142.15 193.71 Z" />
        </g>
        <g id="#e9c78fff">
        </g>

        <g id="#cc1f4dff">
            <path fill="#cc1f4d" opacity="1.00" d=" M 281.20 26.09 C 282.99 22.38 288.22 22.76 290.98 25.12 C 298.51 31.33 302.92 40.36 306.73 49.14 C 315.37 66.18 318.87 85.29 320.47 104.18 C 327.38 100.48 332.52 94.44 338.10 89.08 C 349.47 77.67 355.73 62.37 366.35 50.36 C 369.31 46.91 375.87 46.33 378.43 50.54 C 382.37 56.08 384.01 62.85 385.15 69.45 C 387.36 81.51 386.62 93.84 386.45 106.03 C 386.49 113.80 383.84 121.23 383.43 128.95 C 388.32 127.99 390.93 123.49 394.57 120.58 C 402.52 114.00 412.51 109.34 422.99 109.45 C 427.72 109.42 432.81 110.43 436.43 113.67 C 437.09 116.15 437.02 119.12 434.76 120.77 C 425.58 129.29 415.29 136.55 406.45 145.45 C 400.71 151.01 395.00 157.30 393.20 165.34 C 390.05 176.05 393.01 187.15 392.47 198.05 C 392.89 205.67 382.56 211.07 376.49 206.48 C 369.07 201.32 363.79 193.85 357.49 187.51 C 352.67 182.67 347.84 177.84 343.09 172.94 C 336.32 165.55 327.55 160.50 319.96 154.04 C 316.69 151.19 312.99 148.91 309.20 146.82 C 303.11 143.43 297.76 138.93 292.16 134.84 C 273.95 121.80 251.33 115.42 229.00 116.21 C 213.52 115.65 198.45 120.53 182.97 119.92 C 178.89 119.76 174.81 119.95 170.76 120.47 C 175.05 124.42 180.76 125.94 186.21 127.51 C 182.94 129.98 179.45 132.14 175.76 133.91 C 167.81 137.76 160.19 142.50 151.60 144.84 C 145.46 146.52 139.17 147.52 132.97 148.88 C 134.90 151.06 137.10 153.11 138.37 155.78 C 136.05 159.24 132.83 161.97 129.83 164.83 C 127.73 166.59 125.62 168.74 122.82 169.22 C 119.68 169.23 116.74 167.88 113.70 167.24 C 108.79 165.91 103.79 167.88 98.82 167.27 C 95.62 166.85 92.30 166.19 89.56 164.39 C 88.01 162.88 87.16 160.83 86.06 159.00 C 91.03 151.78 99.25 147.31 107.94 146.65 C 113.59 146.39 119.26 146.84 124.90 146.31 C 122.63 140.57 117.81 136.43 115.00 130.99 C 111.12 123.93 108.25 115.21 111.17 107.30 C 112.37 103.01 117.37 100.37 121.61 101.67 C 123.96 102.42 126.12 103.67 128.36 104.71 C 134.07 107.52 140.21 109.36 145.88 112.27 C 150.48 114.76 155.46 116.57 160.70 116.99 C 157.76 113.60 153.96 111.20 150.21 108.81 C 146.11 105.86 142.60 101.94 140.47 97.34 C 138.33 92.70 139.30 86.23 144.04 83.58 C 150.47 82.21 156.44 88.08 162.80 85.87 C 168.79 82.38 169.66 74.25 168.02 68.09 C 167.23 64.00 164.40 59.67 166.49 55.55 C 168.44 51.08 172.97 47.71 178.00 48.17 C 183.59 47.57 188.05 51.61 191.54 55.43 C 197.46 62.05 200.11 70.74 205.16 77.92 C 207.99 71.66 207.61 64.69 207.69 58.00 C 207.67 51.65 207.58 45.29 206.76 38.99 C 206.36 35.74 206.55 32.23 208.47 29.47 C 211.20 27.33 214.87 29.07 217.76 30.00 C 226.57 33.03 233.36 39.77 239.39 46.61 C 244.57 53.64 249.10 61.34 251.54 69.78 C 252.62 73.24 253.68 76.70 254.76 80.16 C 263.90 72.76 269.32 61.72 272.82 50.70 C 275.65 42.52 277.10 33.79 281.20 26.09 Z" />
            <path fill="#cc1f4d" opacity="1.00" d=" M 241.33 223.15 C 241.94 223.14 243.16 223.12 243.77 223.10 C 250.77 230.49 258.47 238.23 268.79 240.48 C 274.86 242.57 281.27 239.90 287.38 241.58 C 291.23 242.50 295.01 243.82 298.98 244.14 C 305.23 244.78 311.54 242.55 317.71 244.29 C 313.46 248.22 308.38 251.16 304.32 255.31 C 299.13 260.57 294.17 266.19 290.74 272.79 C 286.33 280.88 283.98 289.93 282.69 299.01 C 282.25 301.20 283.06 303.31 283.83 305.33 C 286.93 300.97 288.76 295.73 292.79 292.05 C 296.52 299.09 299.72 306.78 306.00 312.01 C 310.90 316.04 316.39 320.29 323.00 320.60 C 330.36 320.95 338.04 321.02 344.89 317.91 C 353.98 313.78 363.08 309.09 373.12 307.87 C 378.33 307.35 383.74 305.33 388.84 307.51 C 384.76 312.17 379.97 316.33 376.82 321.73 C 374.30 327.75 375.96 334.66 378.64 340.35 C 384.63 353.48 394.76 364.03 404.86 374.09 C 407.34 376.58 410.33 378.73 412.03 381.89 C 413.42 385.71 415.42 389.65 414.97 393.81 C 411.14 406.06 395.02 412.22 383.79 406.45 C 383.69 402.50 383.20 398.57 382.29 394.73 C 379.44 381.29 371.30 369.02 360.34 360.79 C 364.85 369.97 371.57 378.10 374.04 388.21 C 374.35 389.33 374.53 390.47 374.60 391.63 C 373.96 397.78 373.58 404.50 369.47 409.49 C 363.71 416.80 354.03 419.66 345.05 419.91 C 331.25 420.20 317.41 417.00 305.01 410.95 C 298.34 407.78 292.17 403.19 287.99 397.03 C 282.17 388.18 278.97 377.61 279.11 367.00 C 278.91 359.35 281.03 351.92 281.37 344.31 C 274.56 344.01 267.65 343.61 261.19 341.22 C 264.40 340.08 267.64 339.02 270.89 338.00 C 264.73 328.57 256.63 320.47 251.59 310.32 C 240.85 292.20 234.83 271.10 235.73 249.98 C 235.80 240.76 238.37 231.81 241.33 223.15 M 319.73 321.41 C 324.86 322.50 330.21 322.81 335.34 321.49 C 330.16 320.82 324.92 320.88 319.73 321.41 Z" />
        </g>
        <g id="#73213eff">
            <path fill="#73213e" opacity="1.00" d=" M 150.21 108.81 C 153.96 111.20 157.76 113.60 160.70 116.99 C 155.46 116.57 150.48 114.76 145.88 112.27 C 148.53 112.80 151.16 113.41 153.80 113.99 C 152.58 112.28 151.39 110.55 150.21 108.81 Z" />
        </g>
        <g id="#9e1b49ff">
            <path fill="#9e1b49" opacity="1.00" d=" M 182.97 119.92 C 198.45 120.53 213.52 115.65 229.00 116.21 C 251.33 115.42 273.95 121.80 292.16 134.84 C 297.76 138.93 303.11 143.43 309.20 146.82 C 312.99 148.91 316.69 151.19 319.96 154.04 C 312.43 151.20 306.14 145.91 298.58 143.10 C 290.71 139.41 282.58 136.34 274.37 133.52 C 267.45 130.87 260.00 133.49 252.87 132.10 C 242.13 131.15 231.13 130.86 220.53 133.17 C 214.88 134.26 209.11 134.84 203.59 136.54 C 193.78 139.78 183.70 142.25 174.13 146.16 C 163.79 151.06 153.31 156.04 144.51 163.49 C 152.43 164.14 160.51 163.33 168.26 165.44 C 161.29 169.85 153.54 172.86 145.97 176.06 C 138.65 179.81 132.15 184.92 124.99 188.95 C 120.84 184.48 117.34 179.26 112.15 175.89 C 107.55 172.92 102.36 170.82 96.93 170.01 C 93.02 169.20 88.46 168.57 85.88 165.16 C 84.55 163.27 85.58 160.98 86.06 159.00 C 87.16 160.83 88.01 162.88 89.56 164.39 C 92.30 166.19 95.62 166.85 98.82 167.27 C 103.79 167.88 108.79 165.91 113.70 167.24 C 116.74 167.88 119.68 169.23 122.82 169.22 C 125.62 168.74 127.73 166.59 129.83 164.83 C 132.83 161.97 136.05 159.24 138.37 155.78 C 137.10 153.11 134.90 151.06 132.97 148.88 C 139.17 147.52 145.46 146.52 151.60 144.84 C 160.19 142.50 167.81 137.76 175.76 133.91 C 179.45 132.14 182.94 129.98 186.21 127.51 C 180.76 125.94 175.05 124.42 170.76 120.47 C 174.81 119.95 178.89 119.76 182.97 119.92 Z" />
            <path fill="#9e1b49" opacity="1.00" d=" M 235.87 215.78 C 237.98 212.60 239.25 208.27 243.24 206.97 C 245.59 211.18 247.63 215.60 250.55 219.46 C 254.40 224.30 259.40 228.02 263.94 232.18 C 266.41 234.35 269.26 236.04 272.18 237.56 C 271.64 234.40 270.98 231.28 270.26 228.17 C 272.85 229.45 275.45 230.71 278.03 232.00 C 290.68 239.47 305.55 242.79 320.19 241.62 C 319.78 242.59 319.39 243.57 318.98 244.55 C 318.66 244.48 318.02 244.35 317.71 244.29 C 311.54 242.55 305.23 244.78 298.98 244.14 C 295.01 243.82 291.23 242.50 287.38 241.58 C 281.27 239.90 274.86 242.57 268.79 240.48 C 258.47 238.23 250.77 230.49 243.77 223.10 C 243.16 223.12 241.94 223.14 241.33 223.15 C 238.37 231.81 235.80 240.76 235.73 249.98 C 234.83 271.10 240.85 292.20 251.59 310.32 C 256.63 320.47 264.73 328.57 270.89 338.00 C 267.64 339.02 264.40 340.08 261.19 341.22 C 267.65 343.61 274.56 344.01 281.37 344.31 C 281.03 351.92 278.91 359.35 279.11 367.00 C 278.97 377.61 282.17 388.18 287.99 397.03 C 292.17 403.19 298.34 407.78 305.01 410.95 C 317.41 417.00 331.25 420.20 345.05 419.91 C 354.03 419.66 363.71 416.80 369.47 409.49 C 373.58 404.50 373.96 397.78 374.60 391.63 C 376.99 398.82 375.19 406.82 372.48 413.68 C 368.73 422.92 359.36 427.86 350.60 431.38 C 336.92 435.49 322.16 434.73 308.41 431.32 C 296.77 427.77 285.89 421.37 277.64 412.35 C 266.56 401.29 262.50 384.39 265.32 369.23 C 266.02 364.67 268.37 360.57 269.10 356.02 C 265.75 356.46 263.88 359.57 262.18 362.13 C 259.79 365.79 258.69 370.27 255.65 373.49 C 254.10 374.03 253.69 372.16 252.97 371.23 C 246.38 359.42 238.72 348.14 233.58 335.58 C 229.63 326.00 225.49 316.25 224.15 305.90 C 232.60 314.22 240.28 323.89 251.07 329.31 C 251.31 328.98 251.78 328.33 252.01 328.00 C 247.16 319.91 241.58 312.20 237.55 303.63 C 234.52 296.42 231.20 289.26 229.60 281.56 C 228.43 276.08 226.66 270.69 226.37 265.07 C 225.86 256.63 225.67 248.07 227.01 239.70 C 229.13 231.46 231.21 223.01 235.87 215.78 Z" />
        </g>
        <g id="#622445ff">
            <path fill="#622445" opacity="1.00" d=" M 252.87 132.10 C 260.00 133.49 267.45 130.87 274.37 133.52 C 270.62 132.89 267.18 134.26 263.88 135.84 C 259.95 135.67 256.45 133.52 252.87 132.10 Z" />
        </g>
        <g id="#d8dadaff">
            <path fill="#d8dada" opacity="1.00" d=" M 212.86 179.26 C 222.99 176.85 233.50 177.88 243.70 179.23 C 256.59 180.94 269.16 184.69 281.02 189.97 C 294.23 196.08 304.32 207.16 317.39 213.53 C 328.43 218.93 340.06 223.58 352.26 225.49 C 353.95 225.83 355.54 226.52 357.14 227.16 C 339.94 227.80 322.51 223.88 307.43 215.54 C 300.54 211.66 294.88 206.00 288.15 201.87 C 270.53 191.14 250.29 184.87 229.78 183.07 C 234.67 186.45 239.58 189.98 243.16 194.82 C 229.12 191.07 214.47 189.57 199.98 191.03 C 182.61 192.61 165.84 198.35 150.61 206.73 C 152.94 204.13 155.12 201.07 158.30 199.48 C 165.07 197.86 170.64 193.41 177.13 191.07 C 189.71 185.77 203.53 184.76 217.03 184.94 C 215.64 183.04 214.24 181.15 212.86 179.26 Z" />
        </g>
        <g id="#d9d9d7ff">
            <path fill="#d9d9d7" opacity="1.00" d=" M 121.85 199.82 C 128.50 197.44 135.17 194.93 142.15 193.71 C 121.16 203.03 100.45 213.79 83.24 229.22 C 80.85 231.42 78.78 233.92 76.73 236.44 C 82.50 236.22 88.30 236.27 94.03 237.07 C 82.28 248.69 72.50 262.18 64.75 276.75 C 62.71 280.86 59.78 284.87 59.64 289.62 C 70.06 285.44 80.83 281.70 92.16 281.16 C 87.67 290.62 81.39 299.23 78.23 309.32 C 82.56 306.64 86.61 303.52 91.08 301.07 C 95.02 298.87 99.41 297.71 103.76 296.64 C 93.86 322.94 86.57 350.32 83.43 378.28 C 82.16 392.18 81.53 406.39 84.43 420.13 C 86.16 411.03 87.58 401.72 91.85 393.37 C 95.10 401.55 97.16 410.16 100.87 418.16 C 113.56 446.81 133.05 473.35 159.92 490.12 C 158.16 481.19 155.17 472.55 153.59 463.57 C 142.67 409.91 150.48 353.29 172.36 303.34 C 174.16 299.19 176.46 295.27 178.94 291.49 C 178.87 293.15 178.77 294.81 178.57 296.47 C 172.74 337.13 175.66 378.80 185.12 418.69 C 192.62 450.32 204.99 480.65 220.66 509.09 C 221.13 498.56 222.34 488.01 225.65 477.96 C 233.22 512.28 247.26 545.86 270.14 572.86 C 273.73 577.21 278.11 580.85 281.61 585.29 C 244.71 576.42 209.03 562.05 176.52 542.43 C 157.34 530.52 139.08 516.90 123.46 500.54 C 118.65 495.96 114.72 490.60 110.17 485.79 C 113.88 505.22 123.61 522.96 135.90 538.27 C 119.89 529.71 105.50 518.10 93.47 504.52 C 74.57 483.15 63.58 455.35 61.47 426.98 C 58.58 390.80 67.50 354.61 82.10 321.69 C 68.88 334.86 59.60 351.42 52.21 368.40 C 54.44 344.91 62.47 322.44 71.19 300.66 C 67.47 304.52 64.44 308.96 61.33 313.31 C 43.34 339.70 30.89 369.52 22.31 400.20 C 20.98 370.73 24.47 340.92 33.86 312.90 C 41.58 289.59 53.42 267.51 69.55 248.93 C 59.60 250.32 50.59 255.09 42.01 260.05 C 61.32 232.15 90.28 211.70 121.85 199.82 Z" />
            <path fill="#d9d9d7" opacity="1.00" d=" M 381.12 431.88 C 397.77 450.79 402.49 478.09 397.09 502.28 C 395.52 497.93 393.82 493.54 390.68 490.05 C 387.29 501.17 383.26 512.16 377.14 522.10 C 367.33 538.42 354.03 552.56 338.46 563.50 C 325.23 572.98 310.32 579.85 295.06 585.37 C 294.91 585.25 294.60 585.00 294.44 584.87 C 306.43 573.78 316.38 560.66 324.54 546.55 C 336.81 525.25 345.16 501.89 350.59 477.96 C 353.60 488.07 355.16 498.54 355.42 509.08 C 371.88 486.84 378.97 459.10 381.12 431.88 Z" />
        </g>
        <g id="#fafcfbff">
            <path fill="#fafcfb" opacity="1.00" d=" M 280.21 208.17 C 289.27 210.00 295.67 216.99 303.26 221.63 C 297.89 222.28 291.74 223.33 287.04 219.93 C 283.05 217.31 280.91 212.77 280.21 208.17 Z" />
        </g>
        <g id="#612f4eff">
            <path fill="#612f4e" opacity="1.00" d=" M 266.86 223.65 C 271.41 225.15 274.85 228.57 278.03 232.00 C 275.45 230.71 272.85 229.45 270.26 228.17 C 270.98 231.28 271.64 234.40 272.18 237.56 C 269.26 236.04 266.41 234.35 263.94 232.18 C 265.91 232.58 267.89 232.98 269.87 233.39 C 268.71 230.19 267.63 226.96 266.86 223.65 Z" />
        </g>
        <g id="#edc789ff">
            <path fill="#edc789" opacity="1.00" d=" M 358.62 234.69 C 370.49 231.88 382.89 235.36 393.63 240.49 C 406.18 246.32 415.50 257.66 420.75 270.26 C 424.53 279.37 424.80 289.79 421.51 299.08 C 413.14 291.78 403.93 285.04 393.15 281.81 C 379.26 277.30 364.28 277.75 350.04 280.18 C 342.69 281.30 335.48 283.24 328.07 283.91 C 318.26 284.92 308.39 284.21 298.61 283.28 C 301.98 276.77 306.99 271.29 311.86 265.87 C 324.63 252.01 340.10 239.59 358.62 234.69 M 363.37 238.21 C 364.17 239.46 364.59 241.36 366.36 241.55 C 370.24 242.38 374.23 241.41 378.09 240.88 C 373.41 239.08 368.44 237.68 363.37 238.21 Z" />
        </g>
        <g id="#2f2022ff">
            <path fill="#2f2022" opacity="1.00" d=" M 363.37 238.21 C 368.44 237.68 373.41 239.08 378.09 240.88 C 374.23 241.41 370.24 242.38 366.36 241.55 C 364.59 241.36 364.17 239.46 363.37 238.21 Z" />
        </g>
        <g id="#ebc78aff">
            <path fill="#ebc78a" opacity="1.00" d=" M 359.64 286.69 C 374.79 285.67 391.67 286.56 403.93 296.62 C 387.45 294.05 370.46 295.40 354.59 300.54 C 345.63 303.35 336.63 307.34 327.02 306.44 C 317.16 306.56 308.63 299.67 304.02 291.40 C 312.13 291.87 320.27 292.21 328.38 291.45 C 338.90 290.50 349.06 287.21 359.64 286.69 Z" />
        </g>
        <g id="#9b3253ff">
            <path fill="#9b3253" opacity="1.00" d=" M 319.73 321.41 C 324.92 320.88 330.16 320.82 335.34 321.49 C 330.21 322.81 324.86 322.50 319.73 321.41 Z" />
        </g>
        <g id="#611830ff">
            <path fill="#611830" opacity="1.00" d=" M 360.34 360.79 C 371.30 369.02 379.44 381.29 382.29 394.73 C 378.48 387.80 376.77 379.63 370.96 373.90 C 371.86 378.70 373.69 383.30 374.04 388.21 C 371.57 378.10 364.85 369.97 360.34 360.79 Z" />
        </g>
        <g id="#9e1a48ff">
            <path fill="#9e1a48" opacity="1.00" d=" M 412.03 381.89 C 417.45 386.02 417.12 393.53 416.32 399.59 C 414.60 406.11 409.72 411.50 403.98 414.86 C 397.44 418.67 390.20 421.39 382.65 422.23 C 383.28 416.99 383.92 411.74 383.79 406.45 C 395.02 412.22 411.14 406.06 414.97 393.81 C 415.42 389.65 413.42 385.71 412.03 381.89 Z" />
        </g>
        <g id="#fffdddff">
            <path fill="#fffddd" opacity="1.00" d=" M 242.71 609.74 C 250.03 610.35 257.35 611.05 264.64 612.00 L 244.82 612.00 C 244.29 611.43 243.23 610.30 242.71 609.74 Z" />
        </g>
    </g>

    <g id="#18293cff" >
        <path id="SVG_LOGO_CONTOURE" transform="scale(0.8) translate(270,170)" fill="#18293c" opacity="1.00" d=" M 265.43 17.41 C 269.06 11.53 275.15 7.11 282.04 6.05 C 289.94 4.74 298.05 7.84 303.96 13.05 C 313.37 21.20 319.30 32.48 324.42 43.63 C 327.96 50.95 330.13 58.81 332.95 66.41 C 340.56 56.51 345.52 44.38 355.41 36.36 C 361.23 31.36 369.24 29.24 376.81 30.38 C 386.25 31.66 393.95 38.87 397.58 47.43 C 404.06 62.29 405.14 78.79 405.36 94.79 C 414.44 91.87 424.29 90.92 433.62 93.28 C 441.22 95.11 448.78 99.12 452.97 105.96 C 456.64 111.73 456.72 119.46 453.49 125.43 C 451.04 130.40 446.93 134.24 442.74 137.73 C 434.53 144.49 425.94 150.85 418.47 158.45 C 415.20 161.66 411.78 165.18 410.85 169.84 C 408.45 182.48 413.86 195.70 409.08 208.03 C 406.89 214.36 401.51 218.71 396.02 222.13 C 406.95 227.06 417.46 233.47 425.38 242.62 C 435.51 254.53 440.88 270.44 439.62 286.07 C 438.55 300.15 432.74 313.73 423.91 324.70 C 420.50 322.26 417.34 319.50 413.97 317.03 C 411.71 315.25 408.70 315.26 406.02 314.64 C 402.66 319.76 397.97 323.76 393.81 328.19 C 398.13 342.47 408.90 353.52 419.49 363.51 C 427.19 370.00 433.42 378.83 434.87 388.99 C 437.03 401.35 431.77 414.26 422.60 422.60 C 417.69 427.63 411.48 431.05 405.14 433.95 C 408.81 441.58 412.58 449.25 414.59 457.53 C 420.08 477.60 416.53 499.03 409.08 518.11 C 406.31 524.74 403.60 531.48 399.51 537.43 C 398.82 533.59 398.24 529.50 395.44 526.55 C 390.53 536.71 382.74 545.00 375.33 553.37 C 357.00 572.79 334.69 588.46 310.23 599.19 C 302.42 602.25 294.64 606.43 286.02 606.21 C 242.19 606.57 197.98 598.79 157.68 581.29 C 122.23 565.94 90.19 541.98 67.30 510.70 C 49.21 486.45 36.95 458.27 29.27 429.11 C 24.39 432.32 20.56 436.76 17.17 441.46 C 7.46 415.56 5.51 387.29 7.88 359.91 C 10.23 333.04 17.67 306.87 27.86 281.98 C 20.76 286.32 13.85 290.97 6.96 295.64 C 10.46 282.78 16.46 270.74 23.32 259.37 C 39.24 233.62 61.89 212.33 87.83 196.88 C 91.87 194.46 96.03 192.27 100.08 189.88 C 92.45 186.21 83.56 185.48 76.55 180.48 C 70.79 176.62 66.76 170.03 66.81 163.00 C 66.80 154.63 71.63 147.10 77.46 141.45 C 82.29 136.64 88.61 133.75 94.98 131.59 C 92.02 123.06 90.32 113.75 92.70 104.87 C 94.75 95.93 101.61 88.12 110.44 85.44 C 114.13 84.23 118.04 84.11 121.88 83.90 C 124.30 78.17 127.74 72.54 133.25 69.32 C 137.63 66.56 142.86 65.82 147.94 65.64 C 147.01 59.46 147.17 52.88 150.23 47.26 C 154.50 38.46 163.72 33.11 173.06 31.28 C 178.10 30.23 183.22 31.12 188.22 31.92 C 189.09 25.79 191.56 19.49 196.62 15.63 C 203.36 10.30 212.89 9.34 220.84 12.29 C 235.61 16.99 247.76 27.39 257.09 39.51 C 259.82 32.13 261.17 24.14 265.43 17.41 M 281.20 26.09 C 277.10 33.79 275.65 42.52 272.82 50.70 C 269.32 61.72 263.90 72.76 254.76 80.16 C 253.68 76.70 252.62 73.24 251.54 69.78 C 249.10 61.34 244.57 53.64 239.39 46.61 C 233.36 39.77 226.57 33.03 217.76 30.00 C 214.87 29.07 211.20 27.33 208.47 29.47 C 206.55 32.23 206.36 35.74 206.76 38.99 C 207.58 45.29 207.67 51.65 207.69 58.00 C 207.61 64.69 207.99 71.66 205.16 77.92 C 200.11 70.74 197.46 62.05 191.54 55.43 C 188.05 51.61 183.59 47.57 178.00 48.17 C 172.97 47.71 168.44 51.08 166.49 55.55 C 164.40 59.67 167.23 64.00 168.02 68.09 C 169.66 74.25 168.79 82.38 162.80 85.87 C 156.44 88.08 150.47 82.21 144.04 83.58 C 139.30 86.23 138.33 92.70 140.47 97.34 C 142.60 101.94 146.11 105.86 150.21 108.81 C 151.39 110.55 152.58 112.28 153.80 113.99 C 151.16 113.41 148.53 112.80 145.88 112.27 C 140.21 109.36 134.07 107.52 128.36 104.71 C 126.12 103.67 123.96 102.42 121.61 101.67 C 117.37 100.37 112.37 103.01 111.17 107.30 C 108.25 115.21 111.12 123.93 115.00 130.99 C 117.81 136.43 122.63 140.57 124.90 146.31 C 119.26 146.84 113.59 146.39 107.94 146.65 C 99.25 147.31 91.03 151.78 86.06 159.00 C 85.58 160.98 84.55 163.27 85.88 165.16 C 88.46 168.57 93.02 169.20 96.93 170.01 C 102.36 170.82 107.55 172.92 112.15 175.89 C 117.34 179.26 120.84 184.48 124.99 188.95 C 132.15 184.92 138.65 179.81 145.97 176.06 C 153.54 172.86 161.29 169.85 168.26 165.44 C 160.51 163.33 152.43 164.14 144.51 163.49 C 153.31 156.04 163.79 151.06 174.13 146.16 C 183.70 142.25 193.78 139.78 203.59 136.54 C 209.11 134.84 214.88 134.26 220.53 133.17 C 231.13 130.86 242.13 131.15 252.87 132.10 C 256.45 133.52 259.95 135.67 263.88 135.84 C 267.18 134.26 270.62 132.89 274.37 133.52 C 282.58 136.34 290.71 139.41 298.58 143.10 C 306.14 145.91 312.43 151.20 319.96 154.04 C 327.55 160.50 336.32 165.55 343.09 172.94 C 347.84 177.84 352.67 182.67 357.49 187.51 C 363.79 193.85 369.07 201.32 376.49 206.48 C 382.56 211.07 392.89 205.67 392.47 198.05 C 393.01 187.15 390.05 176.05 393.20 165.34 C 395.00 157.30 400.71 151.01 406.45 145.45 C 415.29 136.55 425.58 129.29 434.76 120.77 C 437.02 119.12 437.09 116.15 436.43 113.67 C 432.81 110.43 427.72 109.42 422.99 109.45 C 412.51 109.34 402.52 114.00 394.57 120.58 C 390.93 123.49 388.32 127.99 383.43 128.95 C 383.84 121.23 386.49 113.80 386.45 106.03 C 386.62 93.84 387.36 81.51 385.15 69.45 C 384.01 62.85 382.37 56.08 378.43 50.54 C 375.87 46.33 369.31 46.91 366.35 50.36 C 355.73 62.37 349.47 77.67 338.10 89.08 C 332.52 94.44 327.38 100.48 320.47 104.18 C 318.87 85.29 315.37 66.18 306.73 49.14 C 302.92 40.36 298.51 31.33 290.98 25.12 C 288.22 22.76 282.99 22.38 281.20 26.09 M 205.72 145.49 C 192.64 148.50 179.49 152.14 167.67 158.67 C 181.13 156.25 195.10 156.01 208.37 159.65 C 189.20 163.68 170.87 172.07 156.02 184.96 C 164.06 183.38 172.27 182.05 180.48 182.90 C 172.73 187.89 164.68 192.75 158.30 199.48 C 155.12 201.07 152.94 204.13 150.61 206.73 C 165.84 198.35 182.61 192.61 199.98 191.03 C 214.47 189.57 229.12 191.07 243.16 194.82 C 239.58 189.98 234.67 186.45 229.78 183.07 C 250.29 184.87 270.53 191.14 288.15 201.87 C 294.88 206.00 300.54 211.66 307.43 215.54 C 322.51 223.88 339.94 227.80 357.14 227.16 C 355.54 226.52 353.95 225.83 352.26 225.49 C 346.86 222.51 341.36 219.20 337.93 213.90 C 347.54 218.65 357.51 222.82 368.00 225.20 C 363.69 222.15 359.63 218.50 357.20 213.73 C 354.15 208.38 353.63 201.96 350.27 196.75 C 344.99 188.24 337.17 181.73 329.30 175.70 C 313.58 164.32 297.06 154.03 280.12 144.59 C 281.35 151.47 284.45 157.79 287.92 163.79 C 277.35 152.20 263.22 141.97 246.96 141.52 C 233.12 141.02 219.27 142.70 205.72 145.49 M 142.15 193.71 C 135.17 194.93 128.50 197.44 121.85 199.82 C 90.28 211.70 61.32 232.15 42.01 260.05 C 50.59 255.09 59.60 250.32 69.55 248.93 C 53.42 267.51 41.58 289.59 33.86 312.90 C 24.47 340.92 20.98 370.73 22.31 400.20 C 30.89 369.52 43.34 339.70 61.33 313.31 C 64.44 308.96 67.47 304.52 71.19 300.66 C 62.47 322.44 54.44 344.91 52.21 368.40 C 59.60 351.42 68.88 334.86 82.10 321.69 C 67.50 354.61 58.58 390.80 61.47 426.98 C 63.58 455.35 74.57 483.15 93.47 504.52 C 105.50 518.10 119.89 529.71 135.90 538.27 C 123.61 522.96 113.88 505.22 110.17 485.79 C 114.72 490.60 118.65 495.96 123.46 500.54 C 139.08 516.90 157.34 530.52 176.52 542.43 C 209.03 562.05 244.71 576.42 281.61 585.29 C 278.11 580.85 273.73 577.21 270.14 572.86 C 247.26 545.86 233.22 512.28 225.65 477.96 C 222.34 488.01 221.13 498.56 220.66 509.09 C 204.99 480.65 192.62 450.32 185.12 418.69 C 175.66 378.80 172.74 337.13 178.57 296.47 C 178.77 294.81 178.87 293.15 178.94 291.49 C 179.44 290.67 179.93 289.84 180.42 289.01 C 189.41 312.96 204.11 334.80 222.70 352.35 C 210.72 326.30 201.73 298.43 199.98 269.65 C 206.70 277.09 213.94 284.29 222.95 288.93 C 219.61 281.49 216.79 273.79 215.35 265.74 C 211.53 245.48 215.01 224.37 223.05 205.55 C 209.57 203.59 195.93 205.80 182.74 208.63 C 166.48 212.12 150.82 217.84 135.30 223.72 C 136.97 211.98 142.58 201.16 149.79 191.89 C 147.23 192.42 144.62 192.82 142.15 193.71 M 235.87 215.78 C 231.21 223.01 229.13 231.46 227.01 239.70 C 225.67 248.07 225.86 256.63 226.37 265.07 C 226.66 270.69 228.43 276.08 229.60 281.56 C 231.20 289.26 234.52 296.42 237.55 303.63 C 241.58 312.20 247.16 319.91 252.01 328.00 C 251.78 328.33 251.31 328.98 251.07 329.31 C 240.28 323.89 232.60 314.22 224.15 305.90 C 225.49 316.25 229.63 326.00 233.58 335.58 C 238.72 348.14 246.38 359.42 252.97 371.23 C 253.69 372.16 254.10 374.03 255.65 373.49 C 258.69 370.27 259.79 365.79 262.18 362.13 C 263.88 359.57 265.75 356.46 269.10 356.02 C 268.37 360.57 266.02 364.67 265.32 369.23 C 262.50 384.39 266.56 401.29 277.64 412.35 C 285.89 421.37 296.77 427.77 308.41 431.32 C 322.16 434.73 336.92 435.49 350.60 431.38 C 359.36 427.86 368.73 422.92 372.48 413.68 C 375.19 406.82 376.99 398.82 374.60 391.63 C 374.53 390.47 374.35 389.33 374.04 388.21 C 373.69 383.30 371.86 378.70 370.96 373.90 C 376.77 379.63 378.48 387.80 382.29 394.73 C 383.20 398.57 383.69 402.50 383.79 406.45 C 383.92 411.74 383.28 416.99 382.65 422.23 C 390.20 421.39 397.44 418.67 403.98 414.86 C 409.72 411.50 414.60 406.11 416.32 399.59 C 417.12 393.53 417.45 386.02 412.03 381.89 C 410.33 378.73 407.34 376.58 404.86 374.09 C 394.76 364.03 384.63 353.48 378.64 340.35 C 375.96 334.66 374.30 327.75 376.82 321.73 C 379.97 316.33 384.76 312.17 388.84 307.51 C 383.74 305.33 378.33 307.35 373.12 307.87 C 363.08 309.09 353.98 313.78 344.89 317.91 C 338.04 321.02 330.36 320.95 323.00 320.60 C 316.39 320.29 310.90 316.04 306.00 312.01 C 299.72 306.78 296.52 299.09 292.79 292.05 C 288.76 295.73 286.93 300.97 283.83 305.33 C 283.06 303.31 282.25 301.20 282.69 299.01 C 283.98 289.93 286.33 280.88 290.74 272.79 C 294.17 266.19 299.13 260.57 304.32 255.31 C 308.38 251.16 313.46 248.22 317.71 244.29 C 318.02 244.35 318.66 244.48 318.98 244.55 C 319.39 243.57 319.78 242.59 320.19 241.62 C 305.55 242.79 290.68 239.47 278.03 232.00 C 274.85 228.57 271.41 225.15 266.86 223.65 C 267.63 226.96 268.71 230.19 269.87 233.39 C 267.89 232.98 265.91 232.58 263.94 232.18 C 259.40 228.02 254.40 224.30 250.55 219.46 C 247.63 215.60 245.59 211.18 243.24 206.97 C 239.25 208.27 237.98 212.60 235.87 215.78 M 280.21 208.17 C 280.91 212.77 283.05 217.31 287.04 219.93 C 291.74 223.33 297.89 222.28 303.26 221.63 C 295.67 216.99 289.27 210.00 280.21 208.17 M 358.62 234.69 C 340.10 239.59 324.63 252.01 311.86 265.87 C 306.99 271.29 301.98 276.77 298.61 283.28 C 308.39 284.21 318.26 284.92 328.07 283.91 C 335.48 283.24 342.69 281.30 350.04 280.18 C 364.28 277.75 379.26 277.30 393.15 281.81 C 403.93 285.04 413.14 291.78 421.51 299.08 C 424.80 289.79 424.53 279.37 420.75 270.26 C 415.50 257.66 406.18 246.32 393.63 240.49 C 382.89 235.36 370.49 231.88 358.62 234.69 M 359.64 286.69 C 349.06 287.21 338.90 290.50 328.38 291.45 C 320.27 292.21 312.13 291.87 304.02 291.40 C 308.63 299.67 317.16 306.56 327.02 306.44 C 336.63 307.34 345.63 303.35 354.59 300.54 C 370.46 295.40 387.45 294.05 403.93 296.62 C 391.67 286.56 374.79 285.67 359.64 286.69 M 381.12 431.88 C 378.97 459.10 371.88 486.84 355.42 509.08 C 355.16 498.54 353.60 488.07 350.59 477.96 C 345.16 501.89 336.81 525.25 324.54 546.55 C 316.38 560.66 306.43 573.78 294.44 584.87 C 294.60 585.00 294.91 585.25 295.06 585.37 C 310.32 579.85 325.23 572.98 338.46 563.50 C 354.03 552.56 367.33 538.42 377.14 522.10 C 383.26 512.16 387.29 501.17 390.68 490.05 C 393.82 493.54 395.52 497.93 397.09 502.28 C 402.49 478.09 397.77 450.79 381.12 431.88 Z" />
    </g>

</svg>
