<?xml version="1.0" encoding="utf-8"?>
<!-- Generator: Adobe Illustrator 22.0.1, SVG Export Plug-In . SVG Version: 6.00 Build 0)  -->
<svg version="1.1" id="Layer_1" xmlns="http://www.w3.org/2000/svg" xmlns:xlink="http://www.w3.org/1999/xlink" x="0px" y="0px"
	 viewBox="0 0 800 800" enable-background="new 0 0 800 800" xml:space="preserve">

	<path id="OUTLINE"  fill="#AEB8BC" d="M444.6,0C392.1,5.4,330.6-11.8,286,23
		c-38.1,27.6-54.5,74.9-51.2,118.7c-16.2,32-16.3,72,6.1,101.5c5.6,15.3,12.6,30.2,18.6,45.4c-40.6,31.6-55.4,81.4-89.5,118.1
		c-25.6,36.8-25.3,96.9,19.8,120.4c10.5,5.8,22.2,9.2,33.9,11.3c-5.7,46.7-57.2,67.4-89.2,96.5c-32.1,28.5-46.4,77.7-20.5,113.9
		c28.1,45.9,95.6,65.1,145.8,40.8c15.3-3,33.8-17.4,47.2-3c29.2,16.8,68.3,11.5,94.8-7.5c26.4,25.9,73.8,26.1,100.8,1.2
		c20,0.2,37.7,12.9,57.9,14.9c45.1,11.3,100-0.7,124.3-40.9c27.5-40.3,19.3-102.2-26.9-127.3c-30.9-23.4-75.6-47.8-78.1-88.5
		c55.6-5.8,91.3-72.8,59.9-117.3c-12.9-29.6-42.6-52-53.1-81.6c12.9-18.4,3.4-43.6,22.8-58.9c27.1-31.7,63.1-71.6,47.9-115.4
		c-13.4-32.4-56.4-47.1-90.7-37.9c1.5-41.1-16.5-83.3-53.7-106.6C493.3,7.4,469.1-0.4,444.6,0L444.6,0z"/>
	<path id="path22194"  fill="#C5CBCD" d="M347.8,15.2c-62,0.4-106.4,63.8-94.1,118.4
		c-3,17-17.6,31.6-14.5,50.3c-0.6,17.9,10.5,33.5,19.3,47.8c3.3,21.1,13.4,41.2,28.3,57.3c-28,7.5-43.4,31.9-55.5,54.6
		c-22.8,35.4-54.9,68.4-64.3,109.6c-1.9,35,35.1,64.4,71.6,57.7c3.3,5.9,0.1,21.5-0.4,30.6c-4.9,41.6-47.3,64.1-77.6,89
		c-24.8,18.7-52.4,45.9-42.4,78.5c10.1,46,68.4,79.1,115.1,57.1c22.3-4.4,44.3-14,66.7-15.1c22.6,29.9,74.6,22.2,93.1-7.8
		c5.4-5.2,12.2,10.2,18.2,12.9c13.6,15.3,36.9,21.3,55.6,10.5c10.6-2.6,19.2-11.4,26.8-16.5c41.1,8,85.2,32.8,127.7,17.2
		c45.8-17.5,71.3-80.7,33.5-116.3c-34.3-33.1-89.5-53.9-101-102.6c-0.8-11.3-6-29.3,1.3-36.1c36,1.9,75.9-28.3,66.7-64.1
		c-7.2-41.7-45.8-69-62.8-106.6c-4.8-5.2-9.5-10.3-0.7-14.5c8.7-11,10.6-25.9,7.1-38.6c24.1-36.1,63.9-67.7,69.2-112.1
		c-6.4-37.4-64.7-49.2-89.8-22.6c-14.4-17.7-1-41.6-9.5-61.7c-8.7-43.2-51.1-81-99.7-76.5C406.4,15.4,377,17.1,347.8,15.2
		L347.8,15.2z"/>
	
		<path id="path22977"  fill="#FFE381" d="
		M427.7,36.2c-34.7,4.2-71.2-5.3-104.9,4.7c-40.6,15.9-56.1,63.1-45.9,101c-0.3,12.7-16.3,19.6-15.4,33.5
		c-2.4,16,4.5,33.1,17.7,43.4c1.1,33.6,23.9,65.6,56.4,79.5c-19.8,6.9-42.9,7.9-60.5,19.1c-28.3,41-57.5,81.8-83.6,123.9
		c-8.4,20.6,5.9,50.6,32.5,47.5c12.1,3.6,37.5-2.1,37.8,15.1c-2.8,28.9,3.3,64.4-23.3,86.3c-26.4,34-68,54.7-96.2,86.5
		c-18.3,41.6,35.6,91.9,79.3,70.6c30.8-7.3,62.8-15.8,92.9-22.4c-4.6,19.9,24.8,30,40.5,22.2c14.9-9.3,27.9-26.3,40.6-34.1
		c14.3,13.7,29.6,26.5,44.9,39.2c14.1-3.9,41.8-8.2,34.8-28.1c18,3.6,39.1,12.6,59.3,14.1c28.9,9.2,66.1,24.3,92.4,1.1
		c26.8-18.6,35.1-63.6,2.5-81.1c-38.9-31.4-92.5-60.1-99.6-112.4c1.9-16.7-3.5-39,2.1-52.9c23.7-2.6,60.4,0.6,67.2-27.9
		c7-34.5-29-57.7-42.5-86c-12.5-19.5-25.1-39.8-39.5-57.7c21.2,8.8,35.9-20.1,21.9-33.1C562,253,595.9,221.2,612.7,183
		c-2.7-26.4-50.1-32.9-56.1-4.9c-17.2,22.7-36.3,48.7-52.4,69.4c6.9-13.2,1.7-29.8,15.8-38.7c15-18.7,8.6-46-6.4-61.7
		c7.2-37.8-1.8-84.9-41.2-104.1C458.5,36.8,442.8,36,427.7,36.2L427.7,36.2z"/>
	<g id="g21320" transform="translate(2.078125e-4,28.039744)">
		<g id="g19862" transform="matrix(-0.87506333,-0.48400844,0.48400844,-0.87506333,4330.0561,2779.1236)">
			<path id="path19864"   fill="#596C7A" d="M4554,351.5l-19.1,136.2
				c2,5.5,15.6,7.1,23,0.7l18.9-135.1L4554,351.5z"/>
			<path id="path19866"   fill="#CADFED" d="M4556.2,350.6
				c15.5-139,22-282.2,15.6-431.3c7.3,9.4,13.1,15.9,16.5,42.5c12.1,135,0.5,263-12.6,390.5L4556.2,350.6z"/>
			<path id="path19868"  fill="#3E5464" d="M4554,351.5l-1.3,8.6l22.9,1.8l1.3-8.6L4554,351.5z"/>
			<path id="path19870"  fill="#BCD6E6" d="M4572.2-72.6c5.8,146.2-0.7,286.8-15.9,423.2l14,1.2
				c13.1-127.3,24.5-255.1,12.5-389.9C4580.4-57,4576.7-65.8,4572.2-72.6z"/>
			<path id="path19872"  fill="#596C7A" d="M4542.2,343.6c-3,0.1-5.5,2.6-5.5,5.5
				c0,2.8,2.2,5,5.1,5.1l46.5,1.9c3,0.1,5.7-2.2,6-5.1c0.3-2.9-1.9-5.4-4.9-5.5l0,0l-46.5-1.9
				C4542.5,343.6,4542.3,343.6,4542.2,343.6L4542.2,343.6z"/>
			<path id="path19874"  fill="#3E5464" d="M4551.2,371.6l-0.8,5.6l22.8,2.3l0.8-5.6L4551.2,371.6z
				 M4547.6,396.9l-0.8,5.7l23.2-0.1l0.8-5.7L4547.6,396.9z M4544.4,420.3l-0.8,5.7l23.2-0.1l0.8-5.7L4544.4,420.3z M4541.4,441.4
				l-0.8,5.6l23,0.9l0.8-5.6L4541.4,441.4z M4538.6,461.6l-0.8,5.7l22.4,5.1l0.8-5.7L4538.6,461.6z"/>
		</g>
		<g id="g20851" transform="translate(-1.48755,-3.0052038)">
			
				<g id="g20701" transform="matrix(-0.91214656,0.4098642,-0.4098642,-0.91214656,5450.1014,845.34055)" >
				<path id="path19912"   fill="#151F2E" d="M4497.4,2268.3
					c3,8.8,6.2,19,14.5,24.6c9.1,7.1,18.1,14.3,27.2,21.3c24.6-29.5,49.3-59.1,73.9-88.6c-4.6-5-7.7-7.7-13.1-12
					c-27.8,7.7-56,16.5-80,27.6C4510.3,2240.6,4494.8,2258.1,4497.4,2268.3L4497.4,2268.3z"/>
				<path id="path19914"  fill="#293648" d="M4521.7,2240.4l-8.6,16.2l68.5-22.6l19-19.9
					c-0.2-0.2-0.4-0.3-0.6-0.5C4572.9,2221.1,4545.4,2229.7,4521.7,2240.4L4521.7,2240.4z"/>
				<path id="path19924"  d="M4535,2310.9c1.4,1.1,2.8,2.2,4.2,3.2l73.9-88.6
					c-1.4-1.5-2.6-2.7-3.8-3.9L4535,2310.9L4535,2310.9z"/>
			</g>
			<g id="g20814">
				<g id="g20687" transform="translate(-26.754834,-42.876154)">
					
						<path id="path19910"   fill="#151F2E" d="
						M466.5,595c-13,16.4-15.5,40.9-3.7,49.3l147.7,110.5c29.5,9.4,65.7-29.9,49.8-57.8L512.2,580.9
						C500.5,571.9,479.8,578.2,466.5,595L466.5,595z"/>
					<path id="path19930"  fill="#212B39" d="M546,650.4c-6.9,7.8-9.1,17.4-4.8,21.5
						c0.3,0.2,0.5,0.5,0.8,0.7l70.9,49.9c4.7,3.6,13.9,0,20.6-8.1c6.7-8,8.2-17.4,3.5-21c-0.1-0.1-0.2-0.2-0.3-0.2l-70.9-49.9
						C561.2,639.9,552.6,643,546,650.4L546,650.4z"/>
				</g>
				
					<g id="g20706" transform="matrix(-0.90268622,0.43029943,-0.43029943,-0.90268622,5446.2258,780.17635)" >
					
						<path id="path19908"   fill="#151F2E" d="
						M4410.2,2268.7c13.4,9.5,59.6,41.4,59.6,41.4l22.3-29.2l-48.9-44.9C4407.9,2219.6,4394.5,2256.7,4410.2,2268.7L4410.2,2268.7z"
						/>
					<path id="path19918"   fill="#151F2E" d="M4306.1,2206.8
						c-13.8-24.6,16.7-61.8,47.8-57l105.1,85.8c-3.1,24.6-21.5,46.2-45,54.3L4306.1,2206.8z"/>
					<path id="path19932"  fill="#212B39" d="M4348.1,2182.1c-6.9,7.5-9.1,17.2-4.8,21.5
						c0.3,0.3,0.5,0.5,0.8,0.7l70,54c4.7,3.8,13.8,0.6,20.4-7.2c6.6-7.8,8.2-17.2,3.5-21.1c-0.1-0.1-0.2-0.2-0.3-0.3l-70-54
						C4363.2,2172.2,4354.7,2174.9,4348.1,2182.1L4348.1,2182.1z"/>
					<path id="path20695"  d="M4454.8,2247.8c-1.3,0-2.4,0.8-2.9,1.9c-6.3,13-13.2,21-20.5,27.3
						c-1.4,1.2-1.5,3.4-0.2,4.8c1.3,1.5,3.6,1.6,5,0.4c0,0,0,0,0,0c7.8-6.8,15.4-15.6,22.1-29.3c0.8-1.7,0.1-3.8-1.7-4.7
						C4456,2247.9,4455.4,2247.8,4454.8,2247.8L4454.8,2247.8z"/>
					<path id="path20699"  d="M4489.1,2278.6c-1.1,0-2.1,0.7-2.6,1.7
						c-5.6,11.6-11.8,18.6-18.2,24.2c-1.3,1.1-1.3,3-0.2,4.3c1.2,1.3,3.2,1.5,4.4,0.4c0,0,0,0,0,0c6.9-6,13.6-13.8,19.6-26.1
						c0.8-1.5,0.1-3.3-1.5-4.1C4490.2,2278.7,4489.7,2278.6,4489.1,2278.6z"/>
				</g>
			</g>
		</g>
		<g id="g20799" transform="matrix(-1,0,0,1,5059.8719,-19.255204)">
			<g id="g20773" transform="translate(-86.004834,-26.626154)">
				
					<path id="path20775"   fill="#151F2E" d="
					M4794.8,595c-13,16.4-15.5,40.9-3.7,49.3l147.7,110.5c29.5,9.4,65.7-29.9,49.8-57.8l-148.1-116.1
					C4828.8,571.9,4808.1,578.2,4794.8,595L4794.8,595z"/>
				<path id="path20777"  fill="#212B39" d="M4874.3,650.4c-6.9,7.8-9.1,17.4-4.8,21.5
					c0.3,0.2,0.5,0.5,0.8,0.7l70.9,49.9c4.7,3.6,13.9,0,20.6-8.1c6.6-8,8.2-17.4,3.5-21c-0.1-0.1-0.2-0.2-0.3-0.2l-70.9-49.9
					C4889.5,639.9,4880.9,643,4874.3,650.4L4874.3,650.4z"/>
			</g>
			
				<g id="g20779" transform="matrix(-0.91214656,0.4098642,-0.4098642,-0.91214656,5390.8514,861.59055)" >
				<path id="path20781"   fill="#151F2E" d="M549.4,494.2
					c3,8.8,6.2,19,14.5,24.6c9.1,7.1,18.1,14.3,27.2,21.3c24.6-29.5,49.3-59.1,73.9-88.6c-4.6-5-7.7-7.7-13.1-12
					c-27.8,7.7-56,16.5-80,27.6C562.2,466.6,546.8,484.1,549.4,494.2L549.4,494.2z"/>
				<path id="path20783"  fill="#293648" d="M573.7,466.4l-8.6,16.2l68.5-22.6l19-19.9
					c-0.2-0.2-0.4-0.3-0.6-0.5C624.8,447.1,597.3,455.7,573.7,466.4L573.7,466.4z"/>
				<path id="path20785"  d="M586.9,536.9c1.4,1.1,2.8,2.2,4.2,3.2l73.9-88.6
					c-1.4-1.5-2.6-2.7-3.8-3.9L586.9,536.9L586.9,536.9z"/>
			</g>
			
				<g id="g20787" transform="matrix(-0.90268622,0.43029943,-0.43029943,-0.90268622,5386.9758,796.42635)" >
				
					<path id="path20789"   fill="#151F2E" d="
					M503.1,406.3c13.4,9.5,59.6,41.4,59.6,41.4l22.3-29.2l-48.9-44.9C500.8,357.1,487.4,394.2,503.1,406.3L503.1,406.3z"/>
				<path id="path20791"   fill="#151F2E" d="M399,344.3
					c-13.8-24.6,16.7-61.8,47.8-57L552,373.1c-3.1,24.6-21.5,46.2-45,54.3L399,344.3z"/>
				<path id="path20793"  fill="#212B39" d="M441.1,319.6c-6.9,7.5-9.1,17.2-4.8,21.5
					c0.3,0.3,0.5,0.5,0.8,0.7l70,54c4.7,3.8,13.8,0.6,20.4-7.2c6.6-7.8,8.2-17.2,3.5-21.1c-0.1-0.1-0.2-0.2-0.3-0.3l-70-54
					C456.1,309.7,447.6,312.5,441.1,319.6L441.1,319.6z"/>
				<path id="path20795"  d="M547.7,385.3c-1.3,0-2.4,0.8-2.9,1.9c-6.3,13-13.2,21-20.5,27.3
					c-1.4,1.2-1.5,3.4-0.2,4.8c1.3,1.5,3.6,1.6,5,0.4c0,0,0,0,0,0c7.8-6.8,15.4-15.6,22-29.3c0.8-1.7,0.1-3.8-1.7-4.7
					C548.9,385.4,548.3,385.3,547.7,385.3L547.7,385.3z"/>
				<path id="path20797"  d="M582,416.1c-1.1,0-2.1,0.7-2.6,1.7c-5.6,11.6-11.8,18.6-18.2,24.2
					c-1.3,1.1-1.3,3-0.2,4.3c1.2,1.3,3.2,1.5,4.4,0.4c0,0,0,0,0,0c6.9-6,13.6-13.8,19.6-26.1c0.8-1.5,0.1-3.3-1.5-4.1
					C583.1,416.3,582.6,416.1,582,416.1z"/>
			</g>
		</g>
		<path id="path19934"  fill="#D7D2BB" d="M274.5,510v33.4c0,19.6,15.5,35.4,34.8,35.4H480
			c19.3,0,34.8-15.8,34.8-35.4V510H274.5L274.5,510z"/>
		<path id="path19936"  fill="#28313D" d="M393.9,277.6c-28.4,0.5-56.6,5.8-84.6,14.2
			c-18.5,5.6-34.8,40.5-34.8,62.6v181.3h240.4V354.4c0-22.1-16.6-55.9-34.8-62.6C451,281.3,422.3,277.1,393.9,277.6L393.9,277.6z"/>
		
			<g id="g21006" transform="matrix(0.99767592,-0.06813781,0.06813781,0.99767592,-135.31048,189.17242)" >
			
				<path id="path19990"   fill="#28313D" d="
				M631.8,155.2L701,275.6c-15.1,7.7-35.6,14.5-53.8,22.3l-58.6-122.8C578.4,140.1,626.9,144.2,631.8,155.2z"/>
			<path id="path19992"   fill="#0F1A29" d="M620.6,236.2
				c1.5,0,2.9,0.8,3.5,2l28.5,53.1c2.2,4.2-4.6,7.2-6.7,3l-28.5-53.1C616.2,238.9,617.9,236.2,620.6,236.2z"/>
			<path id="path19994"   fill="#434D5B" d="M629.2,158.9
				c1.4,0,2.6,0.7,3.2,1.9l63.4,107.6c2.4,4.1-4.1,7.4-6.5,3.3L626,164.1C624.6,161.8,626.4,158.9,629.2,158.9z"/>
		</g>
		<path id="path19938"  fill="#323C49" d="M394.2,298.2c-18.5,0.4-36.8,4.9-55,12
			c-12.1,4.7-22.6,34.1-22.6,52.7v152.7h156.3V362.8c0-18.6-10.8-47.1-22.6-52.7C431.3,301.3,412.6,297.7,394.2,298.2L394.2,298.2z"
			/>
		<path id="path19940"  fill="#434D5B" d="M351.4,287.3c-3.1-0.1-5.7,2.1-5.8,5
			c-0.1,1.4,0.5,2.8,1.5,3.8l50.7,51.3c2.1,2.1,5.6,2.3,7.9,0.3c2.3-2,2.4-5.3,0.3-7.4c0,0,0,0,0,0L355.4,289
			C354.4,288,352.9,287.3,351.4,287.3z"/>
		<path id="path19942"   fill="#0F1A29" d="M394.8,332.6
			c-1.8,0.1-3.5,1-4.5,2.5L276,497.1c-4,5.9,5.3,11.5,9.4,5.7l114.3-162C402.2,337.2,399.3,332.4,394.8,332.6L394.8,332.6z"/>
		<path id="path19944"   fill="#434D5B" d="M441.9,282.3
			c-1.8,0-3.5,0.9-4.5,2.4L276.8,510.6c-4.2,5.8,5.1,11.6,9.3,5.8l160.5-225.9C449.2,287,446.5,282.2,441.9,282.3z"/>
		<path id="path19946"   fill="#151F2E" d="M393.9,277.6
			c-14,0.3-28,1.7-41.9,4c-1,2-1.7,3.5-1.7,3.5l50.3,50.7l38.4-50.7c0,0-0.9-1.9-2.2-4.5C422.4,278.3,408.1,277.4,393.9,277.6z"/>
		<path id="path19948"   fill="#323C49" d="M365.7,239h58v57.1
			c-17.7,9.3-36.1,14.3-58,0V239z"/>
		<path id="path19950"   fill="#28313D" d="M274.2,523.2h239.8
			c5.5,23.4,19,45,39.3,64.9c-104.8,28.3-211.9,24.5-320.4,0.6C250.9,569.6,271.5,552.3,274.2,523.2L274.2,523.2z"/>
		<path id="path19952"   fill="#323C49" d="M316.5,523.2
			c-6.7,31.5-17.5,47.8-27.8,65.9c55,7.6,159.5,7.7,209.6,2.6c-13.6-21.5-20.5-44.7-25.5-68.5H316.5z"/>
		<path id="path19954"   fill="#151F2E" d="M373.6,520l17.8,7.8
			l-39.2,67.2l-20.5-15.8L373.6,520z"/>
		<path id="path19956"  fill="#151F2E" d="M274.5,505.3V522h240.4v-16.7H274.5z"/>
		<path id="path19958"   fill="#151F2E" d="M412.2,510.2l-17.8,7.8
			l33.6,59.8l20.5-15.8L412.2,510.2z"/>
		<path id="path19960"  d="M418.7,521.4c-0.4,0-0.8,0.1-1.2,0.3l-14.6,6.7c-1.3,0.6-1.9,2-1.3,3.2
			c0.6,1.2,2.1,1.8,3.4,1.2c0.1,0,0.1,0,0.2-0.1l14.6-6.7c1.3-0.6,1.8-2,1.2-3.3C420.6,522,419.7,521.4,418.7,521.4L418.7,521.4z"/>
		<path id="path19962"  d="M370.1,505.3c-0.2,0.7-0.4,1.4-0.4,2.1v12.5c0,0.7,0.2,1.4,0.4,2.1h49.1
			c0.2-0.7,0.4-1.4,0.4-2.1v-12.5c0-0.7-0.2-1.4-0.4-2.1H370.1z"/>
		<path id="rect19964" fill="#151F2E" d="M383.9,498.8h21.5c4.9,0,8.8,3.9,8.8,8.7v12.5c0,4.8-3.9,8.7-8.8,8.7h-21.5
			c-4.9,0-8.8-3.9-8.8-8.7v-12.5C375.1,502.6,379.1,498.8,383.9,498.8z"/>
		<path id="path19966"  fill="#2E3948" d="M384.6,499.4c-1.4,0.1-2.5,1.2-2.5,2.6
			c0.1,1.3,1.3,2.4,2.7,2.3c0,0,0,0,0.1,0c8.4-0.5,14.5,0.1,18.3,1.2c3.8,1.2,5.2,2.6,5.6,4.5c0.3,1.3,1.7,2.1,3.1,1.9
			c1.4-0.3,2.3-1.6,2-2.9c0,0,0,0,0,0c-0.9-3.8-4.2-6.6-9.1-8.1C400,499.3,393.4,498.9,384.6,499.4z"/>
		<path id="path19968"  d="M374.6,522c-1.4,0-2.6,1.1-2.6,2.4c0,0.9,0.5,1.8,1.4,2.2l11.4,5.7
			c1.2,0.7,2.8,0.3,3.6-0.8c0.7-1.1,0.4-2.6-0.9-3.3c-0.1,0-0.2-0.1-0.2-0.1l-11.4-5.8C375.5,522.2,375.1,522.1,374.6,522L374.6,522
			z"/>
		<g id="g20050" transform="translate(1907.1982,-663.42474)">
			<g id="g20052" transform="matrix(0.34431568,0,0,0.42399877,519.23071,1420.1417)">
				<path id="ellipse20054" fill="#28313D" d="M-6188-1483.2c32.1,0,58.1,28,58.1,62.5c0,34.5-26,62.4-58.1,62.4
					c-32.1,0-58.1-28-58.1-62.4C-6246.1-1455.2-6220.1-1483.2-6188-1483.2z"/>
			</g>
			<g id="g20056" transform="matrix(0.34431568,0,0,0.42399877,572.53841,1420.1417)">
				<path id="ellipse20058" fill="#28313D" d="M-5768.6-1483.2c32.1,0,58.1,28,58.1,62.5c0,34.5-26,62.4-58.1,62.4
					c-32.1,0-58.1-28-58.1-62.4C-5826.6-1455.2-5800.6-1483.2-5768.6-1483.2z"/>
			</g>
		</g>
		<path id="path20060"  fill="#28313D" d="M342,22.7c-29.3,0-54.7,36.8-52.9,62.9l4.4,63.9h0.3
			v37.1c0,42.9,35.8,77.5,80.4,77.5h41c44.5,0,80.4-34.6,80.4-77.5v-37.1h0.7l4-63.9c1.6-26.1-23.6-62.9-52.9-62.9H342L342,22.7z"/>
		<path id="path20062"  fill="#323C49" d="M356,35c-21.6,0-40.2,33-38.9,56.5l3.2,57.4h0.3v33.3
			c0,38.6,26.4,69.6,59.1,69.6h30.1c32.7,0,59.1-31,59.1-69.6v-33.3h0.5l2.9-57.4C473.5,68.1,455,35,433.4,35H356L356,35z"/>
		<path id="path20064"   fill="#F2BC89" d="M325.7,119.2l69,5.9
			l69-5.9c10.3-0.9,18.7,7.8,18.7,17.6v25.7c0,9.7-8.4,17.6-18.7,17.6l-69-9.2l-69,9.2c-10.3,1.4-18.7-7.8-18.7-17.6v-25.7
			C306.9,127,315.3,119.2,325.7,119.2z"/>
		<g id="g20096" transform="matrix(1,0,0,0.98758525,1905.4294,-644.76669)">
			<path id="path20098"  fill="#C18060" d="M-1493.7,778.3l-5.7,0.5c-10.2,14.4-1.9,29,2,46
				c0.5,2,4.1,1.4,3.6-0.6C-1498.5,803.6-1501.9,795.4-1493.7,778.3L-1493.7,778.3z"/>
			<path id="path20100"  fill="#C18060" d="M-1527.8,778.3l5.7,0.5c10.2,14.4,1.9,29-2,46
				c-0.5,2-4.1,1.4-3.6-0.6C-1523,803.6-1519.6,795.4-1527.8,778.3L-1527.8,778.3z"/>
		</g>
		<path id="path20102"  fill="#232D3B" d="M394.7,182.4l-64.5,8.1c-1.5,0.2-2.6,1.5-2.4,2.9
			c0.2,1.4,1.6,2.5,3.1,2.3c0,0,0.1,0,0.1,0l63.8-8.1l63.8,8.1c1.5,0.2,2.9-0.7,3.2-2.2c0.2-1.4-0.8-2.8-2.3-3c-0.1,0-0.1,0-0.1,0
			L394.7,182.4z"/>
		<path id="path20104"   fill="#232D3B" d="M394.7,205.6l-63.1-0.3
			c-3.7,0.4-2.9,5.7,0.7,5.2l62.4,0.4l62.4-0.4c3.7,0.6,4.4-4.8,0.7-5.2L394.7,205.6z"/>
		<path id="path20106"   fill="#232D3B" d="M394.7,230.1l-60.5-9.9
			c-3.5,0.4-2.8,5.7,0.7,5.2l59.8,10l59.8-10c3.5,0.6,4.2-4.8,0.7-5.2L394.7,230.1z"/>
		<path id="path20108"  fill="#232D3B" d="M394.6,175.8c-1.5,0-2.8,1.2-2.7,2.6v66.4
			c0,1.4,1.2,2.6,2.7,2.7c1.5,0,2.8-1.1,2.8-2.6c0,0,0,0,0-0.1v-66.4C397.5,177,396.2,175.8,394.6,175.8
			C394.7,175.8,394.7,175.8,394.6,175.8z"/>
		<g id="g21087" transform="matrix(-0.89738649,0,-0.0709826,0.78499737,4391.5981,406.46918)">
			<path id="path21090"   fill="#F2BC89" d="M4452.5-74
				c-2,0-3.9,1-4.8,2.5l-14.5,31.1L4421,0.5c-1.5,6.3,13.8,12.4,15.1,6.1l9.1-41.6l12.2-31.9C4459.5-70.1,4456.8-74,4452.5-74
				L4452.5-74z"/>
			<path id="path21092"   fill="#C18060" d="M4455.4-68.1
				c0,0-0.1,0-0.1,0c-1.7,0.1-5.1,0.8-6.2,1.9c-1.1,1.1-2.1,2.5-3,4.3c-1.9,3.4-3.8,7.9-5.6,13c-3.6,10.1-7.7,23.7-11,32.1
				c-0.9,2.3,2.9,3.5,3.8,1.2c3.4-8.7,7.4-22.3,11-32.2c1.8-4.9,3.6-9.4,5.4-12.5c0.9-1.5,4.6-3.3,4.6-3.3c0.7-0.7,1.2-0.9,1.4-0.9
				C4458.1-64.7,4458-68,4455.4-68.1L4455.4-68.1z"/>
			<path id="path21094"   fill="#F2BC89" d="M4453.4-64
				c-2.4,0-4.5,1.4-5.2,3.4l-21.4,60.3c-2.1,6,12.9,11.5,15,5.4l16.9-62.9C4459.9-60.8,4457.1-64,4453.4-64L4453.4-64z"/>
			<path id="path21096"   fill="#F2BC89" d="M4420.9,0
				c3.4-7,24.4-11.7,29.4-3.7l-0.1,50.7c-3.9,6.8-10.6,12.6-20.5,12.5c-15.9,0.1-25.1-13.4-18.6-24.3l5.7-12L4420.9,0z"/>
			<path id="path21098"   fill="#C18060" d="M4449.2-43.7
				c-2.1,0.4-4,1.5-5.1,3.2c-1.7,3.8-2.6,7.9-3.8,11.9c-2.4,8.9-3.6,13.2-5.6,22.2c-0.3,1.8,1.9,3.3,3.6,2.3c1.5-0.8,1.2-2.7,1.7-4
				c2.5-10.3,3.9-16,7-26.2c0.7-1.5,0.7-3.6,2.3-4.6c1.7-1,4.1,0.8,5.6-0.8c1.4-1.3,0.3-3.7-1.6-3.8
				C4451.9-43.7,4450.5-43.9,4449.2-43.7z"/>
			<path id="path21100"   fill="#F2BC89" d="M4446.9-37.1l-11,43.8
				c-1.3,6.3,12.1,15.4,13.3,9.1l7.2-51.4C4456.8-41.9,4448.6-41.7,4446.9-37.1z"/>
		</g>
		
			<g id="g20998" transform="matrix(0.02172512,0.99976398,-0.99976398,0.02172512,3456.2195,-1789.572)" >
			
				<path id="path19984"   fill="#28313D" d="
				M2163.1,3014.5c6.5,3.1,10.6,8.5,10.9,14.6l-2.3,49.6l-32.3,1.2l-2.3-46.9C2135.8,3017.9,2147.1,3006.9,2163.1,3014.5z"/>
			<path id="path19988"   fill="#28313D" d="M2123.9,2943.7
				c-3.2-23.8,42.1-34.6,48-14.7l11.9,96.2c-10.3,17.8-48.5,18.8-57.6,4.9L2123.9,2943.7z"/>
			<path id="path20006"  fill="#434D5B" d="M2127.6,2943.4c-1.9-0.1-3.6,1.5-3.6,3.4
				c0,0.1,0,0.2,0,0.4l3,83.6l15.3,7.6c1.7,0.9,3.8,0.1,4.7-1.7c0.8-1.8,0.1-4-1.6-4.8l-11.5-5.7l-2.9-79.2
				C2130.9,2945.1,2129.4,2943.5,2127.6,2943.4L2127.6,2943.4z"/>
			<path id="path20008"   fill="#0F1A29" d="M2168.3,2925.8
				c-2.1,0.1-3.6,2-3.4,4.2l10.3,94.3c0.4,5,7.5,4.2,6.9-0.8l-10.3-94.3C2171.7,2927.2,2170.1,2925.8,2168.3,2925.8z"/>
			<path id="path20992"  fill="#0F1A29" d="M2170.6,3031.4c-0.1,0-0.2,0-0.2,0l-31.6,2.4
				c-1.9,0.1-3.4,1.8-3.4,3.8c0.1,2,1.7,3.7,3.6,3.6c0.1,0,0.2,0,0.3,0l31.6-2.4c1.9-0.1,3.4-1.9,3.3-4
				C2174,3032.9,2172.4,3031.4,2170.6,3031.4L2170.6,3031.4z"/>
			<path id="path20996"  fill="#0F1A29" d="M2168.6,3074.2c-0.1,0-0.1,0-0.2,0l-25.6,0.7
				c-1.6,0-2.8,1.1-2.8,2.5c0,1.4,1.3,2.6,2.8,2.6c0.1,0,0.1,0,0.2,0l25.6-0.7c1.6,0,2.8-1.2,2.7-2.6
				C2171.3,3075.3,2170.1,3074.2,2168.6,3074.2L2168.6,3074.2z"/>
		</g>
		<g id="g21124" transform="matrix(-1,0,0,1,5117.8047,0)">
			
				<g id="g21126" transform="matrix(0.99767592,-0.06813781,0.06813781,0.99767592,-135.14008,189.17242)" >
				
					<path id="path21128"   fill="#28313D" d="
					M4950,450.2l69.2,120.4c-15.1,7.7-35.6,14.5-53.8,22.3L4906.8,470C4896.6,435,4945.1,439.1,4950,450.2z"/>
				<path id="path21130"   fill="#0F1A29" d="M4940.5,534.7
					c1.5,0,2.9,0.8,3.5,2l26.9,49.5c2.2,4.2-4.6,7.2-6.7,3l-26.9-49.5C4936.1,537.4,4937.8,534.8,4940.5,534.7z"/>
				<path id="path21132"   fill="#434D5B" d="M4947.5,453.9
					c1.4,0,2.6,0.7,3.2,1.9l63.4,107.6c2.4,4.1-4.1,7.4-6.5,3.3l-63.4-107.6C4942.8,456.7,4944.6,453.8,4947.5,453.9z"/>
			</g>
			<g id="g21134" transform="matrix(-0.89738649,0,-0.0709826,0.78499737,4391.7685,406.46918)">
				<path id="path21136"   fill="#F2BC89" d="M-370.7-74
					c-2,0-3.8,1-4.8,2.5L-390-40.4l-12.2,40.9c-1.5,6.3,13.8,12.4,15.1,6.1l9.1-41.6l12.2-31.9C-363.7-70.1-366.5-74-370.7-74
					L-370.7-74z"/>
				<path id="path21138"   fill="#C18060" d="M-367.8-68.1
					c0,0-0.1,0-0.1,0c-1.7,0.1-5.1,0.8-6.2,1.9c-1.1,1.1-2.1,2.5-3,4.3c-1.9,3.4-3.8,7.9-5.6,13c-3.6,10.1-7.7,23.7-11,32.1
					c-0.9,2.3,2.9,3.5,3.8,1.2c3.4-8.7,7.4-22.3,11-32.2c1.8-4.9,3.6-9.4,5.4-12.5c0.9-1.5,4.6-3.3,4.6-3.3c0.7-0.7,1.3-0.9,1.4-0.9
					C-365.1-64.7-365.2-68-367.8-68.1L-367.8-68.1z"/>
				<path id="path21140"   fill="#F2BC89" d="M-369.9-64
					c-2.4,0-4.5,1.4-5.2,3.4l-21.4,60.3c-2.1,6,12.9,11.5,15,5.4l16.9-62.9C-363.4-60.8-366.1-64-369.9-64L-369.9-64z"/>
				<path id="path21142"   fill="#F2BC89" d="M-402.3,0
					c3.3-7,24.4-11.7,29.4-3.7l-0.1,50.7c-3.9,6.8-10.6,12.6-20.5,12.5c-15.9,0.1-25.1-13.4-18.6-24.3l5.7-12L-402.3,0z"/>
				<path id="path21144"   fill="#C18060" d="M-374-43.7
					c-2.1,0.4-4,1.5-5.1,3.2c-1.7,3.8-2.6,7.9-3.8,11.9c-2.4,8.9-3.6,13.2-5.6,22.2c-0.3,1.8,1.9,3.3,3.6,2.3c1.5-0.8,1.2-2.7,1.7-4
					c2.5-10.3,3.9-16,7-26.2c0.7-1.5,0.7-3.6,2.3-4.6c1.7-1,4.1,0.8,5.6-0.8c1.4-1.3,0.3-3.7-1.6-3.8
					C-371.4-43.7-372.7-43.9-374-43.7z"/>
				<path id="path21146"   fill="#F2BC89" d="M-376.3-37.1l-11,43.8
					c-1.3,6.3,12.1,15.4,13.3,9.1l7.2-51.4C-366.4-41.9-374.6-41.7-376.3-37.1z"/>
			</g>
			
				<g id="g21148" transform="matrix(0.02172512,0.99976398,-0.99976398,0.02172512,3456.3899,-1789.572)" >
				
					<path id="path21150"   fill="#28313D" d="
					M2257.2-1312.8c6.5,3.1,10.6,8.5,10.9,14.6l-2.3,49.6l-32.3,1.2l-2.3-46.9C2229.8-1309.3,2241.2-1320.3,2257.2-1312.8z"/>
				<path id="path21152"   fill="#28313D" d="M2217.9-1383.6
					c-3.2-23.8,42.1-34.6,48-14.7l11.9,96.2c-10.3,17.8-48.5,18.8-57.6,4.9L2217.9-1383.6z"/>
				<path id="path21154"  fill="#434D5B" d="M2221.7-1383.8c-1.9-0.1-3.6,1.5-3.6,3.4
					c0,0.1,0,0.2,0,0.4l3,83.6l15.3,7.6c1.7,0.9,3.8,0.1,4.7-1.7c0.8-1.8,0.1-4-1.6-4.8l-11.5-5.7l-2.9-79.2
					C2224.9-1382.2,2223.5-1383.8,2221.7-1383.8L2221.7-1383.8z"/>
				<path id="path21156"   fill="#0F1A29" d="M2262.4-1401.5
					c-2.1,0.1-3.6,2-3.4,4.2l10.3,94.3c0.4,5,7.5,4.2,6.9-0.8l-10.3-94.3C2265.7-1400,2264.2-1401.5,2262.4-1401.5z"/>
				<path id="path21158"  fill="#0F1A29" d="M2264.6-1295.9c-0.1,0-0.2,0-0.2,0l-31.6,2.4
					c-1.9,0.1-3.4,1.8-3.4,3.8c0.1,2,1.7,3.7,3.6,3.6c0.1,0,0.2,0,0.3,0l31.6-2.4c1.9-0.1,3.4-1.9,3.3-4
					C2268-1294.4,2266.5-1295.9,2264.6-1295.9L2264.6-1295.9z"/>
				<path id="path21160"  fill="#0F1A29" d="M2262.6-1253.1c-0.1,0-0.1,0-0.2,0l-25.6,0.7
					c-1.6,0-2.8,1.1-2.8,2.5c0,1.4,1.3,2.6,2.8,2.6c0.1,0,0.1,0,0.2,0l25.6-0.7c1.6,0,2.8-1.2,2.7-2.6
					C2265.3-1252,2264.1-1253.1,2262.6-1253.1L2262.6-1253.1z"/>
			</g>
		</g>
		<path id="path21258"  fill="#C18060" d="M394.6,350.8c-1.7,0-3,1.5-3,3.3V442
			c0,1.8,1.3,3.3,3,3.3c1.7,0,3.1-1.4,3.1-3.3c0,0,0-0.1,0-0.1v-87.9C397.7,352.3,396.4,350.8,394.6,350.8
			C394.7,350.8,394.6,350.8,394.6,350.8z"/>
		<g id="g21282" transform="translate(-290.70823,-26.503495)">
			<g id="g21262" transform="translate(996.27918,292.65037)">
				<g id="g21264" transform="translate(0.17857143,0)">
					<path id="path21266"  fill="#C18060" d="M-333.8-119.5c-0.2,0-0.3-0.1-0.5-0.1
						c-2.9-0.2-9.3-0.8-15.9-1.2c-6.6-0.4-13.2-0.6-17.7,0.1c-1.4,0.2-2.1,1.2-1.6,2.1c0.5,1,2.1,1.6,3.5,1.3c0,0,0.1,0,0.1,0
						c2.8-0.5,9.4-0.4,15.8,0c6.4,0.4,12.7,1,15.8,1.2c1.5,0.1,2.7-0.6,2.7-1.5C-331.5-118.4-332.5-119.3-333.8-119.5L-333.8-119.5z
						"/>
					<path id="path21268"  fill="#C18060" d="M-337.5-129.3c-1,0-1.9,0.8-1.9,1.7
						c0,0.3,0.1,0.6,0.2,0.8l5,9.1l-8,8.6c-0.7,0.7-0.6,1.8,0.2,2.5c0.8,0.6,1.9,0.5,2.6-0.2l9.6-10.4l-6.2-11.2
						C-336.2-129-336.8-129.3-337.5-129.3z"/>
				</g>
				<g id="g21270" transform="matrix(-1,0,0,1,3706.3181,0)">
					<path id="path21272"  fill="#C18060" d="M3994.5-119.5c-0.2,0-0.3-0.1-0.5-0.1
						c-2.9-0.2-9.3-0.8-15.9-1.2c-6.6-0.4-13.2-0.6-17.7,0.1c-1.4,0.2-2.1,1.2-1.6,2.1c0.5,1,2.1,1.6,3.5,1.3c0,0,0.1,0,0.1,0
						c2.8-0.5,9.4-0.4,15.8,0c6.4,0.4,12.7,1,15.8,1.2c1.5,0.1,2.7-0.6,2.7-1.5C3996.8-118.4,3995.8-119.3,3994.5-119.5
						L3994.5-119.5z"/>
					<path id="path21274"  fill="#C18060" d="M3990.8-129.3c-1,0-1.9,0.8-1.9,1.7
						c0,0.3,0.1,0.6,0.2,0.8l5,9.1l-7.9,8.6c-0.7,0.7-0.6,1.8,0.2,2.5c0.8,0.6,1.9,0.5,2.6-0.2l9.6-10.4l-6.2-11.2
						C3992.1-129,3991.5-129.3,3990.8-129.3z"/>
				</g>
			</g>
			<g id="g21276" transform="translate(995.63538,292.91823)">
				<path id="path21278"   d="M-380.7-156.3c14.8-2.9,32.7-1.8,47.5,0
					c8.1,1.4,7.9,9.5,0.2,9.3c-15.5-1.5-33.9-2.4-47.5,0C-389-147.3-384.7-154.7-380.7-156.3L-380.7-156.3z"/>
				<path id="path21280"   d="M-239.8-156.3c-14.8-2.9-32.7-1.8-47.5,0
					c-8.1,1.4-7.9,9.5-0.2,9.3c15.5-1.5,33.8-2.4,47.5,0C-231.5-147.3-235.8-154.7-239.8-156.3L-239.8-156.3z"/>
			</g>
		</g>
	</g>
	
		<path id="path22182"   fill="#FFFFFF" d="
		M342.1,29.9c-48.7,1.9-81.8,52.9-74.4,95.7c7.7,20.3-13.1,32-13.8,51.6c-3.1,29.9,24.7,48.2,27,77.2c3.5,17.3,32,35.1,33.1,42.8
		c-24.1,4.6-47.8,10.8-55,29.6c-23.9,35.1-46.7,71.2-71.7,105.4c-14.2,22.8,0.9,59.7,23.6,61.7l41.4,6c-1.6,27.9,7.1,60.3-16.8,82.4
		c-20.5,25.5-46.9,45.3-73.1,65.4c-13.5,10.7-30.9,20.2-30.8,39.2c-6.1,43.4,45.9,87.3,90.5,67.2c27.6-6.7,55.2-13.5,82.8-20.2
		c-8.8,13.1,13,12.7,20.6,18.3c10.2,3.8,20.4,7.5,30.6,11.3c1.1-17.3,32.7-38.2,43.2-37.9c14.5,9.3,31.7,33,39.5,36.1
		c16.3-6,32.6-11.9,48.4-18.9c-8.8-15.9,13-3.1,21.3-2.9c27.2,6.1,54.1,14.1,81.4,19.4c47.8,1.7,87.8-56.8,58.6-94.8
		c-28-23.2-59.1-43.5-84.9-69c-16.8-17.7-29.6-40.3-26.2-64.6c1.3-9.8-2.6-23.8,1.9-31.1c14.7-2.5,29.7-3.6,44.1-6.9
		c26.6-6.9,33.8-56.6,7.3-76.4c-19.6-29.3-39.3-58.7-58.9-88c31.7-5.3,10.1-35.2,23-49.1c21.3-29.3,44.8-57.8,64.8-87.7
		c8.4-28-32.4-48.6-55.6-35.2c-9.9,13.2-19.9,26.4-29.8,39.7c11.4-23.7-14.8-41.4-12.5-62.7c4.7-29.4-2.7-60.6-25.7-82.1
		C478,30.5,449,28.5,422.9,29.9H342.1z M342.1,40.3c37.5,0.3,75-0.7,112.5,0.5c41.3,8.6,62.6,52.4,55.8,89.3
		c-7.6,19.6,12,29,14,47.4c-1.2,29.1-24.4,46.6-27.5,76.1c-13.7,24.5,6.3,4.2,11.6-5.7c21-27.9,41.9-55.7,62.9-83.6
		c21.2-9.4,50.7,17.1,30.5,33.8c-22.8,30.6-46.7,61.6-68.7,92c24.5,21.3-11.4,29.9-23.1,27.9c7.4,7,13.5,19,21,29.4
		c20.2,29.5,39.1,60,60.5,88.5c10.9,17.8,2.6,48.4-19.4,48.5l-46.2,6.7c0.7,21.9-1.4,44.1,1.1,65.8c14.9,47.5,62.1,73.2,99.2,104
		c12.8,7.7,23,19.5,20.8,34.9c-1.3,33.9-41.9,64.4-76.5,48.5c-33.9-8.3-67.7-16.5-101.6-24.8c10.9,15.9-1,22.1-16.3,25.8
		c-16.8,10-28.5-15.5-42.4-23.6c-19.7-32.5-38.9,15.5-60.3,25c-8.1,3.9-19.5-5.1-29.4-7.7c-13.4-1.7,10.4-26.8-9.4-17.3
		c-37.4,8.8-74.8,18.8-112.1,27.1c-38.6,0.8-72.4-46.3-49.3-77.6c31.4-25.4,65.8-47.9,91.4-79c20-17.6,24-43.5,22.1-67.8v-33.4
		c-17.7-2.8-35.7-4.8-53.3-8.1c-23.2-8.2-21-46.7-1.3-61.7c21.8-32.6,43.7-65.3,65.5-97.9c15.5-14.7,51.2-17.1,75.6-24
		c-38.5-9.6-67.7-46.1-67.2-84c-27.2-14.8-19.4-51.5-2.6-68.5C278,119.4,273.9,89,295,66.2C305.9,52.1,322.7,40.2,342.1,40.3z"/>

</svg>
